Hubballi-Regular-10-9.ufo
<glyph name="exclam" format="1">
  <advance width="337"/>
  <unicode hex="0021"/>
  <outline>
    <contour>
      <point x="156" y="275" type="curve" smooth="yes"/>
      <point x="163" y="553" type="line" smooth="yes"/>
      <point x="164" y="559"/>
      <point x="169" y="564"/>
      <point x="174" y="564" type="curve" smooth="yes"/>
      <point x="180" y="563"/>
      <point x="185" y="558"/>
      <point x="185" y="553" type="curve" smooth="yes"/>
      <point x="178" y="275" type="line" smooth="yes"/>
      <point x="177" y="269"/>
      <point x="172" y="264"/>
      <point x="167" y="264" type="curve" smooth="yes"/>
      <point x="161" y="265"/>
      <point x="156" y="270"/>
    </contour>
    <component base="period" xOffset="49"/>
    <component base="period" xOffset="49"/>
  </outline>
</glyph>
<glyph name="numbersign" format="1">
  <advance width="586"/>
  <unicode hex="0023"/>
  <outline>
    <contour>
      <point x="486" y="513" type="curve" smooth="yes"/>
      <point x="310" y="29" type="line" smooth="yes"/>
      <point x="308" y="24"/>
      <point x="302" y="21"/>
      <point x="296" y="23" type="curve" smooth="yes"/>
      <point x="291" y="25"/>
      <point x="288" y="31"/>
      <point x="290" y="37" type="curve" smooth="yes"/>
      <point x="466" y="521" type="line" smooth="yes"/>
      <point x="468" y="526"/>
      <point x="474" y="529"/>
      <point x="480" y="527" type="curve" smooth="yes"/>
      <point x="485" y="525"/>
      <point x="488" y="519"/>
    </contour>
    <contour>
      <point x="286" y="513" type="curve" smooth="yes"/>
      <point x="110" y="29" type="line" smooth="yes"/>
      <point x="108" y="24"/>
      <point x="102" y="21"/>
      <point x="96" y="23" type="curve" smooth="yes"/>
      <point x="91" y="25"/>
      <point x="88" y="31"/>
      <point x="90" y="37" type="curve" smooth="yes"/>
      <point x="266" y="521" type="line" smooth="yes"/>
      <point x="268" y="526"/>
      <point x="274" y="529"/>
      <point x="280" y="527" type="curve" smooth="yes"/>
      <point x="285" y="525"/>
      <point x="288" y="519"/>
    </contour>
    <contour>
      <point x="527" y="377" type="curve" smooth="yes"/>
      <point x="123" y="377" type="line" smooth="yes"/>
      <point x="117" y="377"/>
      <point x="112" y="382"/>
      <point x="112" y="388" type="curve" smooth="yes"/>
      <point x="112" y="394"/>
      <point x="117" y="399"/>
      <point x="123" y="399" type="curve" smooth="yes"/>
      <point x="527" y="399" type="line" smooth="yes"/>
      <point x="533" y="399"/>
      <point x="538" y="394"/>
      <point x="538" y="388" type="curve" smooth="yes"/>
      <point x="538" y="382"/>
      <point x="533" y="377"/>
    </contour>
    <contour>
      <point x="458" y="177" type="curve" smooth="yes"/>
      <point x="54" y="177" type="line" smooth="yes"/>
      <point x="48" y="177"/>
      <point x="43" y="182"/>
      <point x="43" y="188" type="curve" smooth="yes"/>
      <point x="43" y="194"/>
      <point x="48" y="199"/>
      <point x="54" y="199" type="curve" smooth="yes"/>
      <point x="458" y="199" type="line" smooth="yes"/>
      <point x="464" y="199"/>
      <point x="469" y="194"/>
      <point x="469" y="188" type="curve" smooth="yes"/>
      <point x="469" y="182"/>
      <point x="464" y="177"/>
    </contour>
  </outline>
</glyph>
<glyph name="dollar" format="1">
  <advance width="584"/>
  <unicode hex="0024"/>
  <outline>
    <contour>
      <point x="439" y="484" type="curve" smooth="yes"/>
      <point x="386" y="503"/>
      <point x="347" y="513"/>
      <point x="270" y="513" type="curve" smooth="yes"/>
      <point x="182" y="513"/>
      <point x="125" y="469"/>
      <point x="125" y="420" type="curve" smooth="yes"/>
      <point x="125" y="373"/>
      <point x="154" y="322"/>
      <point x="296" y="298" type="curve" smooth="yes"/>
      <point x="446" y="269"/>
      <point x="492" y="213"/>
      <point x="492" y="146" type="curve" smooth="yes"/>
      <point x="492" y="78"/>
      <point x="435" y="13"/>
      <point x="293" y="13" type="curve" smooth="yes"/>
      <point x="222" y="13"/>
      <point x="156" y="28"/>
      <point x="94" y="58" type="curve" smooth="yes"/>
      <point x="89" y="60"/>
      <point x="87" y="66"/>
      <point x="90" y="72" type="curve" smooth="yes"/>
      <point x="92" y="77"/>
      <point x="98" y="79"/>
      <point x="104" y="76" type="curve" smooth="yes"/>
      <point x="162" y="48"/>
      <point x="226" y="35"/>
      <point x="293" y="35" type="curve" smooth="yes"/>
      <point x="413" y="35"/>
      <point x="470" y="86"/>
      <point x="470" y="146" type="curve" smooth="yes"/>
      <point x="470" y="207"/>
      <point x="422" y="253"/>
      <point x="292" y="278" type="curve" smooth="yes"/>
      <point x="126" y="306"/>
      <point x="103" y="367"/>
      <point x="103" y="420" type="curve" smooth="yes"/>
      <point x="103" y="477"/>
      <point x="162" y="535"/>
      <point x="270" y="535" type="curve" smooth="yes"/>
      <point x="351" y="535"/>
      <point x="390" y="523"/>
      <point x="445" y="504" type="curve" smooth="yes"/>
      <point x="451" y="502"/>
      <point x="454" y="496"/>
      <point x="452" y="491" type="curve" smooth="yes"/>
      <point x="450" y="485"/>
      <point x="444" y="482"/>
    </contour>
    <contour>
      <point x="300" y="616" type="curve" smooth="yes"/>
      <point x="300" y="-74" type="line" smooth="yes"/>
      <point x="300" y="-80"/>
      <point x="295" y="-85"/>
      <point x="289" y="-85" type="curve" smooth="yes"/>
      <point x="283" y="-85"/>
      <point x="278" y="-80"/>
      <point x="278" y="-74" type="curve" smooth="yes"/>
      <point x="278" y="616" type="line" smooth="yes"/>
      <point x="278" y="622"/>
      <point x="283" y="627"/>
      <point x="289" y="627" type="curve" smooth="yes"/>
      <point x="295" y="627"/>
      <point x="300" y="622"/>
    </contour>
  </outline>
</glyph>
<glyph name="percent" format="1">
  <advance width="806"/>
  <unicode hex="0025"/>
  <outline>
    <contour>
      <point x="208" y="536" type="curve" smooth="yes"/>
      <point x="273" y="536"/>
      <point x="327" y="476"/>
      <point x="327" y="389" type="curve" smooth="yes"/>
      <point x="327" y="308"/>
      <point x="282" y="242"/>
      <point x="208" y="242" type="curve" smooth="yes"/>
      <point x="140" y="242"/>
      <point x="88" y="308"/>
      <point x="88" y="388" type="curve" smooth="yes"/>
      <point x="88" y="476"/>
      <point x="139" y="536"/>
    </contour>
    <contour>
      <point x="604" y="306" type="curve" smooth="yes"/>
      <point x="669" y="306"/>
      <point x="723" y="246"/>
      <point x="723" y="159" type="curve" smooth="yes"/>
      <point x="723" y="78"/>
      <point x="678" y="12"/>
      <point x="604" y="12" type="curve" smooth="yes"/>
      <point x="536" y="12"/>
      <point x="484" y="78"/>
      <point x="484" y="158" type="curve" smooth="yes"/>
      <point x="484" y="246"/>
      <point x="535" y="306"/>
    </contour>
    <contour>
      <point x="564" y="513" type="curve" smooth="yes"/>
      <point x="281" y="28" type="line" smooth="yes"/>
      <point x="278" y="23"/>
      <point x="272" y="21"/>
      <point x="267" y="24" type="curve" smooth="yes"/>
      <point x="262" y="27"/>
      <point x="260" y="33"/>
      <point x="263" y="38" type="curve" smooth="yes"/>
      <point x="546" y="523" type="line" smooth="yes"/>
      <point x="549" y="528"/>
      <point x="555" y="530"/>
      <point x="560" y="527" type="curve" smooth="yes"/>
      <point x="565" y="524"/>
      <point x="567" y="518"/>
    </contour>
    <contour>
      <point x="208" y="514" type="curve" smooth="yes"/>
      <point x="149" y="514"/>
      <point x="110" y="460"/>
      <point x="110" y="388" type="curve" smooth="yes"/>
      <point x="110" y="322"/>
      <point x="150" y="264"/>
      <point x="208" y="264" type="curve" smooth="yes"/>
      <point x="272" y="264"/>
      <point x="305" y="322"/>
      <point x="305" y="389" type="curve" smooth="yes"/>
      <point x="305" y="460"/>
      <point x="263" y="514"/>
    </contour>
    <contour>
      <point x="604" y="284" type="curve" smooth="yes"/>
      <point x="545" y="284"/>
      <point x="506" y="230"/>
      <point x="506" y="158" type="curve" smooth="yes"/>
      <point x="506" y="92"/>
      <point x="546" y="34"/>
      <point x="604" y="34" type="curve" smooth="yes"/>
      <point x="668" y="34"/>
      <point x="701" y="92"/>
      <point x="701" y="159" type="curve" smooth="yes"/>
      <point x="701" y="230"/>
      <point x="659" y="284"/>
    </contour>
  </outline>
</glyph>
<glyph name="ampersand" format="1">
  <advance width="644"/>
  <unicode hex="0026"/>
  <outline>
    <contour>
      <point x="534" y="281" type="curve" smooth="yes"/>
      <point x="448" y="159" type="line" smooth="yes"/>
      <point x="370" y="49"/>
      <point x="314" y="14"/>
      <point x="238" y="14" type="curve" smooth="yes"/>
      <point x="148" y="14"/>
      <point x="86" y="71"/>
      <point x="86" y="143" type="curve" smooth="yes"/>
      <point x="86" y="211"/>
      <point x="119" y="265"/>
      <point x="273" y="329" type="curve" smooth="yes"/>
      <point x="330" y="352"/>
      <point x="358" y="386"/>
      <point x="358" y="429" type="curve" smooth="yes"/>
      <point x="358" y="478"/>
      <point x="316" y="514"/>
      <point x="263" y="514" type="curve" smooth="yes"/>
      <point x="210" y="514"/>
      <point x="171" y="479"/>
      <point x="171" y="425" type="curve" smooth="yes"/>
      <point x="171" y="373"/>
      <point x="210" y="335"/>
      <point x="266" y="286" type="curve" smooth="yes"/>
      <point x="547" y="41" type="line" smooth="yes"/>
      <point x="551" y="37"/>
      <point x="552" y="30"/>
      <point x="548" y="26" type="curve" smooth="yes"/>
      <point x="544" y="22"/>
      <point x="537" y="21"/>
      <point x="533" y="25" type="curve" smooth="yes"/>
      <point x="252" y="270" type="line" smooth="yes"/>
      <point x="190" y="325"/>
      <point x="149" y="369"/>
      <point x="149" y="425" type="curve" smooth="yes"/>
      <point x="149" y="491"/>
      <point x="198" y="536"/>
      <point x="263" y="536" type="curve" smooth="yes"/>
      <point x="330" y="536"/>
      <point x="380" y="488"/>
      <point x="380" y="429" type="curve" smooth="yes"/>
      <point x="380" y="378"/>
      <point x="350" y="338"/>
      <point x="281" y="309" type="curve" smooth="yes"/>
      <point x="143" y="253"/>
      <point x="108" y="205"/>
      <point x="108" y="143" type="curve" smooth="yes"/>
      <point x="108" y="81"/>
      <point x="162" y="36"/>
      <point x="238" y="36" type="curve" smooth="yes"/>
      <point x="308" y="36"/>
      <point x="360" y="71"/>
      <point x="430" y="171" type="curve" smooth="yes"/>
      <point x="516" y="293" type="line" smooth="yes"/>
      <point x="520" y="298"/>
      <point x="526" y="299"/>
      <point x="531" y="296" type="curve" smooth="yes"/>
      <point x="536" y="292"/>
      <point x="537" y="286"/>
    </contour>
  </outline>
</glyph>
<glyph name="quotesingle" format="1">
  <advance width="255"/>
  <unicode hex="0027"/>
  <outline>
    <contour>
      <point x="134" y="590" type="curve" smooth="yes"/>
      <point x="138" y="578"/>
      <point x="141" y="558"/>
      <point x="141" y="538" type="curve" smooth="yes"/>
      <point x="141" y="490"/>
      <point x="124" y="441"/>
      <point x="96" y="405" type="curve" smooth="yes"/>
      <point x="93" y="400"/>
      <point x="86" y="399"/>
      <point x="82" y="403" type="curve" smooth="yes"/>
      <point x="77" y="406"/>
      <point x="76" y="413"/>
      <point x="80" y="417" type="curve" smooth="yes"/>
      <point x="104" y="451"/>
      <point x="119" y="494"/>
      <point x="119" y="538" type="curve" smooth="yes"/>
      <point x="119" y="556"/>
      <point x="118" y="572"/>
      <point x="114" y="584" type="curve" smooth="yes"/>
      <point x="112" y="589"/>
      <point x="115" y="595"/>
      <point x="121" y="597" type="curve" smooth="yes"/>
      <point x="126" y="599"/>
      <point x="132" y="596"/>
    </contour>
  </outline>
</glyph>
<glyph name="parenleft" format="1">
  <advance width="325"/>
  <unicode hex="0028"/>
  <outline>
    <contour>
      <point x="246" y="606" type="curve" smooth="yes"/>
      <point x="172" y="525"/>
      <point x="113" y="400"/>
      <point x="113" y="269" type="curve" smooth="yes"/>
      <point x="113" y="140"/>
      <point x="168" y="22"/>
      <point x="246" y="-59" type="curve" smooth="yes"/>
      <point x="250" y="-63"/>
      <point x="249" y="-70"/>
      <point x="245" y="-74" type="curve" smooth="yes"/>
      <point x="241" y="-78"/>
      <point x="234" y="-77"/>
      <point x="230" y="-73" type="curve" smooth="yes"/>
      <point x="150" y="10"/>
      <point x="91" y="134"/>
      <point x="91" y="269" type="curve" smooth="yes"/>
      <point x="91" y="406"/>
      <point x="154" y="535"/>
      <point x="230" y="620" type="curve" smooth="yes"/>
      <point x="234" y="624"/>
      <point x="241" y="625"/>
      <point x="245" y="621" type="curve" smooth="yes"/>
      <point x="249" y="617"/>
      <point x="250" y="610"/>
    </contour>
  </outline>
</glyph>
<glyph name="asterisk" format="1">
  <advance width="423"/>
  <unicode hex="002A"/>
  <outline>
    <contour>
      <point x="221" y="517" type="curve" smooth="yes"/>
      <point x="221" y="291" type="line" smooth="yes"/>
      <point x="221" y="285"/>
      <point x="216" y="280"/>
      <point x="210" y="280" type="curve" smooth="yes"/>
      <point x="204" y="280"/>
      <point x="199" y="285"/>
      <point x="199" y="291" type="curve" smooth="yes"/>
      <point x="199" y="517" type="line" smooth="yes"/>
      <point x="199" y="523"/>
      <point x="204" y="528"/>
      <point x="210" y="528" type="curve" smooth="yes"/>
      <point x="216" y="528"/>
      <point x="221" y="523"/>
    </contour>
    <contour>
      <point x="109" y="473" type="curve" smooth="yes"/>
      <point x="322" y="349" type="line" smooth="yes"/>
      <point x="327" y="346"/>
      <point x="329" y="340"/>
      <point x="326" y="335" type="curve" smooth="yes"/>
      <point x="323" y="330"/>
      <point x="317" y="328"/>
      <point x="312" y="331" type="curve" smooth="yes"/>
      <point x="99" y="455" type="line" smooth="yes"/>
      <point x="94" y="458"/>
      <point x="92" y="464"/>
      <point x="95" y="469" type="curve" smooth="yes"/>
      <point x="98" y="474"/>
      <point x="104" y="476"/>
    </contour>
    <contour>
      <point x="99" y="349" type="curve" smooth="yes"/>
      <point x="312" y="473" type="line" smooth="yes"/>
      <point x="317" y="476"/>
      <point x="323" y="474"/>
      <point x="326" y="469" type="curve" smooth="yes"/>
      <point x="329" y="464"/>
      <point x="327" y="458"/>
      <point x="322" y="455" type="curve" smooth="yes"/>
      <point x="109" y="331" type="line" smooth="yes"/>
      <point x="104" y="328"/>
      <point x="98" y="330"/>
      <point x="95" y="335" type="curve" smooth="yes"/>
      <point x="92" y="340"/>
      <point x="94" y="346"/>
    </contour>
  </outline>
</glyph>
<glyph name="comma" format="1">
  <advance width="240"/>
  <unicode hex="002C"/>
  <outline>
    <contour>
      <point x="125" y="90" type="curve" smooth="yes"/>
      <point x="129" y="78"/>
      <point x="132" y="58"/>
      <point x="132" y="38" type="curve" smooth="yes"/>
      <point x="132" y="-10"/>
      <point x="115" y="-59"/>
      <point x="87" y="-95" type="curve" smooth="yes"/>
      <point x="84" y="-100"/>
      <point x="77" y="-101"/>
      <point x="73" y="-97" type="curve" smooth="yes"/>
      <point x="68" y="-94"/>
      <point x="67" y="-87"/>
      <point x="71" y="-83" type="curve" smooth="yes"/>
      <point x="95" y="-49"/>
      <point x="110" y="-6"/>
      <point x="110" y="38" type="curve" smooth="yes"/>
      <point x="110" y="56"/>
      <point x="109" y="72"/>
      <point x="105" y="84" type="curve" smooth="yes"/>
      <point x="103" y="89"/>
      <point x="106" y="95"/>
      <point x="112" y="97" type="curve" smooth="yes"/>
      <point x="117" y="99"/>
      <point x="123" y="96"/>
    </contour>
  </outline>
</glyph>
<glyph name="hyphen" format="1">
  <advance width="430"/>
  <unicode hex="002D"/>
  <outline>
    <contour>
      <point x="114" y="239" type="curve" smooth="yes"/>
      <point x="316" y="239" type="line" smooth="yes"/>
      <point x="322" y="239"/>
      <point x="327" y="234"/>
      <point x="327" y="228" type="curve" smooth="yes"/>
      <point x="327" y="222"/>
      <point x="322" y="217"/>
      <point x="316" y="217" type="curve" smooth="yes"/>
      <point x="114" y="217" type="line" smooth="yes"/>
      <point x="108" y="217"/>
      <point x="103" y="222"/>
      <point x="103" y="228" type="curve" smooth="yes"/>
      <point x="103" y="234"/>
      <point x="108" y="239"/>
    </contour>
  </outline>
</glyph>
<glyph name="period" format="1">
  <advance width="235"/>
  <unicode hex="002E"/>
  <outline>
    <contour>
      <point x="119" y="97" type="curve" smooth="yes"/>
      <point x="138" y="97"/>
      <point x="150" y="78"/>
      <point x="150" y="57" type="curve" smooth="yes"/>
      <point x="150" y="31"/>
      <point x="138" y="17"/>
      <point x="119" y="17" type="curve" smooth="yes"/>
      <point x="103" y="17"/>
      <point x="87" y="31"/>
      <point x="87" y="57" type="curve" smooth="yes"/>
      <point x="87" y="78"/>
      <point x="103" y="97"/>
    </contour>
    <contour>
      <point x="119" y="75" type="curve" smooth="yes"/>
      <point x="111" y="75"/>
      <point x="109" y="64"/>
      <point x="109" y="57" type="curve" smooth="yes"/>
      <point x="109" y="49"/>
      <point x="111" y="39"/>
      <point x="119" y="39" type="curve" smooth="yes"/>
      <point x="128" y="39"/>
      <point x="128" y="49"/>
      <point x="128" y="57" type="curve" smooth="yes"/>
      <point x="128" y="64"/>
      <point x="128" y="75"/>
    </contour>
  </outline>
</glyph>
<glyph name="slash" format="1">
  <advance width="325"/>
  <unicode hex="002F"/>
  <outline>
    <contour>
      <point x="291" y="609" type="curve" smooth="yes"/>
      <point x="42" y="-71" type="line" smooth="yes"/>
      <point x="40" y="-76"/>
      <point x="34" y="-79"/>
      <point x="28" y="-77" type="curve" smooth="yes"/>
      <point x="23" y="-75"/>
      <point x="20" y="-69"/>
      <point x="22" y="-63" type="curve" smooth="yes"/>
      <point x="271" y="617" type="line" smooth="yes"/>
      <point x="273" y="622"/>
      <point x="279" y="625"/>
      <point x="285" y="623" type="curve" smooth="yes"/>
      <point x="290" y="621"/>
      <point x="293" y="615"/>
    </contour>
  </outline>
</glyph>
<glyph name="zero" format="1">
  <advance width="576"/>
  <unicode hex="0030"/>
  <outline>
    <contour>
      <point x="289" y="536" type="curve" smooth="yes"/>
      <point x="403" y="536"/>
      <point x="497" y="429"/>
      <point x="497" y="276" type="curve" smooth="yes"/>
      <point x="497" y="132"/>
      <point x="420" y="15"/>
      <point x="289" y="15" type="curve" smooth="yes"/>
      <point x="168" y="15"/>
      <point x="78" y="132"/>
      <point x="78" y="274" type="curve" smooth="yes"/>
      <point x="78" y="429"/>
      <point x="166" y="536"/>
    </contour>
    <contour>
      <point x="289" y="514" type="curve" smooth="yes"/>
      <point x="176" y="514"/>
      <point x="100" y="413"/>
      <point x="100" y="274" type="curve" smooth="yes"/>
      <point x="100" y="146"/>
      <point x="178" y="37"/>
      <point x="289" y="37" type="curve" smooth="yes"/>
      <point x="410" y="37"/>
      <point x="475" y="146"/>
      <point x="475" y="276" type="curve" smooth="yes"/>
      <point x="475" y="413"/>
      <point x="393" y="514"/>
    </contour>
  </outline>
</glyph>
<glyph name="one" format="1">
  <advance width="330"/>
  <unicode hex="0031"/>
  <outline>
    <contour>
      <point x="213" y="506" type="curve" smooth="yes"/>
      <point x="213" y="33" type="line" smooth="yes"/>
      <point x="213" y="27"/>
      <point x="208" y="22"/>
      <point x="202" y="22" type="curve" smooth="yes"/>
      <point x="196" y="22"/>
      <point x="191" y="27"/>
      <point x="191" y="33" type="curve" smooth="yes"/>
      <point x="191" y="506" type="line" smooth="yes"/>
      <point x="191" y="512"/>
      <point x="196" y="517"/>
      <point x="202" y="517" type="curve" smooth="yes"/>
      <point x="208" y="517"/>
      <point x="213" y="512"/>
    </contour>
    <contour>
      <point x="207" y="504" type="curve" smooth="yes"/>
      <point x="77" y="438" type="line" smooth="yes"/>
      <point x="72" y="435"/>
      <point x="65" y="437"/>
      <point x="63" y="442" type="curve" smooth="yes"/>
      <point x="60" y="447"/>
      <point x="62" y="454"/>
      <point x="67" y="456" type="curve" smooth="yes"/>
      <point x="197" y="522" type="line" smooth="yes"/>
      <point x="202" y="525"/>
      <point x="209" y="523"/>
      <point x="211" y="518" type="curve" smooth="yes"/>
      <point x="214" y="513"/>
      <point x="212" y="506"/>
    </contour>
  </outline>
</glyph>
<glyph name="two" format="1">
  <advance width="518"/>
  <unicode hex="0032"/>
  <outline>
    <contour>
      <point x="84" y="50" type="curve" smooth="yes"/>
      <point x="250" y="209" type="line" smooth="yes"/>
      <point x="355" y="309"/>
      <point x="389" y="350"/>
      <point x="389" y="410" type="curve" smooth="yes"/>
      <point x="389" y="464"/>
      <point x="346" y="513"/>
      <point x="263" y="513" type="curve" smooth="yes"/>
      <point x="213" y="513"/>
      <point x="163" y="499"/>
      <point x="118" y="471" type="curve" smooth="yes"/>
      <point x="113" y="468"/>
      <point x="106" y="470"/>
      <point x="103" y="474" type="curve" smooth="yes"/>
      <point x="100" y="479"/>
      <point x="102" y="486"/>
      <point x="106" y="489" type="curve" smooth="yes"/>
      <point x="155" y="519"/>
      <point x="209" y="535"/>
      <point x="263" y="535" type="curve" smooth="yes"/>
      <point x="364" y="535"/>
      <point x="411" y="472"/>
      <point x="411" y="410" type="curve" smooth="yes"/>
      <point x="411" y="346"/>
      <point x="377" y="301"/>
      <point x="264" y="193" type="curve" smooth="yes"/>
      <point x="98" y="34" type="line" smooth="yes"/>
      <point x="94" y="30"/>
      <point x="87" y="31"/>
      <point x="83" y="35" type="curve" smooth="yes"/>
      <point x="79" y="39"/>
      <point x="80" y="46"/>
    </contour>
    <contour>
      <point x="433" y="22" type="curve" smooth="yes"/>
      <point x="81" y="22" type="line" smooth="yes"/>
      <point x="75" y="22"/>
      <point x="70" y="27"/>
      <point x="70" y="33" type="curve" smooth="yes"/>
      <point x="70" y="39"/>
      <point x="75" y="44"/>
      <point x="81" y="44" type="curve" smooth="yes"/>
      <point x="433" y="44" type="line" smooth="yes"/>
      <point x="439" y="44"/>
      <point x="444" y="39"/>
      <point x="444" y="33" type="curve" smooth="yes"/>
      <point x="444" y="27"/>
      <point x="439" y="22"/>
    </contour>
  </outline>
</glyph>
<glyph name="three" format="1">
  <advance width="522"/>
  <unicode hex="0033"/>
  <outline>
    <contour>
      <point x="120" y="529" type="curve" smooth="yes"/>
      <point x="417" y="529" type="line" smooth="yes"/>
      <point x="423" y="529"/>
      <point x="428" y="524"/>
      <point x="428" y="518" type="curve" smooth="yes"/>
      <point x="428" y="512"/>
      <point x="423" y="507"/>
      <point x="417" y="507" type="curve" smooth="yes"/>
      <point x="120" y="507" type="line" smooth="yes"/>
      <point x="114" y="507"/>
      <point x="109" y="512"/>
      <point x="109" y="518" type="curve" smooth="yes"/>
      <point x="109" y="524"/>
      <point x="114" y="529"/>
    </contour>
    <contour>
      <point x="107" y="70" type="curve" smooth="yes"/>
      <point x="148" y="52"/>
      <point x="200" y="40"/>
      <point x="260" y="40" type="curve" smooth="yes"/>
      <point x="367" y="40"/>
      <point x="421" y="92"/>
      <point x="421" y="165" type="curve" smooth="yes"/>
      <point x="421" y="237"/>
      <point x="364" y="284"/>
      <point x="271" y="284" type="curve" smooth="yes"/>
      <point x="225" y="284"/>
      <point x="189" y="277"/>
      <point x="167" y="270" type="curve" smooth="yes"/>
      <point x="162" y="268"/>
      <point x="156" y="271"/>
      <point x="154" y="277" type="curve" smooth="yes"/>
      <point x="152" y="282"/>
      <point x="155" y="288"/>
      <point x="161" y="290" type="curve" smooth="yes"/>
      <point x="183" y="297"/>
      <point x="223" y="306"/>
      <point x="271" y="306" type="curve" smooth="yes"/>
      <point x="380" y="306"/>
      <point x="443" y="247"/>
      <point x="443" y="165" type="curve" smooth="yes"/>
      <point x="443" y="82"/>
      <point x="385" y="18"/>
      <point x="260" y="18" type="curve" smooth="yes"/>
      <point x="196" y="18"/>
      <point x="142" y="32"/>
      <point x="99" y="50" type="curve" smooth="yes"/>
      <point x="94" y="53"/>
      <point x="91" y="59"/>
      <point x="93" y="64" type="curve" smooth="yes"/>
      <point x="96" y="69"/>
      <point x="102" y="72"/>
    </contour>
    <contour>
      <point x="415" y="502" type="curve" smooth="yes"/>
      <point x="176" y="276" type="line" smooth="yes"/>
      <point x="172" y="272"/>
      <point x="165" y="273"/>
      <point x="161" y="277" type="curve" smooth="yes"/>
      <point x="157" y="281"/>
      <point x="158" y="288"/>
      <point x="162" y="292" type="curve" smooth="yes"/>
      <point x="401" y="518" type="line" smooth="yes"/>
      <point x="405" y="522"/>
      <point x="412" y="521"/>
      <point x="416" y="517" type="curve" smooth="yes"/>
      <point x="420" y="513"/>
      <point x="419" y="506"/>
    </contour>
  </outline>
</glyph>
<glyph name="four" format="1">
  <advance width="541"/>
  <unicode hex="0034"/>
  <outline>
    <contour>
      <point x="383" y="528" type="curve" smooth="yes"/>
      <point x="383" y="33" type="line" smooth="yes"/>
      <point x="383" y="27"/>
      <point x="378" y="22"/>
      <point x="372" y="22" type="curve" smooth="yes"/>
      <point x="366" y="22"/>
      <point x="361" y="27"/>
      <point x="361" y="33" type="curve" smooth="yes"/>
      <point x="361" y="528" type="line" smooth="yes"/>
      <point x="361" y="534"/>
      <point x="366" y="539"/>
      <point x="372" y="539" type="curve" smooth="yes"/>
      <point x="378" y="539"/>
      <point x="383" y="534"/>
    </contour>
    <contour>
      <point x="373" y="512" type="curve" smooth="yes"/>
      <point x="74" y="150" type="line" smooth="yes"/>
      <point x="70" y="146"/>
      <point x="64" y="145"/>
      <point x="59" y="149" type="curve" smooth="yes"/>
      <point x="55" y="153"/>
      <point x="54" y="159"/>
      <point x="58" y="164" type="curve" smooth="yes"/>
      <point x="357" y="526" type="line" smooth="yes"/>
      <point x="361" y="530"/>
      <point x="367" y="531"/>
      <point x="372" y="527" type="curve" smooth="yes"/>
      <point x="376" y="523"/>
      <point x="377" y="517"/>
    </contour>
    <contour>
      <point x="76" y="168" type="curve" smooth="yes"/>
      <point x="480" y="168" type="line" smooth="yes"/>
      <point x="486" y="168"/>
      <point x="491" y="163"/>
      <point x="491" y="157" type="curve" smooth="yes"/>
      <point x="491" y="151"/>
      <point x="486" y="146"/>
      <point x="480" y="146" type="curve" smooth="yes"/>
      <point x="76" y="146" type="line" smooth="yes"/>
      <point x="70" y="146"/>
      <point x="65" y="151"/>
      <point x="65" y="157" type="curve" smooth="yes"/>
      <point x="65" y="163"/>
      <point x="70" y="168"/>
    </contour>
  </outline>
</glyph>
<glyph name="five" format="1">
  <advance width="531"/>
  <unicode hex="0035"/>
  <outline>
    <contour>
      <point x="149" y="529" type="curve" smooth="yes"/>
      <point x="406" y="529" type="line" smooth="yes"/>
      <point x="412" y="529"/>
      <point x="417" y="524"/>
      <point x="417" y="518" type="curve" smooth="yes"/>
      <point x="417" y="512"/>
      <point x="412" y="507"/>
      <point x="406" y="507" type="curve" smooth="yes"/>
      <point x="149" y="507" type="line" smooth="yes"/>
      <point x="143" y="507"/>
      <point x="138" y="512"/>
      <point x="138" y="518" type="curve" smooth="yes"/>
      <point x="138" y="524"/>
      <point x="143" y="529"/>
    </contour>
    <contour>
      <point x="105" y="74" type="curve" smooth="yes"/>
      <point x="147" y="54"/>
      <point x="207" y="40"/>
      <point x="271" y="40" type="curve" smooth="yes"/>
      <point x="377" y="40"/>
      <point x="426" y="99"/>
      <point x="426" y="177" type="curve" smooth="yes"/>
      <point x="426" y="250"/>
      <point x="368" y="302"/>
      <point x="275" y="302" type="curve" smooth="yes"/>
      <point x="211" y="302"/>
      <point x="164" y="286"/>
      <point x="133" y="271" type="curve" smooth="yes"/>
      <point x="128" y="269"/>
      <point x="122" y="271"/>
      <point x="119" y="277" type="curve" smooth="yes"/>
      <point x="117" y="282"/>
      <point x="119" y="288"/>
      <point x="125" y="291" type="curve" smooth="yes"/>
      <point x="158" y="306"/>
      <point x="207" y="324"/>
      <point x="275" y="324" type="curve" smooth="yes"/>
      <point x="384" y="324"/>
      <point x="448" y="260"/>
      <point x="448" y="177" type="curve" smooth="yes"/>
      <point x="448" y="89"/>
      <point x="393" y="18"/>
      <point x="271" y="18" type="curve" smooth="yes"/>
      <point x="203" y="18"/>
      <point x="141" y="34"/>
      <point x="97" y="54" type="curve" smooth="yes"/>
      <point x="91" y="57"/>
      <point x="89" y="63"/>
      <point x="91" y="68" type="curve" smooth="yes"/>
      <point x="94" y="74"/>
      <point x="100" y="76"/>
    </contour>
    <contour>
      <point x="158" y="510" type="curve" smooth="yes"/>
      <point x="139" y="285" type="line" smooth="yes"/>
      <point x="139" y="279"/>
      <point x="134" y="275"/>
      <point x="128" y="276" type="curve" smooth="yes"/>
      <point x="122" y="276"/>
      <point x="118" y="281"/>
      <point x="119" y="287" type="curve" smooth="yes"/>
      <point x="138" y="512" type="line" smooth="yes"/>
      <point x="138" y="518"/>
      <point x="143" y="522"/>
      <point x="149" y="521" type="curve" smooth="yes"/>
      <point x="155" y="521"/>
      <point x="159" y="516"/>
    </contour>
  </outline>
</glyph>
<glyph name="six" format="1">
  <advance width="549"/>
  <unicode hex="0036"/>
  <outline>
    <contour>
      <point x="390" y="498" type="curve" smooth="yes"/>
      <point x="364" y="507"/>
      <point x="343" y="511"/>
      <point x="311" y="511" type="curve" smooth="yes"/>
      <point x="185" y="511"/>
      <point x="111" y="415"/>
      <point x="111" y="257" type="curve" smooth="yes"/>
      <point x="111" y="112"/>
      <point x="183" y="40"/>
      <point x="290" y="40" type="curve" smooth="yes"/>
      <point x="401" y="40"/>
      <point x="446" y="112"/>
      <point x="446" y="181" type="curve" smooth="yes"/>
      <point x="446" y="257"/>
      <point x="390" y="308"/>
      <point x="310" y="308" type="curve" smooth="yes"/>
      <point x="224" y="308"/>
      <point x="155" y="250"/>
      <point x="126" y="147" type="curve" smooth="yes"/>
      <point x="125" y="142"/>
      <point x="119" y="138"/>
      <point x="113" y="140" type="curve" smooth="yes"/>
      <point x="108" y="141"/>
      <point x="104" y="147"/>
      <point x="106" y="153" type="curve" smooth="yes"/>
      <point x="137" y="266"/>
      <point x="216" y="330"/>
      <point x="310" y="330" type="curve" smooth="yes"/>
      <point x="404" y="330"/>
      <point x="468" y="269"/>
      <point x="468" y="181" type="curve" smooth="yes"/>
      <point x="468" y="102"/>
      <point x="417" y="18"/>
      <point x="290" y="18" type="curve" smooth="yes"/>
      <point x="173" y="18"/>
      <point x="89" y="96"/>
      <point x="89" y="257" type="curve" smooth="yes"/>
      <point x="89" y="431"/>
      <point x="175" y="533"/>
      <point x="311" y="533" type="curve" smooth="yes"/>
      <point x="345" y="533"/>
      <point x="368" y="527"/>
      <point x="396" y="518" type="curve" smooth="yes"/>
      <point x="402" y="516"/>
      <point x="405" y="510"/>
      <point x="403" y="505" type="curve" smooth="yes"/>
      <point x="401" y="499"/>
      <point x="395" y="496"/>
    </contour>
  </outline>
</glyph>
<glyph name="seven" format="1">
  <advance width="476"/>
  <unicode hex="0037"/>
  <outline>
    <contour>
      <point x="425" y="512" type="curve" smooth="yes"/>
      <point x="387" y="441"/>
      <point x="284" y="302"/>
      <point x="255" y="251" type="curve" smooth="yes"/>
      <point x="229" y="203"/>
      <point x="208" y="145"/>
      <point x="208" y="88" type="curve" smooth="yes"/>
      <point x="208" y="33" type="line" smooth="yes"/>
      <point x="208" y="27"/>
      <point x="203" y="22"/>
      <point x="197" y="22" type="curve" smooth="yes"/>
      <point x="191" y="22"/>
      <point x="186" y="27"/>
      <point x="186" y="33" type="curve" smooth="yes"/>
      <point x="186" y="88" type="line" smooth="yes"/>
      <point x="186" y="149"/>
      <point x="209" y="211"/>
      <point x="237" y="261" type="curve" smooth="yes"/>
      <point x="266" y="312"/>
      <point x="369" y="451"/>
      <point x="407" y="522" type="curve" smooth="yes"/>
      <point x="409" y="527"/>
      <point x="416" y="529"/>
      <point x="421" y="526" type="curve" smooth="yes"/>
      <point x="426" y="524"/>
      <point x="428" y="517"/>
    </contour>
    <contour>
      <point x="409" y="507" type="curve" smooth="yes"/>
      <point x="66" y="507" type="line" smooth="yes"/>
      <point x="60" y="507"/>
      <point x="55" y="512"/>
      <point x="55" y="518" type="curve" smooth="yes"/>
      <point x="55" y="524"/>
      <point x="60" y="529"/>
      <point x="66" y="529" type="curve" smooth="yes"/>
      <point x="409" y="529" type="line" smooth="yes"/>
      <point x="415" y="529"/>
      <point x="420" y="524"/>
      <point x="420" y="518" type="curve" smooth="yes"/>
      <point x="420" y="512"/>
      <point x="415" y="507"/>
    </contour>
  </outline>
</glyph>
<glyph name="eight" format="1">
  <advance width="568"/>
  <unicode hex="0038"/>
  <outline>
    <contour>
      <point x="285" y="306" type="curve" smooth="yes"/>
      <point x="405" y="306"/>
      <point x="479" y="246"/>
      <point x="479" y="160" type="curve" smooth="yes"/>
      <point x="479" y="82"/>
      <point x="427" y="14"/>
      <point x="285" y="14" type="curve" smooth="yes"/>
      <point x="151" y="14"/>
      <point x="89" y="82"/>
      <point x="89" y="159" type="curve" smooth="yes"/>
      <point x="89" y="246"/>
      <point x="158" y="306"/>
    </contour>
    <contour>
      <point x="285" y="536" type="curve" smooth="yes"/>
      <point x="390" y="536"/>
      <point x="453" y="486"/>
      <point x="453" y="412" type="curve" smooth="yes"/>
      <point x="453" y="343"/>
      <point x="399" y="284"/>
      <point x="285" y="284" type="curve" smooth="yes"/>
      <point x="165" y="284"/>
      <point x="115" y="343"/>
      <point x="115" y="412" type="curve" smooth="yes"/>
      <point x="115" y="486"/>
      <point x="175" y="536"/>
    </contour>
    <contour>
      <point x="285" y="284" type="curve" smooth="yes"/>
      <point x="176" y="284"/>
      <point x="111" y="236"/>
      <point x="111" y="159" type="curve" smooth="yes"/>
      <point x="111" y="90"/>
      <point x="171" y="36"/>
      <point x="285" y="36" type="curve" smooth="yes"/>
      <point x="407" y="36"/>
      <point x="457" y="90"/>
      <point x="457" y="160" type="curve" smooth="yes"/>
      <point x="457" y="236"/>
      <point x="387" y="284"/>
    </contour>
    <contour>
      <point x="285" y="514" type="curve" smooth="yes"/>
      <point x="193" y="514"/>
      <point x="137" y="476"/>
      <point x="137" y="412" type="curve" smooth="yes"/>
      <point x="137" y="351"/>
      <point x="185" y="306"/>
      <point x="285" y="306" type="curve" smooth="yes"/>
      <point x="381" y="306"/>
      <point x="431" y="351"/>
      <point x="431" y="412" type="curve" smooth="yes"/>
      <point x="431" y="476"/>
      <point x="372" y="514"/>
    </contour>
  </outline>
</glyph>
<glyph name="nine" format="1">
  <advance width="546"/>
  <unicode hex="0039"/>
  <outline>
    <contour>
      <point x="159" y="53" type="curve" smooth="yes"/>
      <point x="184" y="46"/>
      <point x="206" y="41"/>
      <point x="238" y="41" type="curve" smooth="yes"/>
      <point x="371" y="41"/>
      <point x="435" y="128"/>
      <point x="435" y="278" type="curve" smooth="yes"/>
      <point x="435" y="427"/>
      <point x="365" y="511"/>
      <point x="256" y="511" type="curve" smooth="yes"/>
      <point x="153" y="511"/>
      <point x="103" y="441"/>
      <point x="103" y="372" type="curve" smooth="yes"/>
      <point x="103" y="285"/>
      <point x="155" y="237"/>
      <point x="247" y="237" type="curve" smooth="yes"/>
      <point x="335" y="237"/>
      <point x="391" y="289"/>
      <point x="434" y="359" type="curve" smooth="yes"/>
      <point x="437" y="363"/>
      <point x="444" y="365"/>
      <point x="449" y="362" type="curve" smooth="yes"/>
      <point x="453" y="359"/>
      <point x="455" y="352"/>
      <point x="452" y="347" type="curve" smooth="yes"/>
      <point x="405" y="271"/>
      <point x="343" y="215"/>
      <point x="247" y="215" type="curve" smooth="yes"/>
      <point x="141" y="215"/>
      <point x="81" y="273"/>
      <point x="81" y="372" type="curve" smooth="yes"/>
      <point x="81" y="451"/>
      <point x="137" y="533"/>
      <point x="256" y="533" type="curve" smooth="yes"/>
      <point x="375" y="533"/>
      <point x="457" y="445"/>
      <point x="457" y="278" type="curve" smooth="yes"/>
      <point x="457" y="112"/>
      <point x="383" y="19"/>
      <point x="238" y="19" type="curve" smooth="yes"/>
      <point x="204" y="19"/>
      <point x="180" y="26"/>
      <point x="153" y="33" type="curve" smooth="yes"/>
      <point x="148" y="34"/>
      <point x="144" y="40"/>
      <point x="146" y="46" type="curve" smooth="yes"/>
      <point x="147" y="51"/>
      <point x="153" y="55"/>
    </contour>
  </outline>
</glyph>
<glyph name="less" format="1">
  <advance width="491"/>
  <unicode hex="003C"/>
  <outline>
    <contour>
      <point x="95" y="273" type="curve" smooth="yes"/>
      <point x="377" y="401" type="line" smooth="yes"/>
      <point x="382" y="403"/>
      <point x="388" y="401"/>
      <point x="391" y="395" type="curve" smooth="yes"/>
      <point x="393" y="390"/>
      <point x="391" y="384"/>
      <point x="385" y="381" type="curve" smooth="yes"/>
      <point x="103" y="253" type="line" smooth="yes"/>
      <point x="98" y="251"/>
      <point x="92" y="253"/>
      <point x="89" y="259" type="curve" smooth="yes"/>
      <point x="87" y="264"/>
      <point x="89" y="270"/>
    </contour>
    <contour>
      <point x="382" y="117" type="curve" smooth="yes"/>
      <point x="90" y="250" type="line" smooth="yes"/>
      <point x="84" y="253"/>
      <point x="82" y="259"/>
      <point x="84" y="264" type="curve" smooth="yes"/>
      <point x="87" y="270"/>
      <point x="93" y="272"/>
      <point x="98" y="270" type="curve" smooth="yes"/>
      <point x="390" y="137" type="line" smooth="yes"/>
      <point x="396" y="134"/>
      <point x="398" y="128"/>
      <point x="396" y="123" type="curve" smooth="yes"/>
      <point x="393" y="117"/>
      <point x="387" y="115"/>
    </contour>
  </outline>
</glyph>
<glyph name="equal" format="1">
  <advance width="491"/>
  <unicode hex="003D"/>
  <outline>
    <contour>
      <point x="92" y="360" type="curve" smooth="yes"/>
      <point x="398" y="360" type="line" smooth="yes"/>
      <point x="404" y="360"/>
      <point x="409" y="355"/>
      <point x="409" y="349" type="curve" smooth="yes"/>
      <point x="409" y="343"/>
      <point x="404" y="338"/>
      <point x="398" y="338" type="curve" smooth="yes"/>
      <point x="92" y="338" type="line" smooth="yes"/>
      <point x="86" y="338"/>
      <point x="81" y="343"/>
      <point x="81" y="349" type="curve" smooth="yes"/>
      <point x="81" y="355"/>
      <point x="86" y="360"/>
    </contour>
    <contour>
      <point x="92" y="180" type="curve" smooth="yes"/>
      <point x="398" y="180" type="line" smooth="yes"/>
      <point x="404" y="180"/>
      <point x="409" y="175"/>
      <point x="409" y="169" type="curve" smooth="yes"/>
      <point x="409" y="163"/>
      <point x="404" y="158"/>
      <point x="398" y="158" type="curve" smooth="yes"/>
      <point x="92" y="158" type="line" smooth="yes"/>
      <point x="86" y="158"/>
      <point x="81" y="163"/>
      <point x="81" y="169" type="curve" smooth="yes"/>
      <point x="81" y="175"/>
      <point x="86" y="180"/>
    </contour>
  </outline>
</glyph>
<glyph name="question" format="1">
  <advance width="381"/>
  <unicode hex="003F"/>
  <outline>
    <contour>
      <point x="68" y="524" type="curve" smooth="yes"/>
      <point x="105" y="547"/>
      <point x="140" y="561"/>
      <point x="199" y="561" type="curve" smooth="yes"/>
      <point x="283" y="561"/>
      <point x="333" y="508"/>
      <point x="333" y="449" type="curve" smooth="yes"/>
      <point x="333" y="386"/>
      <point x="300" y="352"/>
      <point x="229" y="313" type="curve" smooth="yes"/>
      <point x="186" y="288"/>
      <point x="176" y="265"/>
      <point x="174" y="227" type="curve" smooth="yes"/>
      <point x="173" y="222"/>
      <point x="168" y="217"/>
      <point x="162" y="217" type="curve" smooth="yes"/>
      <point x="157" y="218"/>
      <point x="152" y="223"/>
      <point x="152" y="229" type="curve" smooth="yes"/>
      <point x="156" y="273"/>
      <point x="168" y="302"/>
      <point x="219" y="331" type="curve" smooth="yes"/>
      <point x="280" y="366"/>
      <point x="311" y="394"/>
      <point x="311" y="449" type="curve" smooth="yes"/>
      <point x="311" y="498"/>
      <point x="267" y="539"/>
      <point x="199" y="539" type="curve" smooth="yes"/>
      <point x="146" y="539"/>
      <point x="113" y="527"/>
      <point x="80" y="506" type="curve" smooth="yes"/>
      <point x="75" y="503"/>
      <point x="68" y="505"/>
      <point x="65" y="509" type="curve" smooth="yes"/>
      <point x="62" y="514"/>
      <point x="64" y="521"/>
    </contour>
    <component base="period" xOffset="50"/>
    <component base="period" xOffset="50"/>
  </outline>
</glyph>
<glyph name="at" format="1">
  <advance width="675"/>
  <unicode hex="0040"/>
  <outline>
    <contour>
      <point x="438" y="390" type="curve" smooth="yes"/>
      <point x="438" y="260" type="line" smooth="yes"/>
      <point x="438" y="207"/>
      <point x="469" y="174"/>
      <point x="509" y="174" type="curve" smooth="yes"/>
      <point x="555" y="174"/>
      <point x="585" y="216"/>
      <point x="585" y="285" type="curve" smooth="yes"/>
      <point x="585" y="406"/>
      <point x="495" y="517"/>
      <point x="341" y="517" type="curve" smooth="yes"/>
      <point x="197" y="517"/>
      <point x="92" y="405"/>
      <point x="92" y="271" type="curve" smooth="yes"/>
      <point x="92" y="137"/>
      <point x="195" y="34"/>
      <point x="344" y="34" type="curve" smooth="yes"/>
      <point x="404" y="34"/>
      <point x="455" y="47"/>
      <point x="493" y="64" type="curve" smooth="yes"/>
      <point x="498" y="66"/>
      <point x="504" y="63"/>
      <point x="507" y="58" type="curve" smooth="yes"/>
      <point x="509" y="53"/>
      <point x="506" y="47"/>
      <point x="501" y="44" type="curve" smooth="yes"/>
      <point x="461" y="27"/>
      <point x="408" y="12"/>
      <point x="344" y="12" type="curve" smooth="yes"/>
      <point x="181" y="12"/>
      <point x="70" y="125"/>
      <point x="70" y="271" type="curve" smooth="yes"/>
      <point x="70" y="417"/>
      <point x="185" y="539"/>
      <point x="341" y="539" type="curve" smooth="yes"/>
      <point x="509" y="539"/>
      <point x="607" y="416"/>
      <point x="607" y="285" type="curve" smooth="yes"/>
      <point x="607" y="198"/>
      <point x="563" y="152"/>
      <point x="509" y="152" type="curve" smooth="yes"/>
      <point x="459" y="152"/>
      <point x="416" y="191"/>
      <point x="416" y="260" type="curve" smooth="yes"/>
      <point x="416" y="390" type="line" smooth="yes"/>
      <point x="416" y="396"/>
      <point x="421" y="401"/>
      <point x="427" y="401" type="curve" smooth="yes"/>
      <point x="433" y="401"/>
      <point x="438" y="396"/>
    </contour>
    <contour>
      <point x="421" y="354" type="curve" smooth="yes"/>
      <point x="397" y="370"/>
      <point x="371" y="379"/>
      <point x="336" y="379" type="curve" smooth="yes"/>
      <point x="281" y="379"/>
      <point x="236" y="337"/>
      <point x="236" y="267" type="curve" smooth="yes"/>
      <point x="236" y="209"/>
      <point x="275" y="175"/>
      <point x="318" y="175" type="curve" smooth="yes"/>
      <point x="355" y="175"/>
      <point x="391" y="196"/>
      <point x="417" y="240" type="curve" smooth="yes"/>
      <point x="420" y="245"/>
      <point x="426" y="247"/>
      <point x="431" y="244" type="curve" smooth="yes"/>
      <point x="436" y="241"/>
      <point x="438" y="235"/>
      <point x="435" y="230" type="curve" smooth="yes"/>
      <point x="405" y="178"/>
      <point x="361" y="153"/>
      <point x="318" y="153" type="curve" smooth="yes"/>
      <point x="265" y="153"/>
      <point x="214" y="195"/>
      <point x="214" y="267" type="curve" smooth="yes"/>
      <point x="214" y="351"/>
      <point x="271" y="401"/>
      <point x="336" y="401" type="curve" smooth="yes"/>
      <point x="375" y="401"/>
      <point x="405" y="390"/>
      <point x="433" y="372" type="curve" smooth="yes"/>
      <point x="438" y="369"/>
      <point x="439" y="362"/>
      <point x="436" y="357" type="curve" smooth="yes"/>
      <point x="433" y="352"/>
      <point x="426" y="351"/>
    </contour>
  </outline>
</glyph>
<glyph name="A" format="1">
  <advance width="568"/>
  <unicode hex="0041"/>
  <outline>
    <contour>
      <point x="285" y="523" type="curve" smooth="yes"/>
      <point x="217" y="370"/>
      <point x="122" y="155"/>
      <point x="77" y="29" type="curve" smooth="yes"/>
      <point x="75" y="24"/>
      <point x="69" y="21"/>
      <point x="63" y="23" type="curve" smooth="yes"/>
      <point x="58" y="25"/>
      <point x="55" y="31"/>
      <point x="57" y="37" type="curve" smooth="yes"/>
      <point x="102" y="163"/>
      <point x="197" y="378"/>
      <point x="265" y="531" type="curve" smooth="yes"/>
      <point x="268" y="536"/>
      <point x="274" y="539"/>
      <point x="279" y="537" type="curve" smooth="yes"/>
      <point x="284" y="534"/>
      <point x="287" y="528"/>
    </contour>
    <contour>
      <point x="291" y="531" type="curve" smooth="yes"/>
      <point x="363" y="377"/>
      <point x="461" y="160"/>
      <point x="509" y="37" type="curve" smooth="yes"/>
      <point x="511" y="32"/>
      <point x="508" y="25"/>
      <point x="503" y="23" type="curve" smooth="yes"/>
      <point x="498" y="21"/>
      <point x="491" y="24"/>
      <point x="489" y="29" type="curve" smooth="yes"/>
      <point x="441" y="152"/>
      <point x="343" y="369"/>
      <point x="271" y="523" type="curve" smooth="yes"/>
      <point x="269" y="528"/>
      <point x="271" y="534"/>
      <point x="277" y="537" type="curve" smooth="yes"/>
      <point x="282" y="539"/>
      <point x="288" y="537"/>
    </contour>
    <contour>
      <point x="136" y="189" type="curve" smooth="yes"/>
      <point x="427" y="189" type="line" smooth="yes"/>
      <point x="433" y="189"/>
      <point x="438" y="184"/>
      <point x="438" y="178" type="curve" smooth="yes"/>
      <point x="438" y="172"/>
      <point x="433" y="167"/>
      <point x="427" y="167" type="curve" smooth="yes"/>
      <point x="136" y="167" type="line" smooth="yes"/>
      <point x="130" y="167"/>
      <point x="125" y="172"/>
      <point x="125" y="178" type="curve" smooth="yes"/>
      <point x="125" y="184"/>
      <point x="130" y="189"/>
    </contour>
  </outline>
</glyph>
<glyph name="B" format="1">
  <advance width="521"/>
  <unicode hex="0042"/>
  <outline>
    <contour>
      <point x="137" y="304" type="curve" smooth="yes"/>
      <point x="276" y="304" type="line" smooth="yes"/>
      <point x="331" y="304"/>
      <point x="381" y="284"/>
      <point x="410" y="254" type="curve" smooth="yes"/>
      <point x="438" y="227"/>
      <point x="451" y="196"/>
      <point x="451" y="160" type="curve" smooth="yes"/>
      <point x="451" y="127"/>
      <point x="439" y="95"/>
      <point x="413" y="70" type="curve" smooth="yes"/>
      <point x="386" y="42"/>
      <point x="344" y="22"/>
      <point x="273" y="22" type="curve" smooth="yes"/>
      <point x="128" y="22" type="line" smooth="yes"/>
      <point x="122" y="22"/>
      <point x="117" y="27"/>
      <point x="117" y="33" type="curve" smooth="yes"/>
      <point x="117" y="518" type="line" smooth="yes"/>
      <point x="117" y="524"/>
      <point x="122" y="529"/>
      <point x="128" y="529" type="curve" smooth="yes"/>
      <point x="257" y="529" type="line" smooth="yes"/>
      <point x="311" y="529"/>
      <point x="347" y="511"/>
      <point x="369" y="488" type="curve" smooth="yes"/>
      <point x="389" y="469"/>
      <point x="403" y="436"/>
      <point x="403" y="407" type="curve" smooth="yes"/>
      <point x="403" y="375"/>
      <point x="389" y="344"/>
      <point x="369" y="325" type="curve" smooth="yes"/>
      <point x="350" y="305"/>
      <point x="313" y="286"/>
      <point x="269" y="282" type="curve" smooth="yes"/>
      <point x="263" y="282"/>
      <point x="258" y="287"/>
      <point x="257" y="292" type="curve" smooth="yes"/>
      <point x="257" y="298"/>
      <point x="262" y="303"/>
      <point x="267" y="304" type="curve" smooth="yes"/>
      <point x="305" y="306"/>
      <point x="338" y="323"/>
      <point x="355" y="339" type="curve" smooth="yes"/>
      <point x="371" y="356"/>
      <point x="381" y="381"/>
      <point x="381" y="407" type="curve" smooth="yes"/>
      <point x="381" y="430"/>
      <point x="371" y="457"/>
      <point x="355" y="474" type="curve" smooth="yes"/>
      <point x="335" y="493"/>
      <point x="303" y="507"/>
      <point x="257" y="507" type="curve" smooth="yes"/>
      <point x="128" y="507" type="line"/>
      <point x="139" y="518" type="line"/>
      <point x="139" y="33" type="line"/>
      <point x="128" y="44" type="line"/>
      <point x="273" y="44" type="line" smooth="yes"/>
      <point x="336" y="44"/>
      <point x="374" y="60"/>
      <point x="399" y="84" type="curve" smooth="yes"/>
      <point x="419" y="105"/>
      <point x="429" y="133"/>
      <point x="429" y="160" type="curve" smooth="yes"/>
      <point x="429" y="190"/>
      <point x="418" y="217"/>
      <point x="396" y="240" type="curve" smooth="yes"/>
      <point x="369" y="266"/>
      <point x="325" y="282"/>
      <point x="276" y="282" type="curve" smooth="yes"/>
      <point x="137" y="282" type="line" smooth="yes"/>
      <point x="131" y="282"/>
      <point x="126" y="287"/>
      <point x="126" y="293" type="curve" smooth="yes"/>
      <point x="126" y="299"/>
      <point x="131" y="304"/>
    </contour>
  </outline>
</glyph>
<glyph name="C" format="1">
  <advance width="563"/>
  <unicode hex="0043"/>
  <outline>
    <contour>
      <point x="465" y="489" type="curve" smooth="yes"/>
      <point x="433" y="506"/>
      <point x="385" y="516"/>
      <point x="334" y="516" type="curve" smooth="yes"/>
      <point x="206" y="516"/>
      <point x="97" y="419"/>
      <point x="97" y="272" type="curve" smooth="yes"/>
      <point x="97" y="138"/>
      <point x="186" y="35"/>
      <point x="340" y="35" type="curve" smooth="yes"/>
      <point x="390" y="35"/>
      <point x="435" y="45"/>
      <point x="470" y="63" type="curve" smooth="yes"/>
      <point x="475" y="66"/>
      <point x="482" y="64"/>
      <point x="484" y="59" type="curve" smooth="yes"/>
      <point x="487" y="54"/>
      <point x="485" y="47"/>
      <point x="480" y="45" type="curve" smooth="yes"/>
      <point x="441" y="25"/>
      <point x="394" y="13"/>
      <point x="340" y="13" type="curve" smooth="yes"/>
      <point x="172" y="13"/>
      <point x="75" y="126"/>
      <point x="75" y="272" type="curve" smooth="yes"/>
      <point x="75" y="431"/>
      <point x="196" y="538"/>
      <point x="334" y="538" type="curve" smooth="yes"/>
      <point x="389" y="538"/>
      <point x="441" y="526"/>
      <point x="475" y="507" type="curve" smooth="yes"/>
      <point x="480" y="505"/>
      <point x="482" y="498"/>
      <point x="479" y="493" type="curve" smooth="yes"/>
      <point x="477" y="488"/>
      <point x="470" y="486"/>
    </contour>
  </outline>
</glyph>
<glyph name="D" format="1">
  <advance width="617"/>
  <unicode hex="0044"/>
  <outline>
    <contour>
      <point x="304" y="22" type="curve" smooth="yes"/>
      <point x="128" y="22" type="line" smooth="yes"/>
      <point x="122" y="22"/>
      <point x="117" y="27"/>
      <point x="117" y="33" type="curve" smooth="yes"/>
      <point x="117" y="518" type="line" smooth="yes"/>
      <point x="117" y="524"/>
      <point x="122" y="529"/>
      <point x="128" y="529" type="curve" smooth="yes"/>
      <point x="304" y="529" type="line" smooth="yes"/>
      <point x="429" y="529"/>
      <point x="542" y="425"/>
      <point x="542" y="276" type="curve" smooth="yes"/>
      <point x="542" y="135"/>
      <point x="448" y="22"/>
    </contour>
    <contour>
      <point x="304" y="44" type="line" smooth="yes"/>
      <point x="436" y="44"/>
      <point x="520" y="147"/>
      <point x="520" y="276" type="curve" smooth="yes"/>
      <point x="520" y="411"/>
      <point x="419" y="507"/>
      <point x="304" y="507" type="curve" smooth="yes"/>
      <point x="128" y="507" type="line"/>
      <point x="139" y="518" type="line"/>
      <point x="139" y="33" type="line"/>
      <point x="128" y="44" type="line"/>
    </contour>
  </outline>
</glyph>
<glyph name="E" format="1">
  <advance width="495"/>
  <unicode hex="0045"/>
  <outline>
    <contour>
      <point x="139" y="518" type="curve" smooth="yes"/>
      <point x="139" y="33" type="line" smooth="yes"/>
      <point x="139" y="27"/>
      <point x="134" y="22"/>
      <point x="128" y="22" type="curve" smooth="yes"/>
      <point x="122" y="22"/>
      <point x="117" y="27"/>
      <point x="117" y="33" type="curve" smooth="yes"/>
      <point x="117" y="518" type="line" smooth="yes"/>
      <point x="117" y="524"/>
      <point x="122" y="529"/>
      <point x="128" y="529" type="curve" smooth="yes"/>
      <point x="134" y="529"/>
      <point x="139" y="524"/>
    </contour>
    <contour>
      <point x="136" y="44" type="curve" smooth="yes"/>
      <point x="407" y="44" type="line" smooth="yes"/>
      <point x="413" y="44"/>
      <point x="418" y="39"/>
      <point x="418" y="33" type="curve" smooth="yes"/>
      <point x="418" y="27"/>
      <point x="413" y="22"/>
      <point x="407" y="22" type="curve" smooth="yes"/>
      <point x="136" y="22" type="line" smooth="yes"/>
      <point x="130" y="22"/>
      <point x="125" y="27"/>
      <point x="125" y="33" type="curve" smooth="yes"/>
      <point x="125" y="39"/>
      <point x="130" y="44"/>
    </contour>
    <contour>
      <point x="136" y="529" type="curve" smooth="yes"/>
      <point x="405" y="529" type="line" smooth="yes"/>
      <point x="411" y="529"/>
      <point x="416" y="524"/>
      <point x="416" y="518" type="curve" smooth="yes"/>
      <point x="416" y="512"/>
      <point x="411" y="507"/>
      <point x="405" y="507" type="curve" smooth="yes"/>
      <point x="136" y="507" type="line" smooth="yes"/>
      <point x="130" y="507"/>
      <point x="125" y="512"/>
      <point x="125" y="518" type="curve" smooth="yes"/>
      <point x="125" y="524"/>
      <point x="130" y="529"/>
    </contour>
    <contour>
      <point x="136" y="305" type="curve" smooth="yes"/>
      <point x="362" y="305" type="line" smooth="yes"/>
      <point x="368" y="305"/>
      <point x="373" y="300"/>
      <point x="373" y="294" type="curve" smooth="yes"/>
      <point x="373" y="288"/>
      <point x="368" y="283"/>
      <point x="362" y="283" type="curve" smooth="yes"/>
      <point x="136" y="283" type="line" smooth="yes"/>
      <point x="130" y="283"/>
      <point x="125" y="288"/>
      <point x="125" y="294" type="curve" smooth="yes"/>
      <point x="125" y="300"/>
      <point x="130" y="305"/>
    </contour>
  </outline>
</glyph>
<glyph name="F" format="1">
  <advance width="485"/>
  <unicode hex="0046"/>
  <outline>
    <contour>
      <point x="139" y="518" type="curve" smooth="yes"/>
      <point x="139" y="33" type="line" smooth="yes"/>
      <point x="139" y="27"/>
      <point x="134" y="22"/>
      <point x="128" y="22" type="curve" smooth="yes"/>
      <point x="122" y="22"/>
      <point x="117" y="27"/>
      <point x="117" y="33" type="curve" smooth="yes"/>
      <point x="117" y="518" type="line" smooth="yes"/>
      <point x="117" y="524"/>
      <point x="122" y="529"/>
      <point x="128" y="529" type="curve" smooth="yes"/>
      <point x="134" y="529"/>
      <point x="139" y="524"/>
    </contour>
    <contour>
      <point x="136" y="529" type="curve" smooth="yes"/>
      <point x="413" y="529" type="line" smooth="yes"/>
      <point x="419" y="529"/>
      <point x="424" y="524"/>
      <point x="424" y="518" type="curve" smooth="yes"/>
      <point x="424" y="512"/>
      <point x="419" y="507"/>
      <point x="413" y="507" type="curve" smooth="yes"/>
      <point x="136" y="507" type="line" smooth="yes"/>
      <point x="130" y="507"/>
      <point x="125" y="512"/>
      <point x="125" y="518" type="curve" smooth="yes"/>
      <point x="125" y="524"/>
      <point x="130" y="529"/>
    </contour>
    <contour>
      <point x="136" y="286" type="curve" smooth="yes"/>
      <point x="362" y="286" type="line" smooth="yes"/>
      <point x="368" y="286"/>
      <point x="373" y="281"/>
      <point x="373" y="275" type="curve" smooth="yes"/>
      <point x="373" y="269"/>
      <point x="368" y="264"/>
      <point x="362" y="264" type="curve" smooth="yes"/>
      <point x="136" y="264" type="line" smooth="yes"/>
      <point x="130" y="264"/>
      <point x="125" y="269"/>
      <point x="125" y="275" type="curve" smooth="yes"/>
      <point x="125" y="281"/>
      <point x="130" y="286"/>
    </contour>
  </outline>
</glyph>
<glyph name="G" format="1">
  <advance width="618"/>
  <unicode hex="0047"/>
  <outline>
    <contour>
      <point x="477" y="490" type="curve" smooth="yes"/>
      <point x="436" y="506"/>
      <point x="390" y="516"/>
      <point x="335" y="516" type="curve" smooth="yes"/>
      <point x="197" y="516"/>
      <point x="97" y="419"/>
      <point x="97" y="272" type="curve" smooth="yes"/>
      <point x="97" y="140"/>
      <point x="183" y="35"/>
      <point x="332" y="35" type="curve" smooth="yes"/>
      <point x="407" y="35"/>
      <point x="461" y="54"/>
      <point x="505" y="82" type="curve" smooth="yes"/>
      <point x="510" y="85"/>
      <point x="517" y="83"/>
      <point x="520" y="79" type="curve" smooth="yes"/>
      <point x="523" y="74"/>
      <point x="521" y="67"/>
      <point x="517" y="64" type="curve" smooth="yes"/>
      <point x="469" y="34"/>
      <point x="411" y="13"/>
      <point x="332" y="13" type="curve" smooth="yes"/>
      <point x="169" y="13"/>
      <point x="75" y="128"/>
      <point x="75" y="272" type="curve" smooth="yes"/>
      <point x="75" y="431"/>
      <point x="185" y="538"/>
      <point x="335" y="538" type="curve" smooth="yes"/>
      <point x="392" y="538"/>
      <point x="442" y="526"/>
      <point x="485" y="510" type="curve" smooth="yes"/>
      <point x="490" y="508"/>
      <point x="493" y="502"/>
      <point x="491" y="496" type="curve" smooth="yes"/>
      <point x="489" y="491"/>
      <point x="483" y="488"/>
    </contour>
    <contour>
      <point x="501" y="83" type="curve" smooth="yes"/>
      <point x="501" y="257" type="line" smooth="yes"/>
      <point x="501" y="263"/>
      <point x="506" y="268"/>
      <point x="512" y="268" type="curve" smooth="yes"/>
      <point x="518" y="268"/>
      <point x="523" y="263"/>
      <point x="523" y="257" type="curve" smooth="yes"/>
      <point x="523" y="83" type="line" smooth="yes"/>
      <point x="523" y="77"/>
      <point x="518" y="72"/>
      <point x="512" y="72" type="curve" smooth="yes"/>
      <point x="506" y="72"/>
      <point x="501" y="77"/>
    </contour>
    <contour>
      <point x="501" y="246" type="curve" smooth="yes"/>
      <point x="348" y="246" type="line" smooth="yes"/>
      <point x="342" y="246"/>
      <point x="337" y="251"/>
      <point x="337" y="257" type="curve" smooth="yes"/>
      <point x="337" y="263"/>
      <point x="342" y="268"/>
      <point x="348" y="268" type="curve" smooth="yes"/>
      <point x="501" y="268" type="line" smooth="yes"/>
      <point x="507" y="268"/>
      <point x="512" y="263"/>
      <point x="512" y="257" type="curve" smooth="yes"/>
      <point x="512" y="251"/>
      <point x="507" y="246"/>
    </contour>
  </outline>
</glyph>
<glyph name="H" format="1">
  <advance width="641"/>
  <unicode hex="0048"/>
  <outline>
    <contour>
      <point x="139" y="518" type="curve" smooth="yes"/>
      <point x="139" y="33" type="line" smooth="yes"/>
      <point x="139" y="27"/>
      <point x="134" y="22"/>
      <point x="128" y="22" type="curve" smooth="yes"/>
      <point x="122" y="22"/>
      <point x="117" y="27"/>
      <point x="117" y="33" type="curve" smooth="yes"/>
      <point x="117" y="518" type="line" smooth="yes"/>
      <point x="117" y="524"/>
      <point x="122" y="529"/>
      <point x="128" y="529" type="curve" smooth="yes"/>
      <point x="134" y="529"/>
      <point x="139" y="524"/>
    </contour>
    <contour>
      <point x="524" y="518" type="curve" smooth="yes"/>
      <point x="524" y="33" type="line" smooth="yes"/>
      <point x="524" y="27"/>
      <point x="519" y="22"/>
      <point x="513" y="22" type="curve" smooth="yes"/>
      <point x="507" y="22"/>
      <point x="502" y="27"/>
      <point x="502" y="33" type="curve" smooth="yes"/>
      <point x="502" y="518" type="line" smooth="yes"/>
      <point x="502" y="524"/>
      <point x="507" y="529"/>
      <point x="513" y="529" type="curve" smooth="yes"/>
      <point x="519" y="529"/>
      <point x="524" y="524"/>
    </contour>
    <contour>
      <point x="132" y="304" type="curve" smooth="yes"/>
      <point x="512" y="304" type="line" smooth="yes"/>
      <point x="518" y="304"/>
      <point x="523" y="299"/>
      <point x="523" y="293" type="curve" smooth="yes"/>
      <point x="523" y="287"/>
      <point x="518" y="282"/>
      <point x="512" y="282" type="curve" smooth="yes"/>
      <point x="132" y="282" type="line" smooth="yes"/>
      <point x="126" y="282"/>
      <point x="121" y="287"/>
      <point x="121" y="293" type="curve" smooth="yes"/>
      <point x="121" y="299"/>
      <point x="126" y="304"/>
    </contour>
  </outline>
</glyph>
<glyph name="J" format="1">
  <advance width="399"/>
  <unicode hex="004A"/>
  <outline>
    <contour>
      <point x="73" y="53" type="curve" smooth="yes"/>
      <point x="104" y="45"/>
      <point x="132" y="39"/>
      <point x="161" y="39" type="curve" smooth="yes"/>
      <point x="238" y="39"/>
      <point x="272" y="84"/>
      <point x="272" y="175" type="curve" smooth="yes"/>
      <point x="272" y="518" type="line" smooth="yes"/>
      <point x="272" y="524"/>
      <point x="277" y="529"/>
      <point x="283" y="529" type="curve" smooth="yes"/>
      <point x="289" y="529"/>
      <point x="294" y="524"/>
      <point x="294" y="518" type="curve" smooth="yes"/>
      <point x="294" y="175" type="line" smooth="yes"/>
      <point x="294" y="66"/>
      <point x="250" y="17"/>
      <point x="161" y="17" type="curve" smooth="yes"/>
      <point x="130" y="17"/>
      <point x="100" y="25"/>
      <point x="67" y="33" type="curve" smooth="yes"/>
      <point x="62" y="34"/>
      <point x="58" y="40"/>
      <point x="60" y="46" type="curve" smooth="yes"/>
      <point x="61" y="51"/>
      <point x="67" y="55"/>
    </contour>
  </outline>
</glyph>
<glyph name="K" format="1">
  <advance width="558"/>
  <unicode hex="004B"/>
  <outline>
    <contour>
      <point x="139" y="518" type="curve" smooth="yes"/>
      <point x="139" y="33" type="line" smooth="yes"/>
      <point x="139" y="27"/>
      <point x="134" y="22"/>
      <point x="128" y="22" type="curve" smooth="yes"/>
      <point x="122" y="22"/>
      <point x="117" y="27"/>
      <point x="117" y="33" type="curve" smooth="yes"/>
      <point x="117" y="518" type="line" smooth="yes"/>
      <point x="117" y="524"/>
      <point x="122" y="529"/>
      <point x="128" y="529" type="curve" smooth="yes"/>
      <point x="134" y="529"/>
      <point x="139" y="524"/>
    </contour>
    <contour>
      <point x="260" y="318" type="curve" smooth="yes"/>
      <point x="317" y="249"/>
      <point x="437" y="103"/>
      <point x="492" y="40" type="curve" smooth="yes"/>
      <point x="496" y="36"/>
      <point x="495" y="29"/>
      <point x="491" y="25" type="curve" smooth="yes"/>
      <point x="487" y="21"/>
      <point x="480" y="22"/>
      <point x="476" y="26" type="curve" smooth="yes"/>
      <point x="421" y="89"/>
      <point x="301" y="235"/>
      <point x="244" y="304" type="curve" smooth="yes"/>
      <point x="240" y="309"/>
      <point x="241" y="315"/>
      <point x="245" y="319" type="curve" smooth="yes"/>
      <point x="250" y="323"/>
      <point x="256" y="322"/>
    </contour>
    <contour>
      <point x="121" y="209" type="curve" smooth="yes"/>
      <point x="169" y="253"/>
      <point x="357" y="420"/>
      <point x="456" y="525" type="curve" smooth="yes"/>
      <point x="460" y="529"/>
      <point x="467" y="530"/>
      <point x="471" y="526" type="curve" smooth="yes"/>
      <point x="475" y="522"/>
      <point x="476" y="515"/>
      <point x="472" y="511" type="curve" smooth="yes"/>
      <point x="371" y="406"/>
      <point x="183" y="237"/>
      <point x="135" y="193" type="curve" smooth="yes"/>
      <point x="131" y="189"/>
      <point x="124" y="190"/>
      <point x="120" y="194" type="curve" smooth="yes"/>
      <point x="116" y="198"/>
      <point x="117" y="205"/>
    </contour>
  </outline>
</glyph>
<glyph name="M" format="1">
  <advance width="816"/>
  <unicode hex="004D"/>
  <outline>
    <contour>
      <point x="181" y="525" type="curve" smooth="yes"/>
      <point x="157" y="382"/>
      <point x="125" y="146"/>
      <point x="113" y="30" type="curve" smooth="yes"/>
      <point x="113" y="24"/>
      <point x="108" y="20"/>
      <point x="102" y="21" type="curve" smooth="yes"/>
      <point x="96" y="21"/>
      <point x="92" y="26"/>
      <point x="93" y="32" type="curve" smooth="yes"/>
      <point x="105" y="148"/>
      <point x="137" y="386"/>
      <point x="161" y="529" type="curve" smooth="yes"/>
      <point x="162" y="534"/>
      <point x="167" y="538"/>
      <point x="173" y="537" type="curve" smooth="yes"/>
      <point x="178" y="536"/>
      <point x="182" y="531"/>
    </contour>
    <contour>
      <point x="640" y="530" type="curve" smooth="yes"/>
      <point x="671" y="374"/>
      <point x="704" y="167"/>
      <point x="722" y="32" type="curve" smooth="yes"/>
      <point x="723" y="27"/>
      <point x="719" y="21"/>
      <point x="713" y="21" type="curve" smooth="yes"/>
      <point x="708" y="20"/>
      <point x="702" y="24"/>
      <point x="702" y="30" type="curve" smooth="yes"/>
      <point x="684" y="163"/>
      <point x="651" y="370"/>
      <point x="620" y="526" type="curve" smooth="yes"/>
      <point x="619" y="532"/>
      <point x="622" y="537"/>
      <point x="628" y="538" type="curve" smooth="yes"/>
      <point x="634" y="539"/>
      <point x="639" y="536"/>
    </contour>
    <contour>
      <point x="192" y="519" type="curve" smooth="yes"/>
      <point x="254" y="392"/>
      <point x="348" y="195"/>
      <point x="416" y="55" type="curve" smooth="yes"/>
      <point x="418" y="49"/>
      <point x="416" y="43"/>
      <point x="411" y="40" type="curve" smooth="yes"/>
      <point x="405" y="38"/>
      <point x="399" y="40"/>
      <point x="396" y="45" type="curve" smooth="yes"/>
      <point x="330" y="185"/>
      <point x="236" y="382"/>
      <point x="174" y="509" type="curve" smooth="yes"/>
      <point x="171" y="514"/>
      <point x="173" y="521"/>
      <point x="178" y="523" type="curve" smooth="yes"/>
      <point x="183" y="526"/>
      <point x="190" y="524"/>
    </contour>
    <contour>
      <point x="399" y="66" type="curve" smooth="yes"/>
      <point x="459" y="202"/>
      <point x="540" y="379"/>
      <point x="614" y="525" type="curve" smooth="yes"/>
      <point x="616" y="530"/>
      <point x="623" y="532"/>
      <point x="628" y="529" type="curve" smooth="yes"/>
      <point x="633" y="527"/>
      <point x="635" y="520"/>
      <point x="632" y="515" type="curve" smooth="yes"/>
      <point x="558" y="369"/>
      <point x="479" y="194"/>
      <point x="419" y="58" type="curve" smooth="yes"/>
      <point x="416" y="53"/>
      <point x="410" y="50"/>
      <point x="405" y="52" type="curve" smooth="yes"/>
      <point x="400" y="55"/>
      <point x="397" y="61"/>
    </contour>
  </outline>
</glyph>
<glyph name="N" format="1">
  <advance width="645"/>
  <unicode hex="004E"/>
  <outline>
    <contour>
      <point x="139" y="518" type="curve" smooth="yes"/>
      <point x="139" y="33" type="line" smooth="yes"/>
      <point x="139" y="27"/>
      <point x="134" y="22"/>
      <point x="128" y="22" type="curve" smooth="yes"/>
      <point x="122" y="22"/>
      <point x="117" y="27"/>
      <point x="117" y="33" type="curve" smooth="yes"/>
      <point x="117" y="518" type="line" smooth="yes"/>
      <point x="117" y="524"/>
      <point x="122" y="529"/>
      <point x="128" y="529" type="curve" smooth="yes"/>
      <point x="134" y="529"/>
      <point x="139" y="524"/>
    </contour>
    <contour>
      <point x="528" y="518" type="curve" smooth="yes"/>
      <point x="528" y="33" type="line" smooth="yes"/>
      <point x="528" y="27"/>
      <point x="523" y="22"/>
      <point x="517" y="22" type="curve" smooth="yes"/>
      <point x="511" y="22"/>
      <point x="506" y="27"/>
      <point x="506" y="33" type="curve" smooth="yes"/>
      <point x="506" y="518" type="line" smooth="yes"/>
      <point x="506" y="524"/>
      <point x="511" y="529"/>
      <point x="517" y="529" type="curve" smooth="yes"/>
      <point x="523" y="529"/>
      <point x="528" y="524"/>
    </contour>
    <contour>
      <point x="142" y="524" type="curve" smooth="yes"/>
      <point x="217" y="424"/>
      <point x="412" y="182"/>
      <point x="519" y="39" type="curve" smooth="yes"/>
      <point x="523" y="35"/>
      <point x="522" y="28"/>
      <point x="517" y="25" type="curve" smooth="yes"/>
      <point x="513" y="21"/>
      <point x="506" y="22"/>
      <point x="503" y="27" type="curve" smooth="yes"/>
      <point x="396" y="170"/>
      <point x="201" y="412"/>
      <point x="126" y="512" type="curve" smooth="yes"/>
      <point x="122" y="516"/>
      <point x="123" y="523"/>
      <point x="128" y="526" type="curve" smooth="yes"/>
      <point x="132" y="530"/>
      <point x="139" y="529"/>
    </contour>
  </outline>
</glyph>
<glyph name="O" format="1">
  <advance width="640"/>
  <unicode hex="004F"/>
  <outline>
    <contour>
      <point x="322" y="538" type="curve" smooth="yes"/>
      <point x="456" y="538"/>
      <point x="565" y="430"/>
      <point x="565" y="275" type="curve" smooth="yes"/>
      <point x="565" y="128"/>
      <point x="475" y="13"/>
      <point x="322" y="13" type="curve" smooth="yes"/>
      <point x="177" y="13"/>
      <point x="75" y="128"/>
      <point x="75" y="272" type="curve" smooth="yes"/>
      <point x="75" y="430"/>
      <point x="175" y="538"/>
    </contour>
    <contour>
      <point x="322" y="516" type="curve" smooth="yes"/>
      <point x="187" y="516"/>
      <point x="97" y="416"/>
      <point x="97" y="272" type="curve" smooth="yes"/>
      <point x="97" y="140"/>
      <point x="189" y="35"/>
      <point x="322" y="35" type="curve" smooth="yes"/>
      <point x="463" y="35"/>
      <point x="543" y="140"/>
      <point x="543" y="275" type="curve" smooth="yes"/>
      <point x="543" y="416"/>
      <point x="446" y="516"/>
    </contour>
  </outline>
</glyph>
<glyph name="P" format="1">
  <advance width="520"/>
  <unicode hex="0050"/>
  <outline>
    <contour>
      <point x="154" y="220" type="curve" smooth="yes"/>
      <point x="271" y="220" type="line" smooth="yes"/>
      <point x="376" y="220"/>
      <point x="431" y="284"/>
      <point x="431" y="364" type="curve" smooth="yes"/>
      <point x="431" y="448"/>
      <point x="365" y="507"/>
      <point x="271" y="507" type="curve" smooth="yes"/>
      <point x="128" y="507" type="line"/>
      <point x="139" y="518" type="line"/>
      <point x="139" y="33" type="line" smooth="yes"/>
      <point x="139" y="27"/>
      <point x="134" y="22"/>
      <point x="128" y="22" type="curve" smooth="yes"/>
      <point x="122" y="22"/>
      <point x="117" y="27"/>
      <point x="117" y="33" type="curve" smooth="yes"/>
      <point x="117" y="518" type="line" smooth="yes"/>
      <point x="117" y="524"/>
      <point x="122" y="529"/>
      <point x="128" y="529" type="curve" smooth="yes"/>
      <point x="271" y="529" type="line" smooth="yes"/>
      <point x="379" y="529"/>
      <point x="453" y="460"/>
      <point x="453" y="364" type="curve" smooth="yes"/>
      <point x="453" y="274"/>
      <point x="392" y="198"/>
      <point x="271" y="198" type="curve" smooth="yes"/>
      <point x="154" y="198" type="line" smooth="yes"/>
      <point x="148" y="198"/>
      <point x="143" y="203"/>
      <point x="143" y="209" type="curve" smooth="yes"/>
      <point x="143" y="215"/>
      <point x="148" y="220"/>
    </contour>
  </outline>
</glyph>
<glyph name="Q" format="1">
  <advance width="620"/>
  <unicode hex="0051"/>
  <outline>
    <contour>
      <point x="312" y="538" type="curve" smooth="yes"/>
      <point x="440" y="538"/>
      <point x="545" y="430"/>
      <point x="545" y="275" type="curve" smooth="yes"/>
      <point x="545" y="127"/>
      <point x="459" y="13"/>
      <point x="312" y="13" type="curve" smooth="yes"/>
      <point x="173" y="13"/>
      <point x="75" y="128"/>
      <point x="75" y="272" type="curve" smooth="yes"/>
      <point x="75" y="430"/>
      <point x="171" y="538"/>
    </contour>
    <contour>
      <point x="323" y="24" type="curve" smooth="yes"/>
      <point x="341" y="-46"/>
      <point x="407" y="-99"/>
      <point x="507" y="-99" type="curve" smooth="yes"/>
      <point x="513" y="-99"/>
      <point x="518" y="-104"/>
      <point x="518" y="-110" type="curve" smooth="yes"/>
      <point x="518" y="-116"/>
      <point x="513" y="-121"/>
      <point x="507" y="-121" type="curve" smooth="yes"/>
      <point x="395" y="-121"/>
      <point x="323" y="-58"/>
      <point x="303" y="18" type="curve" smooth="yes"/>
      <point x="301" y="24"/>
      <point x="305" y="30"/>
      <point x="310" y="31" type="curve" smooth="yes"/>
      <point x="316" y="33"/>
      <point x="322" y="29"/>
    </contour>
    <contour>
      <point x="312" y="516" type="curve" smooth="yes"/>
      <point x="183" y="516"/>
      <point x="97" y="416"/>
      <point x="97" y="272" type="curve" smooth="yes"/>
      <point x="97" y="140"/>
      <point x="185" y="35"/>
      <point x="312" y="35" type="curve" smooth="yes"/>
      <point x="447" y="35"/>
      <point x="523" y="141"/>
      <point x="523" y="275" type="curve" smooth="yes"/>
      <point x="523" y="416"/>
      <point x="430" y="516"/>
    </contour>
  </outline>
</glyph>
<glyph name="R" format="1">
  <advance width="539"/>
  <unicode hex="0052"/>
  <outline>
    <contour>
      <point x="154" y="243" type="curve" smooth="yes"/>
      <point x="275" y="243" type="line" smooth="yes"/>
      <point x="378" y="243"/>
      <point x="430" y="302"/>
      <point x="430" y="375" type="curve" smooth="yes"/>
      <point x="430" y="454"/>
      <point x="368" y="507"/>
      <point x="275" y="507" type="curve" smooth="yes"/>
      <point x="128" y="507" type="line"/>
      <point x="139" y="518" type="line"/>
      <point x="139" y="33" type="line" smooth="yes"/>
      <point x="139" y="27"/>
      <point x="134" y="22"/>
      <point x="128" y="22" type="curve" smooth="yes"/>
      <point x="122" y="22"/>
      <point x="117" y="27"/>
      <point x="117" y="33" type="curve" smooth="yes"/>
      <point x="117" y="518" type="line" smooth="yes"/>
      <point x="117" y="524"/>
      <point x="122" y="529"/>
      <point x="128" y="529" type="curve" smooth="yes"/>
      <point x="275" y="529" type="line" smooth="yes"/>
      <point x="382" y="529"/>
      <point x="452" y="464"/>
      <point x="452" y="375" type="curve" smooth="yes"/>
      <point x="452" y="292"/>
      <point x="394" y="221"/>
      <point x="275" y="221" type="curve" smooth="yes"/>
      <point x="154" y="221" type="line" smooth="yes"/>
      <point x="148" y="221"/>
      <point x="143" y="226"/>
      <point x="143" y="232" type="curve" smooth="yes"/>
      <point x="143" y="238"/>
      <point x="148" y="243"/>
    </contour>
    <contour>
      <point x="318" y="226" type="curve" smooth="yes"/>
      <point x="477" y="40" type="line" smooth="yes"/>
      <point x="481" y="36"/>
      <point x="480" y="29"/>
      <point x="476" y="25" type="curve" smooth="yes"/>
      <point x="472" y="21"/>
      <point x="465" y="22"/>
      <point x="461" y="26" type="curve" smooth="yes"/>
      <point x="302" y="212" type="line" smooth="yes"/>
      <point x="298" y="216"/>
      <point x="299" y="223"/>
      <point x="303" y="227" type="curve" smooth="yes"/>
      <point x="307" y="231"/>
      <point x="314" y="230"/>
    </contour>
  </outline>
</glyph>
<glyph name="S" format="1">
  <advance width="535"/>
  <unicode hex="0053"/>
  <outline>
    <contour>
      <point x="394" y="484" type="curve" smooth="yes"/>
      <point x="348" y="503"/>
      <point x="315" y="513"/>
      <point x="248" y="513" type="curve" smooth="yes"/>
      <point x="172" y="513"/>
      <point x="123" y="469"/>
      <point x="123" y="420" type="curve" smooth="yes"/>
      <point x="123" y="373"/>
      <point x="148" y="322"/>
      <point x="271" y="298" type="curve" smooth="yes"/>
      <point x="402" y="269"/>
      <point x="443" y="213"/>
      <point x="443" y="146" type="curve" smooth="yes"/>
      <point x="443" y="78"/>
      <point x="392" y="13"/>
      <point x="268" y="13" type="curve" smooth="yes"/>
      <point x="206" y="13"/>
      <point x="147" y="28"/>
      <point x="94" y="58" type="curve" smooth="yes"/>
      <point x="89" y="61"/>
      <point x="87" y="67"/>
      <point x="90" y="72" type="curve" smooth="yes"/>
      <point x="93" y="77"/>
      <point x="99" y="79"/>
      <point x="104" y="76" type="curve" smooth="yes"/>
      <point x="155" y="48"/>
      <point x="210" y="35"/>
      <point x="268" y="35" type="curve" smooth="yes"/>
      <point x="372" y="35"/>
      <point x="421" y="86"/>
      <point x="421" y="146" type="curve" smooth="yes"/>
      <point x="421" y="207"/>
      <point x="380" y="253"/>
      <point x="267" y="278" type="curve" smooth="yes"/>
      <point x="122" y="306"/>
      <point x="101" y="367"/>
      <point x="101" y="420" type="curve" smooth="yes"/>
      <point x="101" y="477"/>
      <point x="154" y="535"/>
      <point x="248" y="535" type="curve" smooth="yes"/>
      <point x="319" y="535"/>
      <point x="354" y="523"/>
      <point x="402" y="504" type="curve" smooth="yes"/>
      <point x="407" y="502"/>
      <point x="410" y="495"/>
      <point x="408" y="490" type="curve" smooth="yes"/>
      <point x="406" y="485"/>
      <point x="399" y="482"/>
    </contour>
  </outline>
</glyph>
<glyph name="T" format="1">
  <advance width="558"/>
  <unicode hex="0054"/>
  <outline>
    <contour>
      <point x="288" y="518" type="curve" smooth="yes"/>
      <point x="288" y="33" type="line" smooth="yes"/>
      <point x="288" y="27"/>
      <point x="283" y="22"/>
      <point x="277" y="22" type="curve" smooth="yes"/>
      <point x="271" y="22"/>
      <point x="266" y="27"/>
      <point x="266" y="33" type="curve" smooth="yes"/>
      <point x="266" y="518" type="line" smooth="yes"/>
      <point x="266" y="524"/>
      <point x="271" y="529"/>
      <point x="277" y="529" type="curve" smooth="yes"/>
      <point x="283" y="529"/>
      <point x="288" y="524"/>
    </contour>
    <contour>
      <point x="65" y="529" type="curve" smooth="yes"/>
      <point x="493" y="529" type="line" smooth="yes"/>
      <point x="499" y="529"/>
      <point x="504" y="524"/>
      <point x="504" y="518" type="curve" smooth="yes"/>
      <point x="504" y="512"/>
      <point x="499" y="507"/>
      <point x="493" y="507" type="curve" smooth="yes"/>
      <point x="65" y="507" type="line" smooth="yes"/>
      <point x="59" y="507"/>
      <point x="54" y="512"/>
      <point x="54" y="518" type="curve" smooth="yes"/>
      <point x="54" y="524"/>
      <point x="59" y="529"/>
    </contour>
  </outline>
</glyph>
<glyph name="U" format="1">
  <advance width="626"/>
  <unicode hex="0055"/>
  <outline>
    <contour>
      <point x="127" y="518" type="curve" smooth="yes"/>
      <point x="127" y="222" type="line" smooth="yes"/>
      <point x="127" y="102"/>
      <point x="202" y="35"/>
      <point x="311" y="35" type="curve" smooth="yes"/>
      <point x="431" y="35"/>
      <point x="499" y="102"/>
      <point x="499" y="225" type="curve" smooth="yes"/>
      <point x="499" y="518" type="line" smooth="yes"/>
      <point x="499" y="524"/>
      <point x="504" y="529"/>
      <point x="510" y="529" type="curve" smooth="yes"/>
      <point x="516" y="529"/>
      <point x="521" y="524"/>
      <point x="521" y="518" type="curve" smooth="yes"/>
      <point x="521" y="225" type="line" smooth="yes"/>
      <point x="521" y="88"/>
      <point x="445" y="13"/>
      <point x="311" y="13" type="curve" smooth="yes"/>
      <point x="190" y="13"/>
      <point x="105" y="88"/>
      <point x="105" y="222" type="curve" smooth="yes"/>
      <point x="105" y="518" type="line" smooth="yes"/>
      <point x="105" y="524"/>
      <point x="110" y="529"/>
      <point x="116" y="529" type="curve" smooth="yes"/>
      <point x="122" y="529"/>
      <point x="127" y="524"/>
    </contour>
  </outline>
</glyph>
<glyph name="V" format="1">
  <advance width="595"/>
  <unicode hex="0056"/>
  <outline>
    <contour>
      <point x="90" y="522" type="curve" smooth="yes"/>
      <point x="130" y="399"/>
      <point x="264" y="108"/>
      <point x="304" y="34" type="curve" smooth="yes"/>
      <point x="307" y="29"/>
      <point x="305" y="22"/>
      <point x="300" y="20" type="curve" smooth="yes"/>
      <point x="295" y="17"/>
      <point x="288" y="19"/>
      <point x="286" y="24" type="curve" smooth="yes"/>
      <point x="246" y="98"/>
      <point x="110" y="391"/>
      <point x="70" y="516" type="curve" smooth="yes"/>
      <point x="68" y="521"/>
      <point x="71" y="527"/>
      <point x="77" y="529" type="curve" smooth="yes"/>
      <point x="82" y="531"/>
      <point x="88" y="528"/>
    </contour>
    <contour>
      <point x="289" y="28" type="curve" smooth="yes"/>
      <point x="333" y="112"/>
      <point x="456" y="379"/>
      <point x="505" y="521" type="curve" smooth="yes"/>
      <point x="507" y="527"/>
      <point x="513" y="530"/>
      <point x="518" y="528" type="curve" smooth="yes"/>
      <point x="524" y="526"/>
      <point x="527" y="520"/>
      <point x="525" y="515" type="curve" smooth="yes"/>
      <point x="476" y="371"/>
      <point x="351" y="102"/>
      <point x="307" y="18" type="curve" smooth="yes"/>
      <point x="305" y="13"/>
      <point x="298" y="11"/>
      <point x="293" y="14" type="curve" smooth="yes"/>
      <point x="288" y="16"/>
      <point x="286" y="23"/>
    </contour>
  </outline>
</glyph>
<glyph name="W" format="1">
  <advance width="893"/>
  <unicode hex="0057"/>
  <outline>
    <contour>
      <point x="99" y="520" type="curve" smooth="yes"/>
      <point x="133" y="396"/>
      <point x="233" y="108"/>
      <point x="268" y="35" type="curve" smooth="yes"/>
      <point x="270" y="29"/>
      <point x="268" y="23"/>
      <point x="263" y="20" type="curve" smooth="yes"/>
      <point x="257" y="18"/>
      <point x="251" y="20"/>
      <point x="248" y="25" type="curve" smooth="yes"/>
      <point x="213" y="100"/>
      <point x="113" y="390"/>
      <point x="79" y="514" type="curve" smooth="yes"/>
      <point x="77" y="520"/>
      <point x="81" y="526"/>
      <point x="86" y="527" type="curve" smooth="yes"/>
      <point x="92" y="529"/>
      <point x="98" y="525"/>
    </contour>
    <contour>
      <point x="252" y="28" type="curve" smooth="yes"/>
      <point x="289" y="112"/>
      <point x="394" y="376"/>
      <point x="437" y="517" type="curve" smooth="yes"/>
      <point x="439" y="523"/>
      <point x="445" y="526"/>
      <point x="450" y="524" type="curve" smooth="yes"/>
      <point x="456" y="522"/>
      <point x="459" y="516"/>
      <point x="457" y="511" type="curve" smooth="yes"/>
      <point x="414" y="370"/>
      <point x="309" y="104"/>
      <point x="272" y="20" type="curve" smooth="yes"/>
      <point x="269" y="15"/>
      <point x="263" y="12"/>
      <point x="258" y="14" type="curve" smooth="yes"/>
      <point x="253" y="17"/>
      <point x="250" y="23"/>
    </contour>
    <contour>
      <point x="461" y="505" type="curve" smooth="yes"/>
      <point x="499" y="384"/>
      <point x="602" y="107"/>
      <point x="637" y="34" type="curve" smooth="yes"/>
      <point x="640" y="28"/>
      <point x="638" y="22"/>
      <point x="633" y="20" type="curve" smooth="yes"/>
      <point x="627" y="17"/>
      <point x="621" y="19"/>
      <point x="619" y="24" type="curve" smooth="yes"/>
      <point x="582" y="99"/>
      <point x="479" y="376"/>
      <point x="441" y="499" type="curve" smooth="yes"/>
      <point x="439" y="504"/>
      <point x="442" y="510"/>
      <point x="448" y="512" type="curve" smooth="yes"/>
      <point x="453" y="514"/>
      <point x="459" y="511"/>
    </contour>
    <contour>
      <point x="622" y="27" type="curve" smooth="yes"/>
      <point x="659" y="111"/>
      <point x="754" y="377"/>
      <point x="795" y="520" type="curve" smooth="yes"/>
      <point x="796" y="525"/>
      <point x="802" y="529"/>
      <point x="808" y="527" type="curve" smooth="yes"/>
      <point x="813" y="526"/>
      <point x="817" y="520"/>
      <point x="815" y="514" type="curve" smooth="yes"/>
      <point x="774" y="371"/>
      <point x="679" y="103"/>
      <point x="642" y="19" type="curve" smooth="yes"/>
      <point x="639" y="14"/>
      <point x="633" y="11"/>
      <point x="628" y="13" type="curve" smooth="yes"/>
      <point x="623" y="16"/>
      <point x="620" y="22"/>
    </contour>
  </outline>
</glyph>
<glyph name="X" format="1">
  <advance width="573"/>
  <unicode hex="0058"/>
  <outline>
    <contour>
      <point x="112" y="524" type="curve" smooth="yes"/>
      <point x="208" y="384"/>
      <point x="434" y="123"/>
      <point x="493" y="39" type="curve" smooth="yes"/>
      <point x="496" y="34"/>
      <point x="495" y="28"/>
      <point x="490" y="24" type="curve" smooth="yes"/>
      <point x="485" y="21"/>
      <point x="479" y="22"/>
      <point x="475" y="27" type="curve" smooth="yes"/>
      <point x="416" y="111"/>
      <point x="190" y="372"/>
      <point x="94" y="512" type="curve" smooth="yes"/>
      <point x="91" y="517"/>
      <point x="92" y="523"/>
      <point x="97" y="527" type="curve" smooth="yes"/>
      <point x="102" y="530"/>
      <point x="108" y="529"/>
    </contour>
    <contour>
      <point x="82" y="39" type="curve" smooth="yes"/>
      <point x="160" y="146"/>
      <point x="369" y="391"/>
      <point x="455" y="524" type="curve" smooth="yes"/>
      <point x="458" y="528"/>
      <point x="465" y="530"/>
      <point x="470" y="527" type="curve" smooth="yes"/>
      <point x="474" y="524"/>
      <point x="476" y="517"/>
      <point x="473" y="512" type="curve" smooth="yes"/>
      <point x="387" y="379"/>
      <point x="178" y="134"/>
      <point x="98" y="27" type="curve" smooth="yes"/>
      <point x="95" y="22"/>
      <point x="88" y="21"/>
      <point x="84" y="25" type="curve" smooth="yes"/>
      <point x="79" y="28"/>
      <point x="78" y="35"/>
    </contour>
  </outline>
</glyph>
<glyph name="Y" format="1">
  <advance width="570"/>
  <unicode hex="0059"/>
  <outline>
    <contour>
      <point x="298" y="201" type="curve" smooth="yes"/>
      <point x="298" y="33" type="line" smooth="yes"/>
      <point x="298" y="27"/>
      <point x="293" y="22"/>
      <point x="287" y="22" type="curve" smooth="yes"/>
      <point x="281" y="22"/>
      <point x="276" y="27"/>
      <point x="276" y="33" type="curve" smooth="yes"/>
      <point x="276" y="201" type="line" smooth="yes"/>
      <point x="276" y="207"/>
      <point x="281" y="212"/>
      <point x="287" y="212" type="curve" smooth="yes"/>
      <point x="293" y="212"/>
      <point x="298" y="207"/>
    </contour>
    <contour>
      <point x="88" y="523" type="curve" smooth="yes"/>
      <point x="130" y="454"/>
      <point x="250" y="276"/>
      <point x="292" y="219" type="curve" smooth="yes"/>
      <point x="296" y="215"/>
      <point x="295" y="208"/>
      <point x="290" y="205" type="curve" smooth="yes"/>
      <point x="286" y="201"/>
      <point x="279" y="202"/>
      <point x="276" y="207" type="curve" smooth="yes"/>
      <point x="232" y="264"/>
      <point x="112" y="442"/>
      <point x="70" y="513" type="curve" smooth="yes"/>
      <point x="67" y="517"/>
      <point x="69" y="524"/>
      <point x="74" y="527" type="curve" smooth="yes"/>
      <point x="78" y="530"/>
      <point x="85" y="528"/>
    </contour>
    <contour>
      <point x="279" y="213" type="curve" smooth="yes"/>
      <point x="327" y="279"/>
      <point x="441" y="455"/>
      <point x="482" y="523" type="curve" smooth="yes"/>
      <point x="485" y="528"/>
      <point x="491" y="530"/>
      <point x="496" y="527" type="curve" smooth="yes"/>
      <point x="501" y="524"/>
      <point x="503" y="518"/>
      <point x="500" y="513" type="curve" smooth="yes"/>
      <point x="459" y="443"/>
      <point x="345" y="267"/>
      <point x="295" y="201" type="curve" smooth="yes"/>
      <point x="292" y="196"/>
      <point x="285" y="195"/>
      <point x="281" y="199" type="curve" smooth="yes"/>
      <point x="276" y="202"/>
      <point x="275" y="209"/>
    </contour>
  </outline>
</glyph>
<glyph name="Z" format="1">
  <advance width="577"/>
  <unicode hex="005A"/>
  <outline>
    <contour>
      <point x="480" y="512" type="curve" smooth="yes"/>
      <point x="417" y="417"/>
      <point x="164" y="117"/>
      <point x="111" y="35" type="curve" smooth="yes"/>
      <point x="108" y="31"/>
      <point x="101" y="29"/>
      <point x="96" y="32" type="curve" smooth="yes"/>
      <point x="92" y="35"/>
      <point x="90" y="42"/>
      <point x="93" y="47" type="curve" smooth="yes"/>
      <point x="146" y="129"/>
      <point x="399" y="429"/>
      <point x="462" y="524" type="curve" smooth="yes"/>
      <point x="465" y="529"/>
      <point x="472" y="530"/>
      <point x="477" y="527" type="curve" smooth="yes"/>
      <point x="482" y="524"/>
      <point x="483" y="517"/>
    </contour>
    <contour>
      <point x="111" y="529" type="curve" smooth="yes"/>
      <point x="460" y="529" type="line" smooth="yes"/>
      <point x="466" y="529"/>
      <point x="471" y="524"/>
      <point x="471" y="518" type="curve" smooth="yes"/>
      <point x="471" y="512"/>
      <point x="466" y="507"/>
      <point x="460" y="507" type="curve" smooth="yes"/>
      <point x="111" y="507" type="line" smooth="yes"/>
      <point x="105" y="507"/>
      <point x="100" y="512"/>
      <point x="100" y="518" type="curve" smooth="yes"/>
      <point x="100" y="524"/>
      <point x="105" y="529"/>
    </contour>
    <contour>
      <point x="98" y="44" type="curve" smooth="yes"/>
      <point x="483" y="44" type="line" smooth="yes"/>
      <point x="489" y="44"/>
      <point x="494" y="39"/>
      <point x="494" y="33" type="curve" smooth="yes"/>
      <point x="494" y="27"/>
      <point x="489" y="22"/>
      <point x="483" y="22" type="curve" smooth="yes"/>
      <point x="98" y="22" type="line" smooth="yes"/>
      <point x="92" y="22"/>
      <point x="87" y="27"/>
      <point x="87" y="33" type="curve" smooth="yes"/>
      <point x="87" y="39"/>
      <point x="92" y="44"/>
    </contour>
  </outline>
</glyph>
<glyph name="bracketleft" format="1">
  <advance width="325"/>
  <unicode hex="005B"/>
  <outline>
    <contour>
      <point x="238" y="602" type="curve" smooth="yes"/>
      <point x="103" y="602" type="line"/>
      <point x="114" y="613" type="line"/>
      <point x="114" y="-66" type="line"/>
      <point x="103" y="-55" type="line"/>
      <point x="238" y="-55" type="line" smooth="yes"/>
      <point x="244" y="-55"/>
      <point x="249" y="-60"/>
      <point x="249" y="-66" type="curve" smooth="yes"/>
      <point x="249" y="-72"/>
      <point x="244" y="-77"/>
      <point x="238" y="-77" type="curve" smooth="yes"/>
      <point x="103" y="-77" type="line" smooth="yes"/>
      <point x="97" y="-77"/>
      <point x="92" y="-72"/>
      <point x="92" y="-66" type="curve" smooth="yes"/>
      <point x="92" y="613" type="line" smooth="yes"/>
      <point x="92" y="619"/>
      <point x="97" y="624"/>
      <point x="103" y="624" type="curve" smooth="yes"/>
      <point x="238" y="624" type="line" smooth="yes"/>
      <point x="244" y="624"/>
      <point x="249" y="619"/>
      <point x="249" y="613" type="curve" smooth="yes"/>
      <point x="249" y="607"/>
      <point x="244" y="602"/>
    </contour>
  </outline>
</glyph>
<glyph name="asciicircum" format="1">
  <advance width="500"/>
  <unicode hex="005E"/>
  <outline>
    <contour>
      <point x="255" y="521" type="curve" smooth="yes"/>
      <point x="207" y="429"/>
      <point x="156" y="334"/>
      <point x="115" y="254" type="curve" smooth="yes"/>
      <point x="113" y="249"/>
      <point x="106" y="247"/>
      <point x="101" y="250" type="curve" smooth="yes"/>
      <point x="96" y="252"/>
      <point x="94" y="259"/>
      <point x="97" y="264" type="curve" smooth="yes"/>
      <point x="138" y="344"/>
      <point x="189" y="439"/>
      <point x="237" y="531" type="curve" smooth="yes"/>
      <point x="239" y="536"/>
      <point x="246" y="538"/>
      <point x="251" y="535" type="curve" smooth="yes"/>
      <point x="256" y="533"/>
      <point x="258" y="526"/>
    </contour>
    <contour>
      <point x="386" y="254" type="curve" smooth="yes"/>
      <point x="345" y="334"/>
      <point x="296" y="429"/>
      <point x="246" y="521" type="curve" smooth="yes"/>
      <point x="243" y="526"/>
      <point x="245" y="533"/>
      <point x="250" y="535" type="curve" smooth="yes"/>
      <point x="255" y="538"/>
      <point x="262" y="536"/>
      <point x="264" y="531" type="curve" smooth="yes"/>
      <point x="314" y="439"/>
      <point x="363" y="344"/>
      <point x="404" y="264" type="curve" smooth="yes"/>
      <point x="407" y="259"/>
      <point x="405" y="252"/>
      <point x="400" y="250" type="curve" smooth="yes"/>
      <point x="395" y="247"/>
      <point x="388" y="249"/>
    </contour>
  </outline>
</glyph>
<glyph name="underscore" format="1">
  <advance width="545"/>
  <unicode hex="005F"/>
  <outline>
    <contour>
      <point x="65" y="-80" type="curve" smooth="yes"/>
      <point x="480" y="-80" type="line" smooth="yes"/>
      <point x="486" y="-80"/>
      <point x="491" y="-85"/>
      <point x="491" y="-91" type="curve" smooth="yes"/>
      <point x="491" y="-97"/>
      <point x="486" y="-102"/>
      <point x="480" y="-102" type="curve" smooth="yes"/>
      <point x="65" y="-102" type="line" smooth="yes"/>
      <point x="59" y="-102"/>
      <point x="54" y="-97"/>
      <point x="54" y="-91" type="curve" smooth="yes"/>
      <point x="54" y="-85"/>
      <point x="59" y="-80"/>
    </contour>
  </outline>
</glyph>
<glyph name="grave" format="1">
  <advance width="500"/>
  <unicode hex="0060"/>
  <outline>
    <contour>
      <point x="228" y="604" type="curve" smooth="yes"/>
      <point x="257" y="568"/>
      <point x="271" y="550"/>
      <point x="295" y="511" type="curve" smooth="yes"/>
      <point x="298" y="506"/>
      <point x="296" y="499"/>
      <point x="292" y="496" type="curve" smooth="yes"/>
      <point x="287" y="493"/>
      <point x="280" y="495"/>
      <point x="277" y="499" type="curve" smooth="yes"/>
      <point x="253" y="538"/>
      <point x="239" y="556"/>
      <point x="212" y="590" type="curve" smooth="yes"/>
      <point x="208" y="595"/>
      <point x="209" y="602"/>
      <point x="213" y="605" type="curve" smooth="yes"/>
      <point x="218" y="609"/>
      <point x="225" y="608"/>
    </contour>
  </outline>
</glyph>
<glyph name="a" format="1">
  <advance width="456"/>
  <unicode hex="0061"/>
  <outline>
    <contour>
      <point x="124" y="369" type="curve" smooth="yes"/>
      <point x="145" y="376"/>
      <point x="186" y="386"/>
      <point x="220" y="386" type="curve" smooth="yes"/>
      <point x="319" y="386"/>
      <point x="365" y="325"/>
      <point x="365" y="238" type="curve" smooth="yes"/>
      <point x="365" y="147" type="line" smooth="yes"/>
      <point x="365" y="96"/>
      <point x="376" y="66"/>
      <point x="399" y="41" type="curve" smooth="yes"/>
      <point x="403" y="37"/>
      <point x="402" y="30"/>
      <point x="398" y="26" type="curve" smooth="yes"/>
      <point x="394" y="22"/>
      <point x="387" y="23"/>
      <point x="383" y="27" type="curve" smooth="yes"/>
      <point x="358" y="54"/>
      <point x="343" y="88"/>
      <point x="343" y="147" type="curve" smooth="yes"/>
      <point x="343" y="238" type="line" smooth="yes"/>
      <point x="343" y="313"/>
      <point x="305" y="364"/>
      <point x="220" y="364" type="curve" smooth="yes"/>
      <point x="188" y="364"/>
      <point x="151" y="356"/>
      <point x="130" y="349" type="curve" smooth="yes"/>
      <point x="125" y="347"/>
      <point x="119" y="350"/>
      <point x="117" y="356" type="curve" smooth="yes"/>
      <point x="115" y="361"/>
      <point x="118" y="367"/>
    </contour>
    <contour>
      <point x="353" y="216" type="curve" smooth="yes"/>
      <point x="319" y="217"/>
      <point x="289" y="219"/>
      <point x="260" y="219" type="curve" smooth="yes"/>
      <point x="191" y="219"/>
      <point x="144" y="203"/>
      <point x="115" y="175" type="curve" smooth="yes"/>
      <point x="97" y="157"/>
      <point x="91" y="136"/>
      <point x="91" y="114" type="curve" smooth="yes"/>
      <point x="91" y="82"/>
      <point x="115" y="44"/>
      <point x="177" y="44" type="curve" smooth="yes"/>
      <point x="248" y="44"/>
      <point x="300" y="72"/>
      <point x="346" y="134" type="curve" smooth="yes"/>
      <point x="349" y="139"/>
      <point x="356" y="140"/>
      <point x="360" y="136" type="curve" smooth="yes"/>
      <point x="365" y="133"/>
      <point x="366" y="126"/>
      <point x="362" y="122" type="curve" smooth="yes"/>
      <point x="312" y="54"/>
      <point x="254" y="22"/>
      <point x="177" y="22" type="curve" smooth="yes"/>
      <point x="97" y="22"/>
      <point x="69" y="74"/>
      <point x="69" y="114" type="curve" smooth="yes"/>
      <point x="69" y="142"/>
      <point x="77" y="167"/>
      <point x="101" y="189" type="curve" smooth="yes"/>
      <point x="132" y="221"/>
      <point x="183" y="241"/>
      <point x="260" y="241" type="curve" smooth="yes"/>
      <point x="289" y="241"/>
      <point x="319" y="239"/>
      <point x="353" y="238" type="curve" smooth="yes"/>
      <point x="359" y="237"/>
      <point x="364" y="232"/>
      <point x="364" y="227" type="curve" smooth="yes"/>
      <point x="363" y="221"/>
      <point x="358" y="216"/>
    </contour>
  </outline>
</glyph>
<glyph name="b" format="1">
  <advance width="515"/>
  <unicode hex="0062"/>
  <outline>
    <contour>
      <point x="104" y="34" type="curve" smooth="yes"/>
      <point x="104" y="544" type="line" smooth="yes"/>
      <point x="104" y="550"/>
      <point x="109" y="555"/>
      <point x="115" y="555" type="curve" smooth="yes"/>
      <point x="121" y="555"/>
      <point x="126" y="550"/>
      <point x="126" y="544" type="curve" smooth="yes"/>
      <point x="126" y="34" type="line" smooth="yes"/>
      <point x="126" y="28"/>
      <point x="121" y="23"/>
      <point x="115" y="23" type="curve" smooth="yes"/>
      <point x="109" y="23"/>
      <point x="104" y="28"/>
    </contour>
    <contour>
      <point x="120" y="81" type="curve" smooth="yes"/>
      <point x="166" y="56"/>
      <point x="216" y="44"/>
      <point x="273" y="44" type="curve" smooth="yes"/>
      <point x="363" y="44"/>
      <point x="426" y="106"/>
      <point x="426" y="203" type="curve" smooth="yes"/>
      <point x="426" y="299"/>
      <point x="365" y="364"/>
      <point x="286" y="364" type="curve" smooth="yes"/>
      <point x="227" y="364"/>
      <point x="168" y="322"/>
      <point x="125" y="253" type="curve" smooth="yes"/>
      <point x="122" y="249"/>
      <point x="115" y="247"/>
      <point x="110" y="250" type="curve" smooth="yes"/>
      <point x="106" y="253"/>
      <point x="104" y="260"/>
      <point x="107" y="265" type="curve" smooth="yes"/>
      <point x="154" y="340"/>
      <point x="221" y="386"/>
      <point x="286" y="386" type="curve" smooth="yes"/>
      <point x="375" y="386"/>
      <point x="448" y="313"/>
      <point x="448" y="203" type="curve" smooth="yes"/>
      <point x="448" y="92"/>
      <point x="375" y="22"/>
      <point x="273" y="22" type="curve" smooth="yes"/>
      <point x="212" y="22"/>
      <point x="160" y="36"/>
      <point x="110" y="63" type="curve" smooth="yes"/>
      <point x="105" y="65"/>
      <point x="103" y="72"/>
      <point x="106" y="77" type="curve" smooth="yes"/>
      <point x="108" y="82"/>
      <point x="115" y="84"/>
    </contour>
  </outline>
</glyph>
<glyph name="c" format="1">
  <advance width="443"/>
  <unicode hex="0063"/>
  <outline>
    <contour>
      <point x="351" y="350" type="curve" smooth="yes"/>
      <point x="325" y="359"/>
      <point x="293" y="364"/>
      <point x="265" y="364" type="curve" smooth="yes"/>
      <point x="154" y="364"/>
      <point x="90" y="293"/>
      <point x="90" y="195" type="curve" smooth="yes"/>
      <point x="90" y="109"/>
      <point x="153" y="44"/>
      <point x="264" y="44" type="curve" smooth="yes"/>
      <point x="303" y="44"/>
      <point x="335" y="51"/>
      <point x="362" y="62" type="curve" smooth="yes"/>
      <point x="367" y="64"/>
      <point x="374" y="61"/>
      <point x="376" y="56" type="curve" smooth="yes"/>
      <point x="378" y="51"/>
      <point x="375" y="44"/>
      <point x="370" y="42" type="curve" smooth="yes"/>
      <point x="341" y="31"/>
      <point x="307" y="22"/>
      <point x="264" y="22" type="curve" smooth="yes"/>
      <point x="137" y="22"/>
      <point x="68" y="99"/>
      <point x="68" y="195" type="curve" smooth="yes"/>
      <point x="68" y="305"/>
      <point x="140" y="386"/>
      <point x="265" y="386" type="curve" smooth="yes"/>
      <point x="295" y="386"/>
      <point x="329" y="379"/>
      <point x="357" y="370" type="curve" smooth="yes"/>
      <point x="363" y="368"/>
      <point x="366" y="362"/>
      <point x="364" y="357" type="curve" smooth="yes"/>
      <point x="362" y="351"/>
      <point x="356" y="348"/>
    </contour>
  </outline>
</glyph>
<glyph name="d" format="1">
  <advance width="514"/>
  <unicode hex="0064"/>
  <outline>
    <contour>
      <point x="392" y="308" type="curve" smooth="yes"/>
      <point x="349" y="343"/>
      <point x="306" y="364"/>
      <point x="249" y="364" type="curve" smooth="yes"/>
      <point x="157" y="364"/>
      <point x="89" y="294"/>
      <point x="89" y="196" type="curve" smooth="yes"/>
      <point x="89" y="104"/>
      <point x="148" y="44"/>
      <point x="228" y="44" type="curve" smooth="yes"/>
      <point x="300" y="44"/>
      <point x="352" y="93"/>
      <point x="389" y="155" type="curve" smooth="yes"/>
      <point x="392" y="160"/>
      <point x="398" y="162"/>
      <point x="403" y="159" type="curve" smooth="yes"/>
      <point x="408" y="156"/>
      <point x="410" y="150"/>
      <point x="407" y="145" type="curve" smooth="yes"/>
      <point x="366" y="75"/>
      <point x="308" y="22"/>
      <point x="228" y="22" type="curve" smooth="yes"/>
      <point x="138" y="22"/>
      <point x="67" y="90"/>
      <point x="67" y="196" type="curve" smooth="yes"/>
      <point x="67" y="306"/>
      <point x="145" y="386"/>
      <point x="249" y="386" type="curve" smooth="yes"/>
      <point x="312" y="386"/>
      <point x="359" y="363"/>
      <point x="406" y="324" type="curve" smooth="yes"/>
      <point x="410" y="321"/>
      <point x="411" y="314"/>
      <point x="407" y="309" type="curve" smooth="yes"/>
      <point x="404" y="305"/>
      <point x="397" y="304"/>
    </contour>
    <contour>
      <point x="410" y="544" type="curve" smooth="yes"/>
      <point x="410" y="33" type="line" smooth="yes"/>
      <point x="410" y="27"/>
      <point x="405" y="22"/>
      <point x="399" y="22" type="curve" smooth="yes"/>
      <point x="393" y="22"/>
      <point x="388" y="27"/>
      <point x="388" y="33" type="curve" smooth="yes"/>
      <point x="388" y="544" type="line" smooth="yes"/>
      <point x="388" y="550"/>
      <point x="393" y="555"/>
      <point x="399" y="555" type="curve" smooth="yes"/>
      <point x="405" y="555"/>
      <point x="410" y="550"/>
    </contour>
  </outline>
</glyph>
<glyph name="e" format="1">
  <advance width="468"/>
  <unicode hex="0065"/>
  <outline>
    <contour>
      <point x="92" y="220" type="curve" smooth="yes"/>
      <point x="311" y="220" type="line" smooth="yes"/>
      <point x="345" y="220"/>
      <point x="372" y="233"/>
      <point x="372" y="267" type="curve" smooth="yes"/>
      <point x="372" y="305"/>
      <point x="327" y="364"/>
      <point x="247" y="364" type="curve" smooth="yes"/>
      <point x="160" y="364"/>
      <point x="90" y="297"/>
      <point x="90" y="199" type="curve" smooth="yes"/>
      <point x="90" y="97"/>
      <point x="163" y="44"/>
      <point x="267" y="44" type="curve" smooth="yes"/>
      <point x="302" y="44"/>
      <point x="335" y="51"/>
      <point x="360" y="61" type="curve" smooth="yes"/>
      <point x="366" y="63"/>
      <point x="372" y="60"/>
      <point x="374" y="55" type="curve" smooth="yes"/>
      <point x="376" y="49"/>
      <point x="373" y="43"/>
      <point x="368" y="41" type="curve" smooth="yes"/>
      <point x="341" y="31"/>
      <point x="304" y="22"/>
      <point x="267" y="22" type="curve" smooth="yes"/>
      <point x="149" y="22"/>
      <point x="68" y="85"/>
      <point x="68" y="199" type="curve" smooth="yes"/>
      <point x="68" y="311"/>
      <point x="148" y="386"/>
      <point x="247" y="386" type="curve" smooth="yes"/>
      <point x="345" y="386"/>
      <point x="394" y="311"/>
      <point x="394" y="267" type="curve" smooth="yes"/>
      <point x="394" y="221"/>
      <point x="359" y="198"/>
      <point x="311" y="198" type="curve" smooth="yes"/>
      <point x="92" y="198" type="line" smooth="yes"/>
      <point x="86" y="198"/>
      <point x="81" y="203"/>
      <point x="81" y="209" type="curve" smooth="yes"/>
      <point x="81" y="215"/>
      <point x="86" y="220"/>
    </contour>
  </outline>
</glyph>
<glyph name="f" format="1">
  <advance width="328"/>
  <unicode hex="0066"/>
  <outline>
    <contour>
      <point x="276" y="559" type="curve" smooth="yes"/>
      <point x="181" y="554"/>
      <point x="150" y="513"/>
      <point x="150" y="448" type="curve" smooth="yes"/>
      <point x="150" y="33" type="line" smooth="yes"/>
      <point x="150" y="27"/>
      <point x="145" y="22"/>
      <point x="139" y="22" type="curve" smooth="yes"/>
      <point x="133" y="22"/>
      <point x="128" y="27"/>
      <point x="128" y="33" type="curve" smooth="yes"/>
      <point x="128" y="448" type="line" smooth="yes"/>
      <point x="128" y="523"/>
      <point x="161" y="574"/>
      <point x="274" y="581" type="curve" smooth="yes"/>
      <point x="280" y="581"/>
      <point x="285" y="576"/>
      <point x="286" y="571" type="curve" smooth="yes"/>
      <point x="286" y="565"/>
      <point x="281" y="560"/>
    </contour>
    <contour>
      <point x="51" y="386" type="curve" smooth="yes"/>
      <point x="277" y="386" type="line" smooth="yes"/>
      <point x="283" y="386"/>
      <point x="288" y="381"/>
      <point x="288" y="375" type="curve" smooth="yes"/>
      <point x="288" y="369"/>
      <point x="283" y="364"/>
      <point x="277" y="364" type="curve" smooth="yes"/>
      <point x="51" y="364" type="line" smooth="yes"/>
      <point x="45" y="364"/>
      <point x="40" y="369"/>
      <point x="40" y="375" type="curve" smooth="yes"/>
      <point x="40" y="381"/>
      <point x="45" y="386"/>
    </contour>
  </outline>
</glyph>
<glyph name="g" format="1">
  <advance width="512"/>
  <unicode hex="0067"/>
  <outline>
    <contour>
      <point x="392" y="329" type="curve" smooth="yes"/>
      <point x="342" y="353"/>
      <point x="308" y="364"/>
      <point x="254" y="364" type="curve" smooth="yes"/>
      <point x="170" y="364"/>
      <point x="89" y="298"/>
      <point x="89" y="195" type="curve" smooth="yes"/>
      <point x="89" y="98"/>
      <point x="154" y="56"/>
      <point x="220" y="56" type="curve" smooth="yes"/>
      <point x="283" y="56"/>
      <point x="345" y="91"/>
      <point x="387" y="158" type="curve" smooth="yes"/>
      <point x="390" y="162"/>
      <point x="397" y="164"/>
      <point x="402" y="161" type="curve" smooth="yes"/>
      <point x="406" y="158"/>
      <point x="408" y="151"/>
      <point x="405" y="146" type="curve" smooth="yes"/>
      <point x="359" y="73"/>
      <point x="289" y="34"/>
      <point x="220" y="34" type="curve" smooth="yes"/>
      <point x="144" y="34"/>
      <point x="67" y="82"/>
      <point x="67" y="195" type="curve" smooth="yes"/>
      <point x="67" y="312"/>
      <point x="160" y="386"/>
      <point x="254" y="386" type="curve" smooth="yes"/>
      <point x="312" y="386"/>
      <point x="348" y="373"/>
      <point x="402" y="347" type="curve" smooth="yes"/>
      <point x="407" y="345"/>
      <point x="409" y="339"/>
      <point x="406" y="333" type="curve" smooth="yes"/>
      <point x="404" y="328"/>
      <point x="398" y="326"/>
    </contour>
    <contour>
      <point x="166" y="-137" type="curve" smooth="yes"/>
      <point x="317" y="-137"/>
      <point x="386" y="-80"/>
      <point x="386" y="49" type="curve" smooth="yes"/>
      <point x="386" y="375" type="line" smooth="yes"/>
      <point x="386" y="381"/>
      <point x="391" y="386"/>
      <point x="397" y="386" type="curve" smooth="yes"/>
      <point x="403" y="386"/>
      <point x="408" y="381"/>
      <point x="408" y="375" type="curve" smooth="yes"/>
      <point x="408" y="49" type="line" smooth="yes"/>
      <point x="408" y="-92"/>
      <point x="335" y="-159"/>
      <point x="166" y="-159" type="curve" smooth="yes"/>
      <point x="160" y="-159"/>
      <point x="155" y="-154"/>
      <point x="155" y="-148" type="curve" smooth="yes"/>
      <point x="155" y="-142"/>
      <point x="160" y="-137"/>
    </contour>
  </outline>
</glyph>
<glyph name="i" format="1">
  <advance width="217"/>
  <unicode hex="0069"/>
  <outline>
    <contour>
      <point x="109" y="594" type="curve" smooth="yes"/>
      <point x="124" y="594"/>
      <point x="137" y="578"/>
      <point x="137" y="557" type="curve" smooth="yes"/>
      <point x="137" y="536"/>
      <point x="125" y="522"/>
      <point x="109" y="522" type="curve" smooth="yes"/>
      <point x="92" y="522"/>
      <point x="79" y="537"/>
      <point x="79" y="557" type="curve" smooth="yes"/>
      <point x="79" y="577"/>
      <point x="92" y="594"/>
    </contour>
    <contour>
      <point x="97" y="33" type="curve" smooth="yes"/>
      <point x="97" y="375" type="line" smooth="yes"/>
      <point x="97" y="381"/>
      <point x="102" y="386"/>
      <point x="108" y="386" type="curve" smooth="yes"/>
      <point x="114" y="386"/>
      <point x="119" y="381"/>
      <point x="119" y="375" type="curve" smooth="yes"/>
      <point x="119" y="33" type="line" smooth="yes"/>
      <point x="119" y="27"/>
      <point x="114" y="22"/>
      <point x="108" y="22" type="curve" smooth="yes"/>
      <point x="102" y="22"/>
      <point x="97" y="27"/>
    </contour>
    <contour>
      <point x="109" y="572" type="curve" smooth="yes"/>
      <point x="102" y="572"/>
      <point x="101" y="563"/>
      <point x="101" y="557" type="curve" smooth="yes"/>
      <point x="101" y="551"/>
      <point x="102" y="544"/>
      <point x="109" y="544" type="curve" smooth="yes"/>
      <point x="115" y="544"/>
      <point x="115" y="552"/>
      <point x="115" y="557" type="curve" smooth="yes"/>
      <point x="115" y="562"/>
      <point x="116" y="572"/>
    </contour>
  </outline>
</glyph>
<glyph name="j" format="1">
  <advance width="220"/>
  <unicode hex="006A"/>
  <outline>
    <contour>
      <point x="112" y="594" type="curve" smooth="yes"/>
      <point x="127" y="594"/>
      <point x="140" y="578"/>
      <point x="140" y="557" type="curve" smooth="yes"/>
      <point x="140" y="536"/>
      <point x="128" y="522"/>
      <point x="112" y="522" type="curve" smooth="yes"/>
      <point x="95" y="522"/>
      <point x="82" y="537"/>
      <point x="82" y="557" type="curve" smooth="yes"/>
      <point x="82" y="577"/>
      <point x="95" y="594"/>
    </contour>
    <contour>
      <point x="-3" y="-115" type="curve" smooth="yes"/>
      <point x="63" y="-90"/>
      <point x="100" y="-41"/>
      <point x="100" y="52" type="curve" smooth="yes"/>
      <point x="100" y="375" type="line" smooth="yes"/>
      <point x="100" y="381"/>
      <point x="105" y="386"/>
      <point x="111" y="386" type="curve" smooth="yes"/>
      <point x="117" y="386"/>
      <point x="122" y="381"/>
      <point x="122" y="375" type="curve" smooth="yes"/>
      <point x="122" y="52" type="line" smooth="yes"/>
      <point x="122" y="-53"/>
      <point x="79" y="-106"/>
      <point x="5" y="-135" type="curve" smooth="yes"/>
      <point x="-1" y="-137"/>
      <point x="-7" y="-134"/>
      <point x="-9" y="-129" type="curve" smooth="yes"/>
      <point x="-11" y="-123"/>
      <point x="-8" y="-117"/>
    </contour>
    <contour>
      <point x="112" y="572" type="curve" smooth="yes"/>
      <point x="105" y="572"/>
      <point x="104" y="563"/>
      <point x="104" y="557" type="curve" smooth="yes"/>
      <point x="104" y="551"/>
      <point x="105" y="544"/>
      <point x="112" y="544" type="curve" smooth="yes"/>
      <point x="118" y="544"/>
      <point x="118" y="552"/>
      <point x="118" y="557" type="curve" smooth="yes"/>
      <point x="118" y="562"/>
      <point x="119" y="572"/>
    </contour>
  </outline>
</glyph>
<glyph name="k" format="1">
  <advance width="483"/>
  <unicode hex="006B"/>
  <outline>
    <contour>
      <point x="104" y="33" type="curve" smooth="yes"/>
      <point x="104" y="544" type="line" smooth="yes"/>
      <point x="104" y="550"/>
      <point x="109" y="555"/>
      <point x="115" y="555" type="curve" smooth="yes"/>
      <point x="121" y="555"/>
      <point x="126" y="550"/>
      <point x="126" y="544" type="curve" smooth="yes"/>
      <point x="126" y="33" type="line" smooth="yes"/>
      <point x="126" y="27"/>
      <point x="121" y="22"/>
      <point x="115" y="22" type="curve" smooth="yes"/>
      <point x="109" y="22"/>
      <point x="104" y="27"/>
    </contour>
    <contour>
      <point x="248" y="265" type="curve" smooth="yes"/>
      <point x="409" y="39" type="line" smooth="yes"/>
      <point x="412" y="34"/>
      <point x="411" y="28"/>
      <point x="406" y="24" type="curve" smooth="yes"/>
      <point x="401" y="21"/>
      <point x="395" y="22"/>
      <point x="391" y="27" type="curve" smooth="yes"/>
      <point x="230" y="253" type="line" smooth="yes"/>
      <point x="227" y="258"/>
      <point x="228" y="264"/>
      <point x="233" y="268" type="curve" smooth="yes"/>
      <point x="238" y="271"/>
      <point x="244" y="270"/>
    </contour>
    <contour>
      <point x="394" y="367" type="curve" smooth="yes"/>
      <point x="124" y="155" type="line" smooth="yes"/>
      <point x="119" y="151"/>
      <point x="112" y="152"/>
      <point x="109" y="156" type="curve" smooth="yes"/>
      <point x="105" y="161"/>
      <point x="106" y="168"/>
      <point x="110" y="171" type="curve" smooth="yes"/>
      <point x="380" y="383" type="line" smooth="yes"/>
      <point x="385" y="387"/>
      <point x="392" y="386"/>
      <point x="395" y="382" type="curve" smooth="yes"/>
      <point x="399" y="377"/>
      <point x="398" y="370"/>
    </contour>
  </outline>
</glyph>
<glyph name="l" format="1">
  <advance width="242"/>
  <unicode hex="006C"/>
  <outline>
    <contour>
      <point x="110" y="33" type="curve" smooth="yes"/>
      <point x="110" y="544" type="line" smooth="yes"/>
      <point x="110" y="550"/>
      <point x="115" y="555"/>
      <point x="121" y="555" type="curve" smooth="yes"/>
      <point x="127" y="555"/>
      <point x="132" y="550"/>
      <point x="132" y="544" type="curve" smooth="yes"/>
      <point x="132" y="33" type="line" smooth="yes"/>
      <point x="132" y="27"/>
      <point x="127" y="22"/>
      <point x="121" y="22" type="curve" smooth="yes"/>
      <point x="115" y="22"/>
      <point x="110" y="27"/>
    </contour>
  </outline>
</glyph>
<glyph name="m" format="1">
  <advance width="762"/>
  <unicode hex="006D"/>
  <outline>
    <contour>
      <point x="104" y="33" type="curve" smooth="yes"/>
      <point x="104" y="375" type="line" smooth="yes"/>
      <point x="104" y="381"/>
      <point x="109" y="386"/>
      <point x="115" y="386" type="curve" smooth="yes"/>
      <point x="121" y="386"/>
      <point x="126" y="381"/>
      <point x="126" y="375" type="curve" smooth="yes"/>
      <point x="126" y="33" type="line" smooth="yes"/>
      <point x="126" y="27"/>
      <point x="121" y="22"/>
      <point x="115" y="22" type="curve" smooth="yes"/>
      <point x="109" y="22"/>
      <point x="104" y="27"/>
    </contour>
    <contour>
      <point x="376" y="33" type="curve" smooth="yes"/>
      <point x="376" y="243" type="line" smooth="yes"/>
      <point x="376" y="336"/>
      <point x="334" y="364"/>
      <point x="278" y="364" type="curve" smooth="yes"/>
      <point x="224" y="364"/>
      <point x="167" y="326"/>
      <point x="125" y="279" type="curve" smooth="yes"/>
      <point x="121" y="275"/>
      <point x="114" y="274"/>
      <point x="110" y="278" type="curve" smooth="yes"/>
      <point x="106" y="282"/>
      <point x="105" y="289"/>
      <point x="109" y="293" type="curve" smooth="yes"/>
      <point x="155" y="344"/>
      <point x="218" y="386"/>
      <point x="278" y="386" type="curve" smooth="yes"/>
      <point x="344" y="386"/>
      <point x="398" y="356"/>
      <point x="398" y="243" type="curve" smooth="yes"/>
      <point x="398" y="33" type="line" smooth="yes"/>
      <point x="398" y="27"/>
      <point x="393" y="22"/>
      <point x="387" y="22" type="curve" smooth="yes"/>
      <point x="381" y="22"/>
      <point x="376" y="27"/>
    </contour>
    <contour>
      <point x="646" y="33" type="curve" smooth="yes"/>
      <point x="646" y="243" type="line" smooth="yes"/>
      <point x="646" y="336"/>
      <point x="604" y="364"/>
      <point x="548" y="364" type="curve" smooth="yes"/>
      <point x="494" y="364"/>
      <point x="438" y="326"/>
      <point x="395" y="279" type="curve" smooth="yes"/>
      <point x="391" y="275"/>
      <point x="384" y="274"/>
      <point x="380" y="278" type="curve" smooth="yes"/>
      <point x="376" y="282"/>
      <point x="375" y="289"/>
      <point x="379" y="293" type="curve" smooth="yes"/>
      <point x="426" y="344"/>
      <point x="488" y="386"/>
      <point x="548" y="386" type="curve" smooth="yes"/>
      <point x="614" y="386"/>
      <point x="668" y="356"/>
      <point x="668" y="243" type="curve" smooth="yes"/>
      <point x="668" y="33" type="line" smooth="yes"/>
      <point x="668" y="27"/>
      <point x="663" y="22"/>
      <point x="657" y="22" type="curve" smooth="yes"/>
      <point x="651" y="22"/>
      <point x="646" y="27"/>
    </contour>
  </outline>
</glyph>
<glyph name="n" format="1">
  <advance width="507"/>
  <unicode hex="006E"/>
  <outline>
    <contour>
      <point x="104" y="33" type="curve" smooth="yes"/>
      <point x="104" y="375" type="line" smooth="yes"/>
      <point x="104" y="381"/>
      <point x="109" y="386"/>
      <point x="115" y="386" type="curve" smooth="yes"/>
      <point x="121" y="386"/>
      <point x="126" y="381"/>
      <point x="126" y="375" type="curve" smooth="yes"/>
      <point x="126" y="33" type="line" smooth="yes"/>
      <point x="126" y="27"/>
      <point x="121" y="22"/>
      <point x="115" y="22" type="curve" smooth="yes"/>
      <point x="109" y="22"/>
      <point x="104" y="27"/>
    </contour>
    <contour>
      <point x="391" y="33" type="curve" smooth="yes"/>
      <point x="391" y="233" type="line" smooth="yes"/>
      <point x="391" y="328"/>
      <point x="349" y="364"/>
      <point x="290" y="364" type="curve" smooth="yes"/>
      <point x="230" y="364"/>
      <point x="172" y="326"/>
      <point x="126" y="281" type="curve" smooth="yes"/>
      <point x="122" y="277"/>
      <point x="116" y="277"/>
      <point x="112" y="281" type="curve" smooth="yes"/>
      <point x="108" y="285"/>
      <point x="108" y="291"/>
      <point x="112" y="295" type="curve" smooth="yes"/>
      <point x="162" y="346"/>
      <point x="224" y="386"/>
      <point x="290" y="386" type="curve" smooth="yes"/>
      <point x="359" y="386"/>
      <point x="413" y="348"/>
      <point x="413" y="233" type="curve" smooth="yes"/>
      <point x="413" y="33" type="line" smooth="yes"/>
      <point x="413" y="27"/>
      <point x="408" y="22"/>
      <point x="402" y="22" type="curve" smooth="yes"/>
      <point x="396" y="22"/>
      <point x="391" y="27"/>
    </contour>
  </outline>
</glyph>
<glyph name="o" format="1">
  <advance width="504"/>
  <unicode hex="006F"/>
  <outline>
    <contour>
      <point x="252" y="390" type="curve" smooth="yes"/>
      <point x="365" y="390"/>
      <point x="437" y="304"/>
      <point x="437" y="199" type="curve" smooth="yes"/>
      <point x="437" y="97"/>
      <point x="365" y="18"/>
      <point x="252" y="18" type="curve" smooth="yes"/>
      <point x="140" y="18"/>
      <point x="67" y="98"/>
      <point x="67" y="201" type="curve" smooth="yes"/>
      <point x="67" y="304"/>
      <point x="138" y="390"/>
    </contour>
    <contour>
      <point x="252" y="368" type="curve" smooth="yes"/>
      <point x="150" y="368"/>
      <point x="89" y="292"/>
      <point x="89" y="201" type="curve" smooth="yes"/>
      <point x="89" y="110"/>
      <point x="152" y="40"/>
      <point x="252" y="40" type="curve" smooth="yes"/>
      <point x="351" y="40"/>
      <point x="415" y="109"/>
      <point x="415" y="199" type="curve" smooth="yes"/>
      <point x="415" y="292"/>
      <point x="353" y="368"/>
    </contour>
  </outline>
</glyph>
<glyph name="p" format="1">
  <advance width="513"/>
  <unicode hex="0070"/>
  <outline>
    <contour>
      <point x="104" y="-158" type="curve" smooth="yes"/>
      <point x="104" y="375" type="line" smooth="yes"/>
      <point x="104" y="381"/>
      <point x="109" y="386"/>
      <point x="115" y="386" type="curve" smooth="yes"/>
      <point x="121" y="386"/>
      <point x="126" y="381"/>
      <point x="126" y="375" type="curve" smooth="yes"/>
      <point x="126" y="-158" type="line" smooth="yes"/>
      <point x="126" y="-164"/>
      <point x="121" y="-169"/>
      <point x="115" y="-169" type="curve" smooth="yes"/>
      <point x="109" y="-169"/>
      <point x="104" y="-164"/>
    </contour>
    <contour>
      <point x="122" y="105" type="curve" smooth="yes"/>
      <point x="166" y="69"/>
      <point x="218" y="44"/>
      <point x="270" y="44" type="curve" smooth="yes"/>
      <point x="362" y="44"/>
      <point x="424" y="113"/>
      <point x="424" y="204" type="curve" smooth="yes"/>
      <point x="424" y="307"/>
      <point x="358" y="364"/>
      <point x="282" y="364" type="curve" smooth="yes"/>
      <point x="220" y="364"/>
      <point x="167" y="323"/>
      <point x="125" y="262" type="curve" smooth="yes"/>
      <point x="121" y="257"/>
      <point x="115" y="256"/>
      <point x="110" y="259" type="curve" smooth="yes"/>
      <point x="105" y="263"/>
      <point x="104" y="269"/>
      <point x="107" y="274" type="curve" smooth="yes"/>
      <point x="155" y="341"/>
      <point x="214" y="386"/>
      <point x="282" y="386" type="curve" smooth="yes"/>
      <point x="368" y="386"/>
      <point x="446" y="323"/>
      <point x="446" y="204" type="curve" smooth="yes"/>
      <point x="446" y="101"/>
      <point x="374" y="22"/>
      <point x="270" y="22" type="curve" smooth="yes"/>
      <point x="214" y="22"/>
      <point x="156" y="49"/>
      <point x="108" y="89" type="curve" smooth="yes"/>
      <point x="104" y="93"/>
      <point x="103" y="99"/>
      <point x="107" y="104" type="curve" smooth="yes"/>
      <point x="111" y="108"/>
      <point x="117" y="109"/>
    </contour>
  </outline>
</glyph>
<glyph name="q" format="1">
  <advance width="513"/>
  <unicode hex="0071"/>
  <outline>
    <contour>
      <point x="409" y="375" type="curve" smooth="yes"/>
      <point x="409" y="-158" type="line" smooth="yes"/>
      <point x="409" y="-164"/>
      <point x="404" y="-169"/>
      <point x="398" y="-169" type="curve" smooth="yes"/>
      <point x="392" y="-169"/>
      <point x="387" y="-164"/>
      <point x="387" y="-158" type="curve" smooth="yes"/>
      <point x="387" y="375" type="line" smooth="yes"/>
      <point x="387" y="381"/>
      <point x="392" y="386"/>
      <point x="398" y="386" type="curve" smooth="yes"/>
      <point x="404" y="386"/>
      <point x="409" y="381"/>
    </contour>
    <contour>
      <point x="392" y="325" type="curve" smooth="yes"/>
      <point x="353" y="350"/>
      <point x="310" y="364"/>
      <point x="254" y="364" type="curve" smooth="yes"/>
      <point x="164" y="364"/>
      <point x="88" y="298"/>
      <point x="88" y="189" type="curve" smooth="yes"/>
      <point x="88" y="98"/>
      <point x="154" y="44"/>
      <point x="225" y="44" type="curve" smooth="yes"/>
      <point x="286" y="44"/>
      <point x="345" y="77"/>
      <point x="388" y="147" type="curve" smooth="yes"/>
      <point x="391" y="151"/>
      <point x="398" y="153"/>
      <point x="403" y="150" type="curve" smooth="yes"/>
      <point x="407" y="147"/>
      <point x="409" y="140"/>
      <point x="406" y="135" type="curve" smooth="yes"/>
      <point x="359" y="59"/>
      <point x="292" y="22"/>
      <point x="225" y="22" type="curve" smooth="yes"/>
      <point x="144" y="22"/>
      <point x="66" y="84"/>
      <point x="66" y="189" type="curve" smooth="yes"/>
      <point x="66" y="312"/>
      <point x="154" y="386"/>
      <point x="254" y="386" type="curve" smooth="yes"/>
      <point x="314" y="386"/>
      <point x="361" y="370"/>
      <point x="404" y="343" type="curve" smooth="yes"/>
      <point x="408" y="340"/>
      <point x="410" y="333"/>
      <point x="407" y="328" type="curve" smooth="yes"/>
      <point x="404" y="324"/>
      <point x="397" y="322"/>
    </contour>
  </outline>
</glyph>
<glyph name="r" format="1">
  <advance width="358"/>
  <unicode hex="0072"/>
  <outline>
    <contour>
      <point x="104" y="33" type="curve" smooth="yes"/>
      <point x="104" y="375" type="line" smooth="yes"/>
      <point x="104" y="381"/>
      <point x="109" y="386"/>
      <point x="115" y="386" type="curve" smooth="yes"/>
      <point x="121" y="386"/>
      <point x="126" y="381"/>
      <point x="126" y="375" type="curve" smooth="yes"/>
      <point x="126" y="33" type="line" smooth="yes"/>
      <point x="126" y="27"/>
      <point x="121" y="22"/>
      <point x="115" y="22" type="curve" smooth="yes"/>
      <point x="109" y="22"/>
      <point x="104" y="27"/>
    </contour>
    <contour>
      <point x="107" y="250" type="curve" smooth="yes"/>
      <point x="156" y="326"/>
      <point x="214" y="374"/>
      <point x="306" y="385" type="curve" smooth="yes"/>
      <point x="311" y="386"/>
      <point x="317" y="382"/>
      <point x="317" y="376" type="curve" smooth="yes"/>
      <point x="318" y="371"/>
      <point x="314" y="365"/>
      <point x="308" y="365" type="curve" smooth="yes"/>
      <point x="224" y="354"/>
      <point x="170" y="308"/>
      <point x="125" y="238" type="curve" smooth="yes"/>
      <point x="122" y="234"/>
      <point x="115" y="232"/>
      <point x="110" y="235" type="curve" smooth="yes"/>
      <point x="106" y="238"/>
      <point x="104" y="245"/>
    </contour>
  </outline>
</glyph>
<glyph name="s" format="1">
  <advance width="462"/>
  <unicode hex="0073"/>
  <outline>
    <contour>
      <point x="340" y="350" type="curve" smooth="yes"/>
      <point x="312" y="358"/>
      <point x="275" y="364"/>
      <point x="234" y="364" type="curve" smooth="yes"/>
      <point x="153" y="364"/>
      <point x="117" y="331"/>
      <point x="117" y="293" type="curve" smooth="yes"/>
      <point x="117" y="259"/>
      <point x="149" y="232"/>
      <point x="227" y="224" type="curve" smooth="yes"/>
      <point x="267" y="220" type="line" smooth="yes"/>
      <point x="354" y="212"/>
      <point x="387" y="167"/>
      <point x="387" y="119" type="curve" smooth="yes"/>
      <point x="387" y="69"/>
      <point x="351" y="18"/>
      <point x="240" y="18" type="curve" smooth="yes"/>
      <point x="192" y="18"/>
      <point x="141" y="28"/>
      <point x="96" y="47" type="curve" smooth="yes"/>
      <point x="91" y="50"/>
      <point x="88" y="56"/>
      <point x="90" y="61" type="curve" smooth="yes"/>
      <point x="93" y="66"/>
      <point x="99" y="69"/>
      <point x="104" y="67" type="curve" smooth="yes"/>
      <point x="147" y="48"/>
      <point x="194" y="40"/>
      <point x="240" y="40" type="curve" smooth="yes"/>
      <point x="327" y="40"/>
      <point x="365" y="77"/>
      <point x="365" y="119" type="curve" smooth="yes"/>
      <point x="365" y="159"/>
      <point x="334" y="192"/>
      <point x="265" y="200" type="curve" smooth="yes"/>
      <point x="225" y="204" type="line" smooth="yes"/>
      <point x="123" y="214"/>
      <point x="95" y="253"/>
      <point x="95" y="293" type="curve" smooth="yes"/>
      <point x="95" y="337"/>
      <point x="129" y="386"/>
      <point x="234" y="386" type="curve" smooth="yes"/>
      <point x="277" y="386"/>
      <point x="316" y="378"/>
      <point x="346" y="370" type="curve" smooth="yes"/>
      <point x="351" y="369"/>
      <point x="355" y="363"/>
      <point x="353" y="357" type="curve" smooth="yes"/>
      <point x="352" y="352"/>
      <point x="346" y="348"/>
    </contour>
  </outline>
</glyph>
<glyph name="t" format="1">
  <advance width="364"/>
  <unicode hex="0074"/>
  <outline>
    <contour>
      <point x="150" y="501" type="curve" smooth="yes"/>
      <point x="150" y="150" type="line" smooth="yes"/>
      <point x="150" y="81"/>
      <point x="192" y="45"/>
      <point x="284" y="44" type="curve" smooth="yes"/>
      <point x="290" y="43"/>
      <point x="295" y="38"/>
      <point x="295" y="33" type="curve" smooth="yes"/>
      <point x="294" y="27"/>
      <point x="289" y="22"/>
      <point x="284" y="22" type="curve" smooth="yes"/>
      <point x="174" y="25"/>
      <point x="128" y="71"/>
      <point x="128" y="150" type="curve" smooth="yes"/>
      <point x="128" y="501" type="line" smooth="yes"/>
      <point x="128" y="507"/>
      <point x="133" y="512"/>
      <point x="139" y="512" type="curve" smooth="yes"/>
      <point x="145" y="512"/>
      <point x="150" y="507"/>
    </contour>
    <contour>
      <point x="51" y="386" type="curve" smooth="yes"/>
      <point x="297" y="386" type="line" smooth="yes"/>
      <point x="303" y="386"/>
      <point x="308" y="381"/>
      <point x="308" y="375" type="curve" smooth="yes"/>
      <point x="308" y="369"/>
      <point x="303" y="364"/>
      <point x="297" y="364" type="curve" smooth="yes"/>
      <point x="51" y="364" type="line" smooth="yes"/>
      <point x="45" y="364"/>
      <point x="40" y="369"/>
      <point x="40" y="375" type="curve" smooth="yes"/>
      <point x="40" y="381"/>
      <point x="45" y="386"/>
    </contour>
  </outline>
</glyph>
<glyph name="u" format="1">
  <advance width="507"/>
  <unicode hex="0075"/>
  <outline>
    <contour>
      <point x="403" y="375" type="curve" smooth="yes"/>
      <point x="403" y="33" type="line" smooth="yes"/>
      <point x="403" y="27"/>
      <point x="398" y="22"/>
      <point x="392" y="22" type="curve" smooth="yes"/>
      <point x="386" y="22"/>
      <point x="381" y="27"/>
      <point x="381" y="33" type="curve" smooth="yes"/>
      <point x="381" y="375" type="line" smooth="yes"/>
      <point x="381" y="381"/>
      <point x="386" y="386"/>
      <point x="392" y="386" type="curve" smooth="yes"/>
      <point x="398" y="386"/>
      <point x="403" y="381"/>
    </contour>
    <contour>
      <point x="116" y="375" type="curve" smooth="yes"/>
      <point x="116" y="175" type="line" smooth="yes"/>
      <point x="116" y="80"/>
      <point x="158" y="44"/>
      <point x="217" y="44" type="curve" smooth="yes"/>
      <point x="277" y="44"/>
      <point x="340" y="91"/>
      <point x="379" y="146" type="curve" smooth="yes"/>
      <point x="383" y="151"/>
      <point x="390" y="152"/>
      <point x="394" y="149" type="curve" smooth="yes"/>
      <point x="399" y="145"/>
      <point x="400" y="138"/>
      <point x="397" y="134" type="curve" smooth="yes"/>
      <point x="352" y="73"/>
      <point x="283" y="22"/>
      <point x="217" y="22" type="curve" smooth="yes"/>
      <point x="148" y="22"/>
      <point x="94" y="60"/>
      <point x="94" y="175" type="curve" smooth="yes"/>
      <point x="94" y="375" type="line" smooth="yes"/>
      <point x="94" y="381"/>
      <point x="99" y="386"/>
      <point x="105" y="386" type="curve" smooth="yes"/>
      <point x="111" y="386"/>
      <point x="116" y="381"/>
    </contour>
  </outline>
</glyph>
<glyph name="v" format="1">
  <advance width="461"/>
  <unicode hex="0076"/>
  <outline>
    <contour>
      <point x="78" y="379" type="curve" smooth="yes"/>
      <point x="137" y="227"/>
      <point x="190" y="120"/>
      <point x="243" y="35" type="curve"/>
      <point x="234" y="40" type="line"/>
      <point x="237" y="40" type="line"/>
      <point x="228" y="34" type="line"/>
      <point x="280" y="120"/>
      <point x="344" y="269"/>
      <point x="384" y="379" type="curve" smooth="yes"/>
      <point x="386" y="384"/>
      <point x="392" y="387"/>
      <point x="398" y="385" type="curve" smooth="yes"/>
      <point x="403" y="383"/>
      <point x="406" y="377"/>
      <point x="404" y="371" type="curve" smooth="yes"/>
      <point x="364" y="261"/>
      <point x="298" y="110"/>
      <point x="246" y="24" type="curve" smooth="yes"/>
      <point x="244" y="21"/>
      <point x="240" y="18"/>
      <point x="237" y="18" type="curve" smooth="yes"/>
      <point x="234" y="18" type="line" smooth="yes"/>
      <point x="231" y="18"/>
      <point x="227" y="21"/>
      <point x="225" y="23" type="curve" smooth="yes"/>
      <point x="172" y="110"/>
      <point x="117" y="217"/>
      <point x="58" y="371" type="curve" smooth="yes"/>
      <point x="56" y="377"/>
      <point x="59" y="383"/>
      <point x="64" y="385" type="curve" smooth="yes"/>
      <point x="70" y="387"/>
      <point x="76" y="384"/>
    </contour>
  </outline>
</glyph>
<glyph name="w" format="1">
  <advance width="709"/>
  <unicode hex="0077"/>
  <outline>
    <contour>
      <point x="88" y="377" type="curve" smooth="yes"/>
      <point x="125" y="244"/>
      <point x="173" y="120"/>
      <point x="214" y="35" type="curve"/>
      <point x="204" y="41" type="line"/>
      <point x="206" y="41" type="line"/>
      <point x="197" y="35" type="line"/>
      <point x="239" y="120"/>
      <point x="307" y="259"/>
      <point x="341" y="367" type="curve" smooth="yes"/>
      <point x="343" y="373"/>
      <point x="349" y="376"/>
      <point x="354" y="374" type="curve" smooth="yes"/>
      <point x="360" y="372"/>
      <point x="363" y="366"/>
      <point x="361" y="361" type="curve" smooth="yes"/>
      <point x="327" y="251"/>
      <point x="259" y="112"/>
      <point x="215" y="25" type="curve" smooth="yes"/>
      <point x="214" y="22"/>
      <point x="210" y="19"/>
      <point x="206" y="19" type="curve" smooth="yes"/>
      <point x="204" y="19" type="line" smooth="yes"/>
      <point x="200" y="19"/>
      <point x="196" y="22"/>
      <point x="194" y="25" type="curve" smooth="yes"/>
      <point x="153" y="112"/>
      <point x="105" y="238"/>
      <point x="68" y="371" type="curve" smooth="yes"/>
      <point x="66" y="377"/>
      <point x="70" y="383"/>
      <point x="75" y="384" type="curve" smooth="yes"/>
      <point x="81" y="386"/>
      <point x="87" y="382"/>
    </contour>
    <contour>
      <point x="368" y="368" type="curve" smooth="yes"/>
      <point x="415" y="235"/>
      <point x="467" y="120"/>
      <point x="513" y="34" type="curve"/>
      <point x="504" y="40" type="line"/>
      <point x="506" y="40" type="line"/>
      <point x="496" y="33" type="line"/>
      <point x="535" y="119"/>
      <point x="589" y="256"/>
      <point x="622" y="376" type="curve" smooth="yes"/>
      <point x="623" y="381"/>
      <point x="629" y="385"/>
      <point x="635" y="383" type="curve" smooth="yes"/>
      <point x="640" y="382"/>
      <point x="644" y="376"/>
      <point x="642" y="370" type="curve" smooth="yes"/>
      <point x="609" y="250"/>
      <point x="555" y="111"/>
      <point x="516" y="25" type="curve" smooth="yes"/>
      <point x="514" y="21"/>
      <point x="510" y="18"/>
      <point x="506" y="18" type="curve" smooth="yes"/>
      <point x="504" y="18" type="line" smooth="yes"/>
      <point x="501" y="18"/>
      <point x="496" y="21"/>
      <point x="495" y="24" type="curve" smooth="yes"/>
      <point x="449" y="110"/>
      <point x="395" y="227"/>
      <point x="348" y="360" type="curve" smooth="yes"/>
      <point x="346" y="366"/>
      <point x="349" y="372"/>
      <point x="354" y="374" type="curve" smooth="yes"/>
      <point x="360" y="376"/>
      <point x="366" y="373"/>
    </contour>
  </outline>
</glyph>
<glyph name="x" format="1">
  <advance width="457"/>
  <unicode hex="0078"/>
  <outline>
    <contour>
      <point x="60" y="40" type="curve" smooth="yes"/>
      <point x="125" y="114"/>
      <point x="283" y="284"/>
      <point x="361" y="382" type="curve" smooth="yes"/>
      <point x="364" y="386"/>
      <point x="371" y="387"/>
      <point x="376" y="383" type="curve" smooth="yes"/>
      <point x="380" y="380"/>
      <point x="381" y="373"/>
      <point x="377" y="368" type="curve" smooth="yes"/>
      <point x="299" y="270"/>
      <point x="141" y="100"/>
      <point x="76" y="26" type="curve" smooth="yes"/>
      <point x="72" y="22"/>
      <point x="65" y="21"/>
      <point x="61" y="25" type="curve" smooth="yes"/>
      <point x="57" y="29"/>
      <point x="56" y="36"/>
    </contour>
    <contour>
      <point x="89" y="382" type="curve" smooth="yes"/>
      <point x="167" y="290"/>
      <point x="307" y="143"/>
      <point x="397" y="40" type="curve" smooth="yes"/>
      <point x="401" y="36"/>
      <point x="400" y="29"/>
      <point x="396" y="25" type="curve" smooth="yes"/>
      <point x="392" y="21"/>
      <point x="385" y="22"/>
      <point x="381" y="26" type="curve" smooth="yes"/>
      <point x="291" y="129"/>
      <point x="151" y="276"/>
      <point x="73" y="368" type="curve" smooth="yes"/>
      <point x="69" y="373"/>
      <point x="70" y="379"/>
      <point x="74" y="383" type="curve" smooth="yes"/>
      <point x="79" y="387"/>
      <point x="85" y="386"/>
    </contour>
  </outline>
</glyph>
<glyph name="y" format="1">
  <advance width="460"/>
  <unicode hex="0079"/>
  <outline>
    <contour>
      <point x="63" y="-132" type="curve" smooth="yes"/>
      <point x="124" y="-97"/>
      <point x="180" y="-54"/>
      <point x="235" y="39" type="curve" smooth="yes"/>
      <point x="288" y="129"/>
      <point x="347" y="266"/>
      <point x="381" y="378" type="curve" smooth="yes"/>
      <point x="383" y="383"/>
      <point x="389" y="387"/>
      <point x="394" y="385" type="curve" smooth="yes"/>
      <point x="399" y="383"/>
      <point x="403" y="377"/>
      <point x="401" y="372" type="curve" smooth="yes"/>
      <point x="367" y="258"/>
      <point x="306" y="119"/>
      <point x="253" y="29" type="curve" smooth="yes"/>
      <point x="196" y="-68"/>
      <point x="138" y="-113"/>
      <point x="73" y="-150" type="curve" smooth="yes"/>
      <point x="68" y="-153"/>
      <point x="62" y="-151"/>
      <point x="59" y="-146" type="curve" smooth="yes"/>
      <point x="56" y="-141"/>
      <point x="58" y="-135"/>
    </contour>
    <contour>
      <point x="80" y="380" type="curve" smooth="yes"/>
      <point x="134" y="227"/>
      <point x="199" y="118"/>
      <point x="250" y="40" type="curve" smooth="yes"/>
      <point x="253" y="35"/>
      <point x="251" y="28"/>
      <point x="247" y="25" type="curve" smooth="yes"/>
      <point x="242" y="22"/>
      <point x="235" y="24"/>
      <point x="232" y="28" type="curve" smooth="yes"/>
      <point x="181" y="108"/>
      <point x="114" y="219"/>
      <point x="60" y="372" type="curve" smooth="yes"/>
      <point x="58" y="378"/>
      <point x="61" y="384"/>
      <point x="66" y="386" type="curve" smooth="yes"/>
      <point x="72" y="388"/>
      <point x="78" y="385"/>
    </contour>
  </outline>
</glyph>
<glyph name="z" format="1">
  <advance width="454"/>
  <unicode hex="007A"/>
  <outline>
    <contour>
      <point x="360" y="364" type="curve" smooth="yes"/>
      <point x="91" y="364" type="line" smooth="yes"/>
      <point x="85" y="364"/>
      <point x="80" y="369"/>
      <point x="80" y="375" type="curve" smooth="yes"/>
      <point x="80" y="381"/>
      <point x="85" y="386"/>
      <point x="91" y="386" type="curve" smooth="yes"/>
      <point x="360" y="386" type="line" smooth="yes"/>
      <point x="366" y="386"/>
      <point x="371" y="381"/>
      <point x="371" y="375" type="curve" smooth="yes"/>
      <point x="371" y="369"/>
      <point x="366" y="364"/>
    </contour>
    <contour>
      <point x="76" y="44" type="curve" smooth="yes"/>
      <point x="377" y="44" type="line" smooth="yes"/>
      <point x="383" y="44"/>
      <point x="388" y="39"/>
      <point x="388" y="33" type="curve" smooth="yes"/>
      <point x="388" y="27"/>
      <point x="383" y="22"/>
      <point x="377" y="22" type="curve" smooth="yes"/>
      <point x="76" y="22" type="line" smooth="yes"/>
      <point x="70" y="22"/>
      <point x="65" y="27"/>
      <point x="65" y="33" type="curve" smooth="yes"/>
      <point x="65" y="39"/>
      <point x="70" y="44"/>
    </contour>
    <contour>
      <point x="374" y="368" type="curve" smooth="yes"/>
      <point x="90" y="34" type="line" smooth="yes"/>
      <point x="86" y="30"/>
      <point x="80" y="29"/>
      <point x="75" y="33" type="curve" smooth="yes"/>
      <point x="71" y="37"/>
      <point x="70" y="43"/>
      <point x="74" y="48" type="curve" smooth="yes"/>
      <point x="358" y="382" type="line" smooth="yes"/>
      <point x="362" y="386"/>
      <point x="368" y="387"/>
      <point x="373" y="383" type="curve" smooth="yes"/>
      <point x="377" y="379"/>
      <point x="378" y="373"/>
    </contour>
  </outline>
</glyph>
<glyph name="braceleft" format="1">
  <advance width="325"/>
  <unicode hex="007B"/>
  <outline>
    <contour>
      <point x="278" y="602" type="curve" smooth="yes"/>
      <point x="258" y="602" type="line" smooth="yes"/>
      <point x="170" y="602"/>
      <point x="111" y="558"/>
      <point x="111" y="505" type="curve" smooth="yes"/>
      <point x="111" y="440"/>
      <point x="178" y="405"/>
      <point x="178" y="347" type="curve" smooth="yes"/>
      <point x="178" y="308"/>
      <point x="145" y="277"/>
      <point x="67" y="266" type="curve"/>
      <point x="76" y="276" type="line"/>
      <point x="76" y="270" type="line"/>
      <point x="67" y="280" type="line"/>
      <point x="145" y="269"/>
      <point x="178" y="238"/>
      <point x="178" y="199" type="curve" smooth="yes"/>
      <point x="178" y="141"/>
      <point x="111" y="106"/>
      <point x="111" y="41" type="curve" smooth="yes"/>
      <point x="111" y="-12"/>
      <point x="170" y="-56"/>
      <point x="258" y="-56" type="curve" smooth="yes"/>
      <point x="278" y="-56" type="line" smooth="yes"/>
      <point x="284" y="-56"/>
      <point x="289" y="-61"/>
      <point x="289" y="-67" type="curve" smooth="yes"/>
      <point x="289" y="-73"/>
      <point x="284" y="-78"/>
      <point x="278" y="-78" type="curve" smooth="yes"/>
      <point x="258" y="-78" type="line" smooth="yes"/>
      <point x="150" y="-78"/>
      <point x="89" y="-20"/>
      <point x="89" y="41" type="curve" smooth="yes"/>
      <point x="89" y="106"/>
      <point x="156" y="141"/>
      <point x="156" y="199" type="curve" smooth="yes"/>
      <point x="156" y="232"/>
      <point x="121" y="251"/>
      <point x="63" y="260" type="curve" smooth="yes"/>
      <point x="58" y="260"/>
      <point x="54" y="265"/>
      <point x="54" y="270" type="curve" smooth="yes"/>
      <point x="54" y="276" type="line" smooth="yes"/>
      <point x="54" y="281"/>
      <point x="58" y="286"/>
      <point x="63" y="286" type="curve" smooth="yes"/>
      <point x="121" y="295"/>
      <point x="156" y="314"/>
      <point x="156" y="347" type="curve" smooth="yes"/>
      <point x="156" y="405"/>
      <point x="89" y="440"/>
      <point x="89" y="505" type="curve" smooth="yes"/>
      <point x="89" y="566"/>
      <point x="150" y="624"/>
      <point x="258" y="624" type="curve" smooth="yes"/>
      <point x="278" y="624" type="line" smooth="yes"/>
      <point x="284" y="624"/>
      <point x="289" y="619"/>
      <point x="289" y="613" type="curve" smooth="yes"/>
      <point x="289" y="607"/>
      <point x="284" y="602"/>
    </contour>
  </outline>
</glyph>
<glyph name="asciitilde" format="1">
  <advance width="565"/>
  <unicode hex="007E"/>
  <outline>
    <contour>
      <point x="98" y="222" type="curve" smooth="yes"/>
      <point x="133" y="293"/>
      <point x="164" y="326"/>
      <point x="206" y="326" type="curve" smooth="yes"/>
      <point x="242" y="326"/>
      <point x="264" y="302"/>
      <point x="293" y="270" type="curve" smooth="yes"/>
      <point x="319" y="240"/>
      <point x="340" y="221"/>
      <point x="368" y="221" type="curve" smooth="yes"/>
      <point x="409" y="221"/>
      <point x="432" y="256"/>
      <point x="465" y="324" type="curve" smooth="yes"/>
      <point x="467" y="329"/>
      <point x="473" y="331"/>
      <point x="479" y="328" type="curve" smooth="yes"/>
      <point x="484" y="326"/>
      <point x="486" y="320"/>
      <point x="483" y="314" type="curve" smooth="yes"/>
      <point x="444" y="234"/>
      <point x="415" y="199"/>
      <point x="368" y="199" type="curve" smooth="yes"/>
      <point x="334" y="199"/>
      <point x="309" y="220"/>
      <point x="277" y="256" type="curve" smooth="yes"/>
      <point x="254" y="282"/>
      <point x="236" y="304"/>
      <point x="206" y="304" type="curve" smooth="yes"/>
      <point x="170" y="304"/>
      <point x="145" y="271"/>
      <point x="116" y="212" type="curve" smooth="yes"/>
      <point x="114" y="207"/>
      <point x="107" y="205"/>
      <point x="102" y="208" type="curve" smooth="yes"/>
      <point x="97" y="210"/>
      <point x="95" y="217"/>
    </contour>
  </outline>
</glyph>
<glyph name="cent" format="1">
  <advance width="443"/>
  <unicode hex="00A2"/>
  <outline>
    <contour>
      <point x="255" y="517" type="curve" smooth="yes"/>
      <point x="255" y="33" type="line" smooth="yes"/>
      <point x="255" y="27"/>
      <point x="250" y="22"/>
      <point x="244" y="22" type="curve" smooth="yes"/>
      <point x="238" y="22"/>
      <point x="233" y="27"/>
      <point x="233" y="33" type="curve" smooth="yes"/>
      <point x="233" y="517" type="line" smooth="yes"/>
      <point x="233" y="523"/>
      <point x="238" y="528"/>
      <point x="244" y="528" type="curve" smooth="yes"/>
      <point x="250" y="528"/>
      <point x="255" y="523"/>
    </contour>
    <contour>
      <point x="351" y="412" type="curve" smooth="yes"/>
      <point x="325" y="420"/>
      <point x="293" y="425"/>
      <point x="265" y="425" type="curve" smooth="yes"/>
      <point x="154" y="425"/>
      <point x="90" y="358"/>
      <point x="90" y="265" type="curve" smooth="yes"/>
      <point x="90" y="183"/>
      <point x="153" y="121"/>
      <point x="264" y="121" type="curve" smooth="yes"/>
      <point x="304" y="121"/>
      <point x="335" y="128"/>
      <point x="362" y="138" type="curve" smooth="yes"/>
      <point x="368" y="140"/>
      <point x="374" y="137"/>
      <point x="376" y="132" type="curve" smooth="yes"/>
      <point x="378" y="126"/>
      <point x="375" y="120"/>
      <point x="370" y="118" type="curve" smooth="yes"/>
      <point x="341" y="108"/>
      <point x="306" y="99"/>
      <point x="264" y="99" type="curve" smooth="yes"/>
      <point x="137" y="99"/>
      <point x="68" y="173"/>
      <point x="68" y="265" type="curve" smooth="yes"/>
      <point x="68" y="370"/>
      <point x="140" y="447"/>
      <point x="265" y="447" type="curve" smooth="yes"/>
      <point x="295" y="447"/>
      <point x="329" y="440"/>
      <point x="357" y="432" type="curve" smooth="yes"/>
      <point x="362" y="430"/>
      <point x="366" y="424"/>
      <point x="364" y="419" type="curve" smooth="yes"/>
      <point x="362" y="414"/>
      <point x="356" y="410"/>
    </contour>
  </outline>
</glyph>
<glyph name="sterling" format="1">
  <advance width="466"/>
  <unicode hex="00A3"/>
  <outline>
    <contour>
      <point x="64" y="50" type="curve" smooth="yes"/>
      <point x="141" y="120" type="line" smooth="yes"/>
      <point x="167" y="144"/>
      <point x="187" y="173"/>
      <point x="187" y="200" type="curve" smooth="yes"/>
      <point x="187" y="224"/>
      <point x="173" y="254"/>
      <point x="151" y="280" type="curve" smooth="yes"/>
      <point x="111" y="328"/>
      <point x="86" y="364"/>
      <point x="86" y="414" type="curve" smooth="yes"/>
      <point x="86" y="476"/>
      <point x="133" y="538"/>
      <point x="219" y="538" type="curve" smooth="yes"/>
      <point x="267" y="538"/>
      <point x="311" y="523"/>
      <point x="348" y="500" type="curve" smooth="yes"/>
      <point x="352" y="497"/>
      <point x="354" y="490"/>
      <point x="351" y="485" type="curve" smooth="yes"/>
      <point x="348" y="481"/>
      <point x="341" y="479"/>
      <point x="336" y="482" type="curve" smooth="yes"/>
      <point x="303" y="503"/>
      <point x="263" y="516"/>
      <point x="219" y="516" type="curve" smooth="yes"/>
      <point x="147" y="516"/>
      <point x="108" y="466"/>
      <point x="108" y="414" type="curve" smooth="yes"/>
      <point x="108" y="368"/>
      <point x="131" y="336"/>
      <point x="167" y="294" type="curve" smooth="yes"/>
      <point x="193" y="264"/>
      <point x="209" y="228"/>
      <point x="209" y="200" type="curve" smooth="yes"/>
      <point x="209" y="169"/>
      <point x="187" y="132"/>
      <point x="155" y="104" type="curve" smooth="yes"/>
      <point x="78" y="34" type="line" smooth="yes"/>
      <point x="74" y="30"/>
      <point x="67" y="31"/>
      <point x="63" y="35" type="curve" smooth="yes"/>
      <point x="59" y="39"/>
      <point x="60" y="46"/>
    </contour>
    <contour>
      <point x="375" y="22" type="curve" smooth="yes"/>
      <point x="61" y="22" type="line" smooth="yes"/>
      <point x="55" y="22"/>
      <point x="50" y="27"/>
      <point x="50" y="33" type="curve" smooth="yes"/>
      <point x="50" y="39"/>
      <point x="55" y="44"/>
      <point x="61" y="44" type="curve" smooth="yes"/>
      <point x="375" y="44" type="line" smooth="yes"/>
      <point x="381" y="44"/>
      <point x="386" y="39"/>
      <point x="386" y="33" type="curve" smooth="yes"/>
      <point x="386" y="27"/>
      <point x="381" y="22"/>
    </contour>
    <contour>
      <point x="67" y="269" type="curve" smooth="yes"/>
      <point x="366" y="269" type="line" smooth="yes"/>
      <point x="372" y="269"/>
      <point x="377" y="264"/>
      <point x="377" y="258" type="curve" smooth="yes"/>
      <point x="377" y="252"/>
      <point x="372" y="247"/>
      <point x="366" y="247" type="curve" smooth="yes"/>
      <point x="67" y="247" type="line" smooth="yes"/>
      <point x="61" y="247"/>
      <point x="56" y="252"/>
      <point x="56" y="258" type="curve" smooth="yes"/>
      <point x="56" y="264"/>
      <point x="61" y="269"/>
    </contour>
  </outline>
</glyph>
<glyph name="currency" format="1">
  <advance width="531.0"/>
  <unicode hex="00A4"/>
  <outline>
    <contour>
      <point x="265" y="407" type="curve" smooth="yes"/>
      <point x="368" y="407"/>
      <point x="434" y="328"/>
      <point x="434" y="232" type="curve" smooth="yes"/>
      <point x="434" y="139"/>
      <point x="368" y="67"/>
      <point x="265" y="67" type="curve" smooth="yes"/>
      <point x="163" y="67"/>
      <point x="96" y="140"/>
      <point x="96" y="234" type="curve" smooth="yes"/>
      <point x="96" y="328"/>
      <point x="161" y="407"/>
    </contour>
    <contour>
      <point x="265" y="385" type="curve" smooth="yes"/>
      <point x="173" y="385"/>
      <point x="118" y="316"/>
      <point x="118" y="234" type="curve" smooth="yes"/>
      <point x="118" y="152"/>
      <point x="175" y="89"/>
      <point x="265" y="89" type="curve" smooth="yes"/>
      <point x="354" y="89"/>
      <point x="412" y="151"/>
      <point x="412" y="232" type="curve" smooth="yes"/>
      <point x="412" y="316"/>
      <point x="356" y="385"/>
    </contour>
    <contour>
      <point x="441" y="27" type="curve" smooth="yes"/>
      <point x="370" y="105" type="line" smooth="yes"/>
      <point x="366" y="109"/>
      <point x="367" y="116"/>
      <point x="371" y="120" type="curve" smooth="yes"/>
      <point x="375" y="124"/>
      <point x="382" y="123"/>
      <point x="386" y="119" type="curve" smooth="yes"/>
      <point x="457" y="41" type="line" smooth="yes"/>
      <point x="461" y="37"/>
      <point x="460" y="30"/>
      <point x="456" y="26" type="curve" smooth="yes"/>
      <point x="452" y="22"/>
      <point x="445" y="23"/>
    </contour>
    <contour>
      <point x="144" y="352" type="curve" smooth="yes"/>
      <point x="79" y="423" type="line" smooth="yes"/>
      <point x="75" y="427"/>
      <point x="76" y="434"/>
      <point x="80" y="438" type="curve" smooth="yes"/>
      <point x="84" y="442"/>
      <point x="91" y="441"/>
      <point x="95" y="437" type="curve" smooth="yes"/>
      <point x="160" y="366" type="line" smooth="yes"/>
      <point x="164" y="362"/>
      <point x="163" y="355"/>
      <point x="159" y="351" type="curve" smooth="yes"/>
      <point x="155" y="347"/>
      <point x="148" y="348"/>
    </contour>
    <contour>
      <point x="370" y="367" type="curve" smooth="yes"/>
      <point x="435" y="439" type="line" smooth="yes"/>
      <point x="439" y="443"/>
      <point x="446" y="444"/>
      <point x="450" y="440" type="curve" smooth="yes"/>
      <point x="454" y="436"/>
      <point x="455" y="429"/>
      <point x="451" y="425" type="curve" smooth="yes"/>
      <point x="386" y="353" type="line" smooth="yes"/>
      <point x="382" y="349"/>
      <point x="375" y="348"/>
      <point x="371" y="352" type="curve" smooth="yes"/>
      <point x="367" y="356"/>
      <point x="366" y="363"/>
    </contour>
    <contour>
      <point x="74" y="41" type="curve" smooth="yes"/>
      <point x="142" y="116" type="line" smooth="yes"/>
      <point x="146" y="120"/>
      <point x="153" y="121"/>
      <point x="157" y="117" type="curve" smooth="yes"/>
      <point x="161" y="113"/>
      <point x="162" y="106"/>
      <point x="158" y="102" type="curve" smooth="yes"/>
      <point x="90" y="27" type="line" smooth="yes"/>
      <point x="86" y="23"/>
      <point x="79" y="22"/>
      <point x="75" y="26" type="curve" smooth="yes"/>
      <point x="71" y="30"/>
      <point x="70" y="37"/>
    </contour>
  </outline>
</glyph>
<glyph name="yen" format="1">
  <advance width="570"/>
  <unicode hex="00A5"/>
  <outline>
    <contour>
      <point x="304" y="275" type="curve" smooth="yes"/>
      <point x="304" y="33" type="line" smooth="yes"/>
      <point x="304" y="27"/>
      <point x="299" y="22"/>
      <point x="293" y="22" type="curve" smooth="yes"/>
      <point x="287" y="22"/>
      <point x="282" y="27"/>
      <point x="282" y="33" type="curve" smooth="yes"/>
      <point x="282" y="275" type="line" smooth="yes"/>
      <point x="282" y="281"/>
      <point x="287" y="286"/>
      <point x="293" y="286" type="curve" smooth="yes"/>
      <point x="299" y="286"/>
      <point x="304" y="281"/>
    </contour>
    <contour>
      <point x="107" y="524" type="curve" smooth="yes"/>
      <point x="155" y="455"/>
      <point x="260" y="335"/>
      <point x="297" y="299" type="curve" smooth="yes"/>
      <point x="301" y="295"/>
      <point x="302" y="288"/>
      <point x="298" y="284" type="curve" smooth="yes"/>
      <point x="294" y="280"/>
      <point x="287" y="279"/>
      <point x="283" y="283" type="curve" smooth="yes"/>
      <point x="244" y="321"/>
      <point x="139" y="441"/>
      <point x="89" y="512" type="curve" smooth="yes"/>
      <point x="86" y="517"/>
      <point x="87" y="523"/>
      <point x="92" y="527" type="curve" smooth="yes"/>
      <point x="97" y="530"/>
      <point x="103" y="529"/>
    </contour>
    <contour>
      <point x="286" y="288" type="curve" smooth="yes"/>
      <point x="335" y="338"/>
      <point x="427" y="456"/>
      <point x="475" y="524" type="curve" smooth="yes"/>
      <point x="479" y="529"/>
      <point x="485" y="530"/>
      <point x="490" y="527" type="curve" smooth="yes"/>
      <point x="495" y="523"/>
      <point x="496" y="517"/>
      <point x="493" y="512" type="curve" smooth="yes"/>
      <point x="443" y="442"/>
      <point x="351" y="324"/>
      <point x="300" y="274" type="curve" smooth="yes"/>
      <point x="296" y="270"/>
      <point x="290" y="270"/>
      <point x="286" y="274" type="curve" smooth="yes"/>
      <point x="282" y="278"/>
      <point x="282" y="284"/>
    </contour>
    <contour>
      <point x="118" y="288" type="curve" smooth="yes"/>
      <point x="466" y="288" type="line" smooth="yes"/>
      <point x="472" y="288"/>
      <point x="477" y="283"/>
      <point x="477" y="277" type="curve" smooth="yes"/>
      <point x="477" y="271"/>
      <point x="472" y="266"/>
      <point x="466" y="266" type="curve" smooth="yes"/>
      <point x="118" y="266" type="line" smooth="yes"/>
      <point x="112" y="266"/>
      <point x="107" y="271"/>
      <point x="107" y="277" type="curve" smooth="yes"/>
      <point x="107" y="283"/>
      <point x="112" y="288"/>
    </contour>
    <contour>
      <point x="118" y="146" type="curve" smooth="yes"/>
      <point x="466" y="146" type="line" smooth="yes"/>
      <point x="472" y="146"/>
      <point x="477" y="141"/>
      <point x="477" y="135" type="curve" smooth="yes"/>
      <point x="477" y="129"/>
      <point x="472" y="124"/>
      <point x="466" y="124" type="curve" smooth="yes"/>
      <point x="118" y="124" type="line" smooth="yes"/>
      <point x="112" y="124"/>
      <point x="107" y="129"/>
      <point x="107" y="135" type="curve" smooth="yes"/>
      <point x="107" y="141"/>
      <point x="112" y="146"/>
    </contour>
  </outline>
</glyph>
<glyph name="section" format="1">
  <advance width="535"/>
  <unicode hex="00A7"/>
  <outline>
    <contour>
      <point x="395" y="490" type="curve" smooth="yes"/>
      <point x="349" y="505"/>
      <point x="316" y="513"/>
      <point x="248" y="513" type="curve" smooth="yes"/>
      <point x="173" y="513"/>
      <point x="123" y="479"/>
      <point x="123" y="438" type="curve" smooth="yes"/>
      <point x="123" y="399"/>
      <point x="149" y="358"/>
      <point x="271" y="340" type="curve" smooth="yes"/>
      <point x="404" y="314"/>
      <point x="443" y="267"/>
      <point x="443" y="211" type="curve" smooth="yes"/>
      <point x="443" y="155"/>
      <point x="395" y="104"/>
      <point x="268" y="104" type="curve" smooth="yes"/>
      <point x="262" y="104"/>
      <point x="257" y="109"/>
      <point x="257" y="115" type="curve" smooth="yes"/>
      <point x="257" y="121"/>
      <point x="262" y="126"/>
      <point x="268" y="126" type="curve" smooth="yes"/>
      <point x="369" y="126"/>
      <point x="421" y="161"/>
      <point x="421" y="211" type="curve" smooth="yes"/>
      <point x="421" y="261"/>
      <point x="378" y="298"/>
      <point x="267" y="320" type="curve" smooth="yes"/>
      <point x="121" y="342"/>
      <point x="101" y="395"/>
      <point x="101" y="438" type="curve" smooth="yes"/>
      <point x="101" y="485"/>
      <point x="153" y="535"/>
      <point x="248" y="535" type="curve" smooth="yes"/>
      <point x="318" y="535"/>
      <point x="353" y="525"/>
      <point x="401" y="510" type="curve" smooth="yes"/>
      <point x="407" y="508"/>
      <point x="410" y="502"/>
      <point x="408" y="497" type="curve" smooth="yes"/>
      <point x="406" y="491"/>
      <point x="400" y="488"/>
    </contour>
    <contour>
      <point x="238" y="320" type="curve" smooth="yes"/>
      <point x="162" y="320"/>
      <point x="113" y="287"/>
      <point x="113" y="231" type="curve" smooth="yes"/>
      <point x="113" y="190"/>
      <point x="139" y="146"/>
      <point x="261" y="125" type="curve" smooth="yes"/>
      <point x="395" y="102"/>
      <point x="433" y="68"/>
      <point x="433" y="11" type="curve" smooth="yes"/>
      <point x="433" y="-45"/>
      <point x="384" y="-101"/>
      <point x="258" y="-101" type="curve" smooth="yes"/>
      <point x="196" y="-101"/>
      <point x="138" y="-89"/>
      <point x="85" y="-65" type="curve" smooth="yes"/>
      <point x="79" y="-62"/>
      <point x="77" y="-56"/>
      <point x="79" y="-51" type="curve" smooth="yes"/>
      <point x="82" y="-45"/>
      <point x="88" y="-43"/>
      <point x="93" y="-45" type="curve" smooth="yes"/>
      <point x="144" y="-69"/>
      <point x="200" y="-79"/>
      <point x="258" y="-79" type="curve" smooth="yes"/>
      <point x="360" y="-79"/>
      <point x="411" y="-39"/>
      <point x="411" y="11" type="curve" smooth="yes"/>
      <point x="411" y="62"/>
      <point x="367" y="86"/>
      <point x="257" y="105" type="curve" smooth="yes"/>
      <point x="111" y="130"/>
      <point x="91" y="184"/>
      <point x="91" y="231" type="curve" smooth="yes"/>
      <point x="91" y="297"/>
      <point x="144" y="342"/>
      <point x="238" y="342" type="curve" smooth="yes"/>
      <point x="244" y="342"/>
      <point x="249" y="337"/>
      <point x="249" y="331" type="curve" smooth="yes"/>
      <point x="249" y="325"/>
      <point x="244" y="320"/>
    </contour>
  </outline>
</glyph>
<glyph name="dieresis" format="1">
  <advance width="500"/>
  <unicode hex="00A8"/>
  <outline>
    <contour>
      <point x="156" y="597" type="curve" smooth="yes"/>
      <point x="170" y="597"/>
      <point x="182" y="582"/>
      <point x="182" y="560" type="curve" smooth="yes"/>
      <point x="182" y="538"/>
      <point x="170" y="525"/>
      <point x="156" y="525" type="curve" smooth="yes"/>
      <point x="140" y="525"/>
      <point x="127" y="539"/>
      <point x="127" y="560" type="curve" smooth="yes"/>
      <point x="127" y="581"/>
      <point x="141" y="597"/>
    </contour>
    <contour>
      <point x="334" y="597" type="curve" smooth="yes"/>
      <point x="348" y="597"/>
      <point x="360" y="582"/>
      <point x="360" y="560" type="curve" smooth="yes"/>
      <point x="360" y="538"/>
      <point x="348" y="525"/>
      <point x="334" y="525" type="curve" smooth="yes"/>
      <point x="318" y="525"/>
      <point x="305" y="539"/>
      <point x="305" y="560" type="curve" smooth="yes"/>
      <point x="305" y="581"/>
      <point x="319" y="597"/>
    </contour>
    <contour>
      <point x="156" y="575" type="curve" smooth="yes"/>
      <point x="149" y="575"/>
      <point x="149" y="565"/>
      <point x="149" y="560" type="curve" smooth="yes"/>
      <point x="149" y="555"/>
      <point x="150" y="547"/>
      <point x="156" y="547" type="curve" smooth="yes"/>
      <point x="162" y="547"/>
      <point x="160" y="556"/>
      <point x="160" y="560" type="curve" smooth="yes"/>
      <point x="160" y="564"/>
      <point x="162" y="575"/>
    </contour>
    <contour>
      <point x="334" y="575" type="curve" smooth="yes"/>
      <point x="327" y="575"/>
      <point x="327" y="565"/>
      <point x="327" y="560" type="curve" smooth="yes"/>
      <point x="327" y="555"/>
      <point x="328" y="547"/>
      <point x="334" y="547" type="curve" smooth="yes"/>
      <point x="340" y="547"/>
      <point x="338" y="556"/>
      <point x="338" y="560" type="curve" smooth="yes"/>
      <point x="338" y="564"/>
      <point x="340" y="575"/>
    </contour>
  </outline>
</glyph>
<glyph name="copyright" format="1">
  <advance width="663"/>
  <unicode hex="00A9"/>
  <outline>
    <contour>
      <point x="334" y="538" type="curve" smooth="yes"/>
      <point x="479" y="538"/>
      <point x="595" y="429"/>
      <point x="595" y="275" type="curve" smooth="yes"/>
      <point x="595" y="128"/>
      <point x="499" y="13"/>
      <point x="334" y="13" type="curve" smooth="yes"/>
      <point x="178" y="13"/>
      <point x="68" y="128"/>
      <point x="68" y="272" type="curve" smooth="yes"/>
      <point x="68" y="429"/>
      <point x="175" y="538"/>
    </contour>
    <contour>
      <point x="405" y="381" type="curve" smooth="yes"/>
      <point x="389" y="389"/>
      <point x="366" y="395"/>
      <point x="340" y="395" type="curve" smooth="yes"/>
      <point x="277" y="395"/>
      <point x="222" y="346"/>
      <point x="222" y="274" type="curve" smooth="yes"/>
      <point x="222" y="207"/>
      <point x="267" y="156"/>
      <point x="343" y="156" type="curve" smooth="yes"/>
      <point x="368" y="156"/>
      <point x="390" y="161"/>
      <point x="408" y="170" type="curve" smooth="yes"/>
      <point x="413" y="173"/>
      <point x="420" y="171"/>
      <point x="422" y="166" type="curve" smooth="yes"/>
      <point x="425" y="161"/>
      <point x="423" y="154"/>
      <point x="418" y="152" type="curve" smooth="yes"/>
      <point x="398" y="141"/>
      <point x="372" y="134"/>
      <point x="343" y="134" type="curve" smooth="yes"/>
      <point x="253" y="134"/>
      <point x="200" y="195"/>
      <point x="200" y="274" type="curve" smooth="yes"/>
      <point x="200" y="358"/>
      <point x="267" y="417"/>
      <point x="340" y="417" type="curve" smooth="yes"/>
      <point x="370" y="417"/>
      <point x="397" y="409"/>
      <point x="415" y="399" type="curve" smooth="yes"/>
      <point x="420" y="397"/>
      <point x="422" y="390"/>
      <point x="419" y="385" type="curve" smooth="yes"/>
      <point x="417" y="380"/>
      <point x="410" y="378"/>
    </contour>
    <contour>
      <point x="334" y="516" type="curve" smooth="yes"/>
      <point x="187" y="516"/>
      <point x="90" y="417"/>
      <point x="90" y="272" type="curve" smooth="yes"/>
      <point x="90" y="140"/>
      <point x="190" y="35"/>
      <point x="334" y="35" type="curve" smooth="yes"/>
      <point x="485" y="35"/>
      <point x="573" y="140"/>
      <point x="573" y="275" type="curve" smooth="yes"/>
      <point x="573" y="417"/>
      <point x="467" y="516"/>
    </contour>
  </outline>
</glyph>
<glyph name="ordfeminine" format="1">
  <advance width="454"/>
  <unicode hex="00AA"/>
  <outline>
    <contour>
      <point x="103" y="185" type="curve" smooth="yes"/>
      <point x="361" y="185" type="line" smooth="yes"/>
      <point x="367" y="185"/>
      <point x="372" y="180"/>
      <point x="372" y="174" type="curve" smooth="yes"/>
      <point x="372" y="168"/>
      <point x="367" y="163"/>
      <point x="361" y="163" type="curve" smooth="yes"/>
      <point x="103" y="163" type="line" smooth="yes"/>
      <point x="97" y="163"/>
      <point x="92" y="168"/>
      <point x="92" y="174" type="curve" smooth="yes"/>
      <point x="92" y="180"/>
      <point x="97" y="185"/>
    </contour>
    <contour>
      <point x="148" y="516" type="curve" smooth="yes"/>
      <point x="163" y="521"/>
      <point x="190" y="528"/>
      <point x="214" y="528" type="curve" smooth="yes"/>
      <point x="284" y="528"/>
      <point x="317" y="485"/>
      <point x="317" y="424" type="curve" smooth="yes"/>
      <point x="317" y="364" type="line" smooth="yes"/>
      <point x="317" y="331"/>
      <point x="323" y="311"/>
      <point x="338" y="295" type="curve" smooth="yes"/>
      <point x="342" y="291"/>
      <point x="341" y="284"/>
      <point x="337" y="280" type="curve" smooth="yes"/>
      <point x="333" y="276"/>
      <point x="326" y="277"/>
      <point x="322" y="281" type="curve" smooth="yes"/>
      <point x="305" y="301"/>
      <point x="295" y="325"/>
      <point x="295" y="364" type="curve" smooth="yes"/>
      <point x="295" y="424" type="line" smooth="yes"/>
      <point x="295" y="473"/>
      <point x="270" y="506"/>
      <point x="214" y="506" type="curve" smooth="yes"/>
      <point x="192" y="506"/>
      <point x="169" y="501"/>
      <point x="154" y="496" type="curve" smooth="yes"/>
      <point x="149" y="494"/>
      <point x="143" y="497"/>
      <point x="141" y="503" type="curve" smooth="yes"/>
      <point x="139" y="508"/>
      <point x="142" y="514"/>
    </contour>
    <contour>
      <point x="304" y="406" type="curve" smooth="yes"/>
      <point x="281" y="407"/>
      <point x="261" y="409"/>
      <point x="241" y="409" type="curve" smooth="yes"/>
      <point x="194" y="409"/>
      <point x="164" y="398"/>
      <point x="144" y="380" type="curve"/>
      <point x="144" y="381" type="line"/>
      <point x="133" y="369"/>
      <point x="130" y="357"/>
      <point x="130" y="342" type="curve" smooth="yes"/>
      <point x="130" y="322"/>
      <point x="146" y="299"/>
      <point x="184" y="299" type="curve" smooth="yes"/>
      <point x="232" y="299"/>
      <point x="267" y="316"/>
      <point x="298" y="358" type="curve" smooth="yes"/>
      <point x="301" y="363"/>
      <point x="308" y="364"/>
      <point x="312" y="360" type="curve" smooth="yes"/>
      <point x="317" y="357"/>
      <point x="318" y="350"/>
      <point x="314" y="346" type="curve" smooth="yes"/>
      <point x="279" y="298"/>
      <point x="240" y="277"/>
      <point x="184" y="277" type="curve" smooth="yes"/>
      <point x="128" y="277"/>
      <point x="108" y="314"/>
      <point x="108" y="342" type="curve" smooth="yes"/>
      <point x="108" y="363"/>
      <point x="113" y="379"/>
      <point x="130" y="395" type="curve" smooth="yes"/>
      <point x="130" y="396"/>
      <point x="130" y="396"/>
      <point x="130" y="396" type="curve" smooth="yes"/>
      <point x="154" y="416"/>
      <point x="188" y="431"/>
      <point x="241" y="431" type="curve" smooth="yes"/>
      <point x="261" y="431"/>
      <point x="281" y="429"/>
      <point x="304" y="428" type="curve" smooth="yes"/>
      <point x="310" y="427"/>
      <point x="315" y="422"/>
      <point x="315" y="417" type="curve" smooth="yes"/>
      <point x="314" y="411"/>
      <point x="309" y="406"/>
    </contour>
  </outline>
</glyph>
<glyph name="guillemotleft" format="1">
  <advance width="448"/>
  <unicode hex="00AB"/>
  <outline>
    <contour>
      <point x="254" y="205" type="curve" smooth="yes"/>
      <point x="365" y="81" type="line" smooth="yes"/>
      <point x="369" y="77"/>
      <point x="368" y="70"/>
      <point x="364" y="66" type="curve" smooth="yes"/>
      <point x="360" y="62"/>
      <point x="353" y="63"/>
      <point x="349" y="67" type="curve" smooth="yes"/>
      <point x="238" y="191" type="line" smooth="yes"/>
      <point x="234" y="195"/>
      <point x="235" y="202"/>
      <point x="239" y="206" type="curve" smooth="yes"/>
      <point x="243" y="210"/>
      <point x="250" y="209"/>
    </contour>
    <contour>
      <point x="365" y="319" type="curve" smooth="yes"/>
      <point x="254" y="195" type="line" smooth="yes"/>
      <point x="250" y="191"/>
      <point x="243" y="190"/>
      <point x="239" y="194" type="curve" smooth="yes"/>
      <point x="235" y="198"/>
      <point x="234" y="205"/>
      <point x="238" y="209" type="curve" smooth="yes"/>
      <point x="349" y="333" type="line" smooth="yes"/>
      <point x="353" y="337"/>
      <point x="360" y="338"/>
      <point x="364" y="334" type="curve" smooth="yes"/>
      <point x="368" y="330"/>
      <point x="369" y="323"/>
    </contour>
    <contour>
      <point x="84" y="205" type="curve" smooth="yes"/>
      <point x="195" y="81" type="line" smooth="yes"/>
      <point x="199" y="77"/>
      <point x="198" y="70"/>
      <point x="194" y="66" type="curve" smooth="yes"/>
      <point x="190" y="62"/>
      <point x="183" y="63"/>
      <point x="179" y="67" type="curve" smooth="yes"/>
      <point x="68" y="191" type="line" smooth="yes"/>
      <point x="64" y="195"/>
      <point x="65" y="202"/>
      <point x="69" y="206" type="curve" smooth="yes"/>
      <point x="73" y="210"/>
      <point x="80" y="209"/>
    </contour>
    <contour>
      <point x="195" y="319" type="curve" smooth="yes"/>
      <point x="84" y="195" type="line" smooth="yes"/>
      <point x="80" y="191"/>
      <point x="73" y="190"/>
      <point x="69" y="194" type="curve" smooth="yes"/>
      <point x="65" y="198"/>
      <point x="64" y="205"/>
      <point x="68" y="209" type="curve" smooth="yes"/>
      <point x="179" y="333" type="line" smooth="yes"/>
      <point x="183" y="337"/>
      <point x="190" y="338"/>
      <point x="194" y="334" type="curve" smooth="yes"/>
      <point x="198" y="330"/>
      <point x="199" y="323"/>
    </contour>
  </outline>
</glyph>
<glyph name="logicalnot" format="1">
  <advance width="491"/>
  <unicode hex="00AC"/>
  <outline>
    <contour>
      <point x="114" y="270" type="curve" smooth="yes"/>
      <point x="377" y="270" type="line" smooth="yes"/>
      <point x="383" y="270"/>
      <point x="388" y="265"/>
      <point x="388" y="259" type="curve" smooth="yes"/>
      <point x="388" y="253"/>
      <point x="383" y="248"/>
      <point x="377" y="248" type="curve" smooth="yes"/>
      <point x="114" y="248" type="line" smooth="yes"/>
      <point x="108" y="248"/>
      <point x="103" y="253"/>
      <point x="103" y="259" type="curve" smooth="yes"/>
      <point x="103" y="265"/>
      <point x="108" y="270"/>
    </contour>
    <contour>
      <point x="388" y="253" type="curve" smooth="yes"/>
      <point x="388" y="152" type="line" smooth="yes"/>
      <point x="388" y="146"/>
      <point x="383" y="141"/>
      <point x="377" y="141" type="curve" smooth="yes"/>
      <point x="371" y="141"/>
      <point x="366" y="146"/>
      <point x="366" y="152" type="curve" smooth="yes"/>
      <point x="366" y="253" type="line" smooth="yes"/>
      <point x="366" y="259"/>
      <point x="371" y="264"/>
      <point x="377" y="264" type="curve" smooth="yes"/>
      <point x="383" y="264"/>
      <point x="388" y="259"/>
    </contour>
  </outline>
</glyph>
<glyph name="registered" format="1">
  <advance width="570"/>
  <unicode hex="00AE"/>
  <outline>
    <contour>
      <point x="282" y="598" type="curve" smooth="yes"/>
      <point x="174" y="598"/>
      <point x="101" y="524"/>
      <point x="101" y="416" type="curve" smooth="yes"/>
      <point x="101" y="314"/>
      <point x="174" y="227"/>
      <point x="289" y="227" type="curve" smooth="yes"/>
      <point x="396" y="227"/>
      <point x="475" y="306"/>
      <point x="475" y="413" type="curve" smooth="yes"/>
      <point x="475" y="519"/>
      <point x="396" y="598"/>
    </contour>
    <contour>
      <point x="240" y="398" type="curve" smooth="yes"/>
      <point x="287" y="398" type="line" smooth="yes"/>
      <point x="322" y="398"/>
      <point x="339" y="419"/>
      <point x="339" y="446" type="curve" smooth="yes"/>
      <point x="339" y="475"/>
      <point x="318" y="491"/>
      <point x="287" y="491" type="curve" smooth="yes"/>
      <point x="230" y="491" type="line"/>
      <point x="241" y="502" type="line"/>
      <point x="241" y="326" type="line" smooth="yes"/>
      <point x="241" y="320"/>
      <point x="236" y="315"/>
      <point x="230" y="315" type="curve" smooth="yes"/>
      <point x="224" y="315"/>
      <point x="219" y="320"/>
      <point x="219" y="326" type="curve" smooth="yes"/>
      <point x="219" y="502" type="line" smooth="yes"/>
      <point x="219" y="508"/>
      <point x="224" y="513"/>
      <point x="230" y="513" type="curve" smooth="yes"/>
      <point x="287" y="513" type="line" smooth="yes"/>
      <point x="332" y="513"/>
      <point x="361" y="487"/>
      <point x="361" y="446" type="curve" smooth="yes"/>
      <point x="361" y="409"/>
      <point x="338" y="376"/>
      <point x="287" y="376" type="curve" smooth="yes"/>
      <point x="240" y="376" type="line" smooth="yes"/>
      <point x="234" y="376"/>
      <point x="229" y="381"/>
      <point x="229" y="387" type="curve" smooth="yes"/>
      <point x="229" y="393"/>
      <point x="234" y="398"/>
    </contour>
    <contour>
      <point x="322" y="388" type="curve" smooth="yes"/>
      <point x="369" y="333" type="line" smooth="yes"/>
      <point x="373" y="329"/>
      <point x="372" y="322"/>
      <point x="368" y="318" type="curve" smooth="yes"/>
      <point x="364" y="314"/>
      <point x="357" y="315"/>
      <point x="353" y="319" type="curve" smooth="yes"/>
      <point x="306" y="374" type="line" smooth="yes"/>
      <point x="302" y="378"/>
      <point x="303" y="385"/>
      <point x="307" y="389" type="curve" smooth="yes"/>
      <point x="311" y="393"/>
      <point x="318" y="392"/>
    </contour>
    <contour>
      <point x="282" y="620" type="curve" smooth="yes"/>
      <point x="410" y="620"/>
      <point x="497" y="531"/>
      <point x="497" y="413" type="curve" smooth="yes"/>
      <point x="497" y="294"/>
      <point x="408" y="205"/>
      <point x="289" y="205" type="curve" smooth="yes"/>
      <point x="162" y="205"/>
      <point x="79" y="302"/>
      <point x="79" y="416" type="curve" smooth="yes"/>
      <point x="79" y="536"/>
      <point x="162" y="620"/>
    </contour>
  </outline>
</glyph>
<glyph name="macron" format="1">
  <advance width="500"/>
  <unicode hex="00AF"/>
  <outline>
    <contour>
      <point x="355" y="533" type="curve" smooth="yes"/>
      <point x="146" y="533" type="line" smooth="yes"/>
      <point x="140" y="533"/>
      <point x="135" y="538"/>
      <point x="135" y="544" type="curve" smooth="yes"/>
      <point x="135" y="550"/>
      <point x="140" y="555"/>
      <point x="146" y="555" type="curve" smooth="yes"/>
      <point x="355" y="555" type="line" smooth="yes"/>
      <point x="361" y="555"/>
      <point x="366" y="550"/>
      <point x="366" y="544" type="curve" smooth="yes"/>
      <point x="366" y="538"/>
      <point x="361" y="533"/>
    </contour>
  </outline>
</glyph>
<glyph name="degree" format="1">
  <advance width="369"/>
  <unicode hex="00B0"/>
  <outline>
    <contour>
      <point x="185" y="534" type="curve" smooth="yes"/>
      <point x="255" y="534"/>
      <point x="299" y="483"/>
      <point x="299" y="419" type="curve" smooth="yes"/>
      <point x="299" y="358"/>
      <point x="255" y="309"/>
      <point x="185" y="309" type="curve" smooth="yes"/>
      <point x="114" y="309"/>
      <point x="70" y="357"/>
      <point x="70" y="419" type="curve" smooth="yes"/>
      <point x="70" y="482"/>
      <point x="112" y="534"/>
    </contour>
    <contour>
      <point x="185" y="512" type="curve" smooth="yes"/>
      <point x="126" y="512"/>
      <point x="92" y="470"/>
      <point x="92" y="419" type="curve" smooth="yes"/>
      <point x="92" y="369"/>
      <point x="128" y="331"/>
      <point x="185" y="331" type="curve" smooth="yes"/>
      <point x="241" y="331"/>
      <point x="277" y="370"/>
      <point x="277" y="419" type="curve" smooth="yes"/>
      <point x="277" y="471"/>
      <point x="243" y="512"/>
    </contour>
  </outline>
</glyph>
<glyph name="plusminus" format="1">
  <advance width="491"/>
  <unicode hex="00B1"/>
  <outline>
    <contour>
      <point x="92" y="327" type="curve" smooth="yes"/>
      <point x="398" y="327" type="line" smooth="yes"/>
      <point x="404" y="327"/>
      <point x="409" y="322"/>
      <point x="409" y="316" type="curve" smooth="yes"/>
      <point x="409" y="310"/>
      <point x="404" y="305"/>
      <point x="398" y="305" type="curve" smooth="yes"/>
      <point x="92" y="305" type="line" smooth="yes"/>
      <point x="86" y="305"/>
      <point x="81" y="310"/>
      <point x="81" y="316" type="curve" smooth="yes"/>
      <point x="81" y="322"/>
      <point x="86" y="327"/>
    </contour>
    <contour>
      <point x="234" y="207" type="curve" smooth="yes"/>
      <point x="234" y="424" type="line" smooth="yes"/>
      <point x="234" y="430"/>
      <point x="239" y="435"/>
      <point x="245" y="435" type="curve" smooth="yes"/>
      <point x="251" y="435"/>
      <point x="256" y="430"/>
      <point x="256" y="424" type="curve" smooth="yes"/>
      <point x="256" y="207" type="line" smooth="yes"/>
      <point x="256" y="201"/>
      <point x="251" y="196"/>
      <point x="245" y="196" type="curve" smooth="yes"/>
      <point x="239" y="196"/>
      <point x="234" y="201"/>
    </contour>
    <contour>
      <point x="92" y="103" type="curve" smooth="yes"/>
      <point x="398" y="103" type="line" smooth="yes"/>
      <point x="404" y="103"/>
      <point x="409" y="98"/>
      <point x="409" y="92" type="curve" smooth="yes"/>
      <point x="409" y="86"/>
      <point x="404" y="81"/>
      <point x="398" y="81" type="curve" smooth="yes"/>
      <point x="92" y="81" type="line" smooth="yes"/>
      <point x="86" y="81"/>
      <point x="81" y="86"/>
      <point x="81" y="92" type="curve" smooth="yes"/>
      <point x="81" y="98"/>
      <point x="86" y="103"/>
    </contour>
  </outline>
</glyph>
<glyph name="acute" format="1">
  <advance width="500"/>
  <unicode hex="00B4"/>
  <outline>
    <contour>
      <point x="293" y="590" type="curve" smooth="yes"/>
      <point x="259" y="554"/>
      <point x="240" y="531"/>
      <point x="220" y="500" type="curve" smooth="yes"/>
      <point x="217" y="496"/>
      <point x="210" y="494"/>
      <point x="205" y="497" type="curve" smooth="yes"/>
      <point x="201" y="500"/>
      <point x="199" y="507"/>
      <point x="202" y="512" type="curve" smooth="yes"/>
      <point x="222" y="543"/>
      <point x="243" y="568"/>
      <point x="277" y="604" type="curve" smooth="yes"/>
      <point x="281" y="608"/>
      <point x="288" y="609"/>
      <point x="292" y="605" type="curve" smooth="yes"/>
      <point x="296" y="601"/>
      <point x="297" y="594"/>
    </contour>
  </outline>
</glyph>
<glyph name="paragraph" format="1">
  <advance width="566"/>
  <unicode hex="00B6"/>
  <outline>
    <contour>
      <point x="427" y="33" type="curve" smooth="yes"/>
      <point x="427" y="518" type="line"/>
      <point x="438" y="507" type="line"/>
      <point x="250" y="507" type="line" smooth="yes"/>
      <point x="156" y="507"/>
      <point x="93" y="448"/>
      <point x="93" y="364" type="curve" smooth="yes"/>
      <point x="93" y="284"/>
      <point x="145" y="220"/>
      <point x="250" y="220" type="curve" smooth="yes"/>
      <point x="306" y="220" type="line" smooth="yes"/>
      <point x="312" y="220"/>
      <point x="317" y="215"/>
      <point x="317" y="209" type="curve" smooth="yes"/>
      <point x="317" y="203"/>
      <point x="312" y="198"/>
      <point x="306" y="198" type="curve" smooth="yes"/>
      <point x="250" y="198" type="line" smooth="yes"/>
      <point x="129" y="198"/>
      <point x="71" y="274"/>
      <point x="71" y="364" type="curve" smooth="yes"/>
      <point x="71" y="460"/>
      <point x="142" y="529"/>
      <point x="250" y="529" type="curve" smooth="yes"/>
      <point x="438" y="529" type="line" smooth="yes"/>
      <point x="444" y="529"/>
      <point x="449" y="524"/>
      <point x="449" y="518" type="curve" smooth="yes"/>
      <point x="449" y="33" type="line" smooth="yes"/>
      <point x="449" y="27"/>
      <point x="444" y="22"/>
      <point x="438" y="22" type="curve" smooth="yes"/>
      <point x="432" y="22"/>
      <point x="427" y="27"/>
    </contour>
    <contour>
      <point x="295" y="33" type="curve" smooth="yes"/>
      <point x="295" y="516" type="line" smooth="yes"/>
      <point x="295" y="522"/>
      <point x="300" y="527"/>
      <point x="306" y="527" type="curve" smooth="yes"/>
      <point x="312" y="527"/>
      <point x="317" y="522"/>
      <point x="317" y="516" type="curve" smooth="yes"/>
      <point x="317" y="33" type="line" smooth="yes"/>
      <point x="317" y="27"/>
      <point x="312" y="22"/>
      <point x="306" y="22" type="curve" smooth="yes"/>
      <point x="300" y="22"/>
      <point x="295" y="27"/>
    </contour>
  </outline>
</glyph>
<glyph name="cedilla" format="1">
  <advance width="500"/>
  <unicode hex="00B8"/>
  <outline>
    <contour>
      <point x="300" y="-81" type="curve" smooth="yes"/>
      <point x="275" y="-106"/>
      <point x="235" y="-145"/>
      <point x="212" y="-168" type="curve" smooth="yes"/>
      <point x="208" y="-172"/>
      <point x="202" y="-172"/>
      <point x="198" y="-168" type="curve" smooth="yes"/>
      <point x="194" y="-164"/>
      <point x="194" y="-158"/>
      <point x="198" y="-154" type="curve" smooth="yes"/>
      <point x="221" y="-131"/>
      <point x="261" y="-92"/>
      <point x="286" y="-67" type="curve" smooth="yes"/>
      <point x="290" y="-63"/>
      <point x="296" y="-63"/>
      <point x="300" y="-67" type="curve" smooth="yes"/>
      <point x="304" y="-71"/>
      <point x="304" y="-77"/>
    </contour>
  </outline>
</glyph>
<glyph name="ordmasculine" format="1">
  <advance width="448"/>
  <unicode hex="00BA"/>
  <outline>
    <contour>
      <point x="224" y="528" type="curve" smooth="yes"/>
      <point x="299" y="528"/>
      <point x="348" y="470"/>
      <point x="348" y="401" type="curve" smooth="yes"/>
      <point x="348" y="331"/>
      <point x="299" y="278"/>
      <point x="224" y="278" type="curve" smooth="yes"/>
      <point x="149" y="278"/>
      <point x="99" y="331"/>
      <point x="99" y="401" type="curve" smooth="yes"/>
      <point x="99" y="470"/>
      <point x="147" y="528"/>
    </contour>
    <contour>
      <point x="224" y="506" type="curve" smooth="yes"/>
      <point x="159" y="506"/>
      <point x="121" y="458"/>
      <point x="121" y="401" type="curve" smooth="yes"/>
      <point x="121" y="343"/>
      <point x="161" y="300"/>
      <point x="224" y="300" type="curve" smooth="yes"/>
      <point x="287" y="300"/>
      <point x="326" y="343"/>
      <point x="326" y="401" type="curve" smooth="yes"/>
      <point x="326" y="458"/>
      <point x="287" y="506"/>
    </contour>
    <contour>
      <point x="103" y="185" type="curve" smooth="yes"/>
      <point x="352" y="185" type="line" smooth="yes"/>
      <point x="358" y="185"/>
      <point x="363" y="180"/>
      <point x="363" y="174" type="curve" smooth="yes"/>
      <point x="363" y="168"/>
      <point x="358" y="163"/>
      <point x="352" y="163" type="curve" smooth="yes"/>
      <point x="103" y="163" type="line" smooth="yes"/>
      <point x="97" y="163"/>
      <point x="92" y="168"/>
      <point x="92" y="174" type="curve" smooth="yes"/>
      <point x="92" y="180"/>
      <point x="97" y="185"/>
    </contour>
  </outline>
</glyph>
<glyph name="guillemotright" format="1">
  <advance width="448"/>
  <unicode hex="00BB"/>
  <outline>
    <contour>
      <point x="83" y="81" type="curve" smooth="yes"/>
      <point x="194" y="205" type="line" smooth="yes"/>
      <point x="198" y="209"/>
      <point x="205" y="210"/>
      <point x="209" y="206" type="curve" smooth="yes"/>
      <point x="213" y="202"/>
      <point x="214" y="195"/>
      <point x="210" y="191" type="curve" smooth="yes"/>
      <point x="99" y="67" type="line" smooth="yes"/>
      <point x="95" y="63"/>
      <point x="88" y="62"/>
      <point x="84" y="66" type="curve" smooth="yes"/>
      <point x="80" y="70"/>
      <point x="79" y="77"/>
    </contour>
    <contour>
      <point x="194" y="195" type="curve" smooth="yes"/>
      <point x="83" y="319" type="line" smooth="yes"/>
      <point x="79" y="323"/>
      <point x="80" y="330"/>
      <point x="84" y="334" type="curve" smooth="yes"/>
      <point x="88" y="338"/>
      <point x="95" y="337"/>
      <point x="99" y="333" type="curve" smooth="yes"/>
      <point x="210" y="209" type="line" smooth="yes"/>
      <point x="214" y="205"/>
      <point x="213" y="198"/>
      <point x="209" y="194" type="curve" smooth="yes"/>
      <point x="205" y="190"/>
      <point x="198" y="191"/>
    </contour>
    <contour>
      <point x="253" y="81" type="curve" smooth="yes"/>
      <point x="364" y="205" type="line" smooth="yes"/>
      <point x="368" y="209"/>
      <point x="375" y="210"/>
      <point x="379" y="206" type="curve" smooth="yes"/>
      <point x="383" y="202"/>
      <point x="384" y="195"/>
      <point x="380" y="191" type="curve" smooth="yes"/>
      <point x="269" y="67" type="line" smooth="yes"/>
      <point x="265" y="63"/>
      <point x="258" y="62"/>
      <point x="254" y="66" type="curve" smooth="yes"/>
      <point x="250" y="70"/>
      <point x="249" y="77"/>
    </contour>
    <contour>
      <point x="364" y="195" type="curve" smooth="yes"/>
      <point x="253" y="319" type="line" smooth="yes"/>
      <point x="249" y="323"/>
      <point x="250" y="330"/>
      <point x="254" y="334" type="curve" smooth="yes"/>
      <point x="258" y="338"/>
      <point x="265" y="337"/>
      <point x="269" y="333" type="curve" smooth="yes"/>
      <point x="380" y="209" type="line" smooth="yes"/>
      <point x="384" y="205"/>
      <point x="383" y="198"/>
      <point x="379" y="194" type="curve" smooth="yes"/>
      <point x="375" y="190"/>
      <point x="368" y="191"/>
    </contour>
  </outline>
</glyph>
<glyph name="onequarter" format="1">
  <advance width="724"/>
  <unicode hex="00BC"/>
  <outline>
    <contour>
      <point x="506" y="513" type="curve" smooth="yes"/>
      <point x="223" y="28" type="line" smooth="yes"/>
      <point x="220" y="23"/>
      <point x="214" y="21"/>
      <point x="209" y="24" type="curve" smooth="yes"/>
      <point x="204" y="27"/>
      <point x="202" y="33"/>
      <point x="205" y="38" type="curve" smooth="yes"/>
      <point x="488" y="523" type="line" smooth="yes"/>
      <point x="491" y="528"/>
      <point x="497" y="530"/>
      <point x="502" y="527" type="curve" smooth="yes"/>
      <point x="507" y="524"/>
      <point x="509" y="518"/>
    </contour>
    <contour>
      <point x="571" y="294" type="curve" smooth="yes"/>
      <point x="571" y="34" type="line" smooth="yes"/>
      <point x="571" y="28"/>
      <point x="566" y="23"/>
      <point x="560" y="23" type="curve" smooth="yes"/>
      <point x="554" y="23"/>
      <point x="549" y="28"/>
      <point x="549" y="34" type="curve" smooth="yes"/>
      <point x="549" y="294" type="line" smooth="yes"/>
      <point x="549" y="300"/>
      <point x="554" y="305"/>
      <point x="560" y="305" type="curve" smooth="yes"/>
      <point x="566" y="305"/>
      <point x="571" y="300"/>
    </contour>
    <contour>
      <point x="564" y="282" type="curve" smooth="yes"/>
      <point x="410" y="102" type="line" smooth="yes"/>
      <point x="406" y="98"/>
      <point x="399" y="97"/>
      <point x="395" y="101" type="curve" smooth="yes"/>
      <point x="391" y="105"/>
      <point x="390" y="112"/>
      <point x="394" y="116" type="curve" smooth="yes"/>
      <point x="548" y="296" type="line" smooth="yes"/>
      <point x="552" y="300"/>
      <point x="559" y="301"/>
      <point x="563" y="297" type="curve" smooth="yes"/>
      <point x="567" y="293"/>
      <point x="568" y="286"/>
    </contour>
    <contour>
      <point x="407" y="120" type="curve" smooth="yes"/>
      <point x="622" y="120" type="line" smooth="yes"/>
      <point x="628" y="120"/>
      <point x="633" y="115"/>
      <point x="633" y="109" type="curve" smooth="yes"/>
      <point x="633" y="103"/>
      <point x="628" y="98"/>
      <point x="622" y="98" type="curve" smooth="yes"/>
      <point x="407" y="98" type="line" smooth="yes"/>
      <point x="401" y="98"/>
      <point x="396" y="103"/>
      <point x="396" y="109" type="curve" smooth="yes"/>
      <point x="396" y="115"/>
      <point x="401" y="120"/>
    </contour>
    <contour>
      <point x="218" y="525" type="curve" smooth="yes"/>
      <point x="218" y="267" type="line" smooth="yes"/>
      <point x="218" y="261"/>
      <point x="213" y="256"/>
      <point x="207" y="256" type="curve" smooth="yes"/>
      <point x="201" y="256"/>
      <point x="196" y="261"/>
      <point x="196" y="267" type="curve" smooth="yes"/>
      <point x="196" y="525" type="line" smooth="yes"/>
      <point x="196" y="531"/>
      <point x="201" y="536"/>
      <point x="207" y="536" type="curve" smooth="yes"/>
      <point x="213" y="536"/>
      <point x="218" y="531"/>
    </contour>
    <contour>
      <point x="212" y="519" type="curve" smooth="yes"/>
      <point x="130" y="475" type="line" smooth="yes"/>
      <point x="125" y="472"/>
      <point x="118" y="474"/>
      <point x="116" y="479" type="curve" smooth="yes"/>
      <point x="113" y="484"/>
      <point x="115" y="491"/>
      <point x="120" y="493" type="curve" smooth="yes"/>
      <point x="202" y="537" type="line" smooth="yes"/>
      <point x="207" y="540"/>
      <point x="214" y="538"/>
      <point x="216" y="533" type="curve" smooth="yes"/>
      <point x="219" y="528"/>
      <point x="217" y="521"/>
    </contour>
  </outline>
</glyph>
